<?xml version="1.0" encoding="UTF-8" standalone="no"?>
<!-- Created with Inkscape (http://www.inkscape.org/) -->

<svg
   width="250"
   height="250"
   viewBox="0 0 66.14583 66.145835"
   version="1.1"
   id="svg4188"
   inkscape:version="1.2.2 (732a01da63, 2022-12-09)"
   sodipodi:docname="9f9c-counting.svg"
   xmlns:inkscape="http://www.inkscape.org/namespaces/inkscape"
   xmlns:sodipodi="http://sodipodi.sourceforge.net/DTD/sodipodi-0.dtd"
   xmlns="http://www.w3.org/2000/svg"
   xmlns:svg="http://www.w3.org/2000/svg">
  <sodipodi:namedview
     id="namedview4190"
     pagecolor="#ffffff"
     bordercolor="#000000"
     borderopacity="0.25"
     inkscape:showpageshadow="2"
     inkscape:pageopacity="0.0"
     inkscape:pagecheckerboard="0"
     inkscape:deskcolor="#d1d1d1"
     inkscape:document-units="mm"
     showgrid="false"
     inkscape:zoom="3.14"
     inkscape:cx="125"
     inkscape:cy="125"
     inkscape:window-width="1920"
     inkscape:window-height="1001"
     inkscape:window-x="-9"
     inkscape:window-y="-9"
     inkscape:window-maximized="1"
     inkscape:current-layer="layer1" />
  <defs
     id="defs4185" />
  <g
     inkscape:label="Layer 1"
     inkscape:groupmode="layer"
     id="layer1">
    <g
       aria-label="龜"
       id="text4363"
       style="font-size:134.919px;font-family:'Source Han Sans K VF';-inkscape-font-specification:'Source Han Sans K VF';stroke-width:35.8543;stroke-dasharray:143.417, 35.8543"
       transform="matrix(0.5,0,0,0.5,0.07611061,1.5187397)">
      <path
         d="m 41.388196,15.472477 h 32.245642 c -1.888866,2.833299 -4.182489,5.801517 -6.476112,8.230059 H 32.348622 c 3.238056,-2.69838 6.206275,-5.39676 9.039574,-8.230059 z M 7.3886061,98.717504 v 5.936436 H 33.96765 v 5.6666 H 13.864718 v 5.80152 h 27.928235 v -10.79352 h 9.849087 v 4.18248 c 0,13.35699 4.722165,16.59504 20.777527,16.59504 3.642813,0 34.674183,0 38.586833,0 12.95223,0 15.92045,-3.91265 17.26964,-16.05536 -2.56347,-0.53968 -6.07136,-1.88887 -8.23006,-3.10314 -0.80952,9.30941 -2.29363,11.3332 -9.44433,11.3332 -6.20628,0 -33.324999,0 -38.182083,0 -10.253844,0 -12.007791,-1.61903 -12.007791,-8.63482 v -4.3174 H 118.83171 V 63.233805 H 80.649627 V 47.313363 H 114.24446 V 23.702536 H 77.546489 c 3.103138,-3.372975 6.206275,-7.420545 8.364979,-11.063358 l -5.936437,-4.0475702 -1.34919,0.404757 H 47.324632 L 51.372202,4.0043616 41.388196,1.9805765 C 34.507326,11.424907 21.959859,22.758103 5.49974,30.853244 c 2.1587041,1.34919 5.126922,4.452327 6.476112,6.611031 2.968218,-1.619028 5.801518,-3.372975 8.499898,-5.126922 v 14.97601 H 51.64204 V 63.233805 H 41.792953 V 52.710123 H 13.864718 v 5.666598 H 33.96765 V 63.9084 H 7.6584441 v 5.666599 H 33.96765 v 5.666598 H 13.864718 v 5.666598 H 41.792953 V 70.519432 H 51.64204 V 98.042909 H 41.792953 V 87.384307 H 13.864718 v 5.666599 H 33.96765 v 5.666598 z M 71.879891,30.313568 V 63.233805 H 60.411776 V 30.313568 Z m 8.769736,0 H 104.53029 V 40.83725 H 80.649627 Z M 71.879891,70.519432 V 98.042909 H 60.411776 V 70.519432 Z m 11.468116,7.960221 c 2.833299,1.753947 5.936436,3.912651 8.904654,6.071355 -3.103137,3.912652 -6.611031,7.285627 -10.253844,10.118926 1.214271,0.809514 2.968218,2.293623 4.04757,3.372975 h -5.39676 V 70.519432 H 110.60165 V 98.042909 H 87.800334 c 3.103137,-2.69838 6.341193,-6.071355 9.174492,-9.579249 3.103134,2.563461 5.666594,4.992003 7.420544,7.150707 l 4.45233,-4.857084 c -1.88887,-2.293623 -4.72217,-4.857085 -7.96022,-7.420546 2.42854,-3.507894 4.58724,-7.150707 6.34119,-10.79352 l -6.20627,-1.619028 c -1.484113,2.968218 -3.103141,5.936436 -5.126926,8.769735 -2.833299,-2.023785 -5.666598,-3.777732 -8.499897,-5.39676 z M 29.92008,30.313568 H 51.64204 V 40.83725 H 29.92008 Z"
         style="font-family:'Source Han Sans TC';-inkscape-font-specification:'Source Han Sans TC'"
         id="path4415" />
    </g>
    <g
       aria-label="0"
       id="text4420"
       style="font-size:25.9045px;font-family:'Source Han Sans TC';-inkscape-font-specification:'Source Han Sans TC';fill:#ff0000;stroke-width:6.88402;stroke-dasharray:27.5362, 6.88402"
       transform="matrix(0.5,0,0,0.5,0.07611061,1.5187397)">
      <path
         d="m 65.993852,56.725585 q -0.699422,0 -1.424748,-0.129523 Q 63.869683,56.46654 63.247975,56.129781 62.626267,55.793023 62.134081,55.274933 61.6678,54.730938 61.356946,54.10923 61.071997,53.461618 60.942474,52.762196 60.838856,52.03687 60.838856,51.337449 v -8.678007 q 0,-0.699422 0.103618,-1.398843 0.129523,-0.725326 0.414472,-1.347034 0.310854,-0.647613 0.80304,-1.165703 0.492185,-0.543994 1.113893,-0.880753 0.621708,-0.336758 1.32113,-0.492185 0.699421,-0.181332 1.398843,-0.181332 0.699421,0 1.398843,0.181332 0.699421,0.155427 1.321129,0.492185 0.621708,0.336759 1.113894,0.880753 0.492185,0.51809 0.777134,1.165703 0.310854,0.621708 0.414472,1.347034 0.129523,0.699421 0.129523,1.398843 v 8.678007 q 0,0.699421 -0.129523,1.424747 -0.103618,0.699422 -0.414472,1.347034 -0.284949,0.621708 -0.777134,1.165703 -0.466281,0.51809 -1.087989,0.854848 -0.621708,0.336759 -1.347034,0.466281 -0.699422,0.129523 -1.398843,0.129523 z m -2.279596,-9.170193 4.559192,-3.600725 v -1.295225 q 0,-0.51809 -0.103618,-1.03618 -0.103618,-0.543995 -0.414472,-0.958467 -0.28495,-0.440376 -0.777135,-0.673517 -0.492186,-0.23314 -1.010276,-0.23314 -0.51809,0 -1.010275,0.259045 -0.466281,0.23314 -0.751231,0.673517 -0.284949,0.414472 -0.388567,0.932562 -0.103618,0.51809 -0.103618,1.03618 z m 2.279596,6.683361 q 0.51809,0 0.984371,-0.233141 0.492185,-0.23314 0.777135,-0.673517 0.310854,-0.440376 0.414472,-0.958466 0.103618,-0.51809 0.103618,-1.03618 v -4.89595 l -4.559192,3.600725 v 1.295225 q 0,0.51809 0.103618,1.03618 0.103618,0.51809 0.388567,0.958466 0.310854,0.440377 0.777135,0.673517 0.492186,0.233141 1.010276,0.233141 z"
         style="font-weight:bold;font-family:'Sarasa Mono CL';-inkscape-font-specification:'Sarasa Mono CL Bold'"
         id="path4644" />
    </g>
    <g
       aria-label="1"
       id="text4420-3"
       style="font-size:25.9045px;font-family:'Source Han Sans TC';-inkscape-font-specification:'Source Han Sans TC';fill:#ff0000;stroke-width:6.88402;stroke-dasharray:27.5362, 6.88402"
       transform="matrix(0.5,0,0,0.5,0.07611061,1.5187397)">
      <path
         d="M 39.096755,44.485897 V 28.114254 l -2.979017,2.383214 -1.424748,-1.528366 4.403765,-3.523012 h 2.901304 v 19.039807 z"
         style="font-weight:bold;font-family:'Sarasa Mono CL';-inkscape-font-specification:'Sarasa Mono CL Bold'"
         id="path4641" />
    </g>
    <g
       aria-label="3"
       id="text4420-3-5"
       style="font-size:25.9045px;font-family:'Source Han Sans TC';-inkscape-font-specification:'Source Han Sans TC';fill:#ff0000;stroke-width:6.88402;stroke-dasharray:27.5362, 6.88402"
       transform="matrix(0.5,0,0,0.5,0.07611061,1.5187397)">
      <path
         d="m 65.875209,93.646064 q -0.673517,0 -1.372939,-0.129523 -0.673517,-0.103618 -1.295225,-0.388567 -0.595803,-0.310854 -1.113893,-0.777135 -0.492186,-0.492186 -0.828944,-1.087989 -0.336759,-0.621708 -0.492186,-1.295225 -0.155427,-0.673517 -0.155427,-1.347034 h 2.8754 q 0,0.492185 0.155427,0.984371 0.155427,0.466281 0.466281,0.854848 0.336758,0.362663 0.803039,0.543995 0.466281,0.155427 0.958467,0.155427 0.543994,0 1.03618,-0.207236 0.492185,-0.233141 0.803039,-0.647613 0.310854,-0.440376 0.440376,-0.958466 0.155427,-0.51809 0.155427,-1.03618 0,-0.51809 -0.155427,-1.03618 -0.155427,-0.51809 -0.466281,-0.932562 -0.284949,-0.440377 -0.725325,-0.725326 -0.440377,-0.310854 -0.932562,-0.466281 -0.492186,-0.155427 -1.03618,-0.181332 -0.51809,-0.05181 -1.03618,-0.05181 v -2.486832 q 0.466281,0 0.958466,-0.0259 0.492186,-0.05181 0.932562,-0.207236 0.466281,-0.155427 0.854849,-0.440377 0.388567,-0.284949 0.647612,-0.673517 0.284949,-0.388567 0.414472,-0.854848 0.129522,-0.492185 0.129522,-0.958466 0,-0.466281 -0.103618,-0.906658 -0.103618,-0.466281 -0.362663,-0.854848 -0.23314,-0.388568 -0.673516,-0.595804 -0.414472,-0.23314 -0.854849,-0.23314 -0.440376,0 -0.854848,0.207236 -0.414472,0.181331 -0.673517,0.543994 -0.233141,0.362663 -0.362663,0.80304 -0.103618,0.440376 -0.103618,0.880753 0,0 0,0 0,0 0,0.0259 h -2.8754 q 0,-0.0259 0,-0.0259 0,-0.02591 0,-0.02591 0,-0.647612 0.129523,-1.295225 0.155427,-0.647612 0.440376,-1.217511 0.28495,-0.595804 0.751231,-1.062085 0.466281,-0.466281 1.03618,-0.777135 0.569899,-0.310854 1.217511,-0.414472 0.647613,-0.129522 1.295225,-0.129522 0.647613,0 1.295225,0.129522 0.673517,0.129523 1.243416,0.466281 0.569899,0.310854 1.010275,0.80304 0.466281,0.492185 0.751231,1.087989 0.284949,0.595803 0.414472,1.243416 0.155427,0.647612 0.155427,1.321129 0,0.673517 -0.181332,1.347034 -0.155427,0.673517 -0.51809,1.243416 -0.362663,0.569899 -0.880753,1.03618 -0.51809,0.466281 -1.139798,0.75123 0.699422,0.28495 1.295225,0.777135 0.595804,0.466281 1.010276,1.087989 0.414472,0.621708 0.621708,1.372939 0.207236,0.725326 0.207236,1.476556 0,0.699422 -0.155427,1.398843 -0.155427,0.699422 -0.492186,1.347034 -0.310854,0.621708 -0.803039,1.139798 -0.492186,0.492186 -1.113894,0.828944 -0.621708,0.336759 -1.321129,0.466281 -0.699421,0.129523 -1.424747,0.129523 z"
         style="font-weight:bold;font-family:'Sarasa Mono CL';-inkscape-font-specification:'Sarasa Mono CL Bold'"
         id="path4638" />
    </g>
    <g
       aria-label="4"
       id="text4420-3-5-2"
       style="font-size:25.9045px;font-family:'Source Han Sans TC';-inkscape-font-specification:'Source Han Sans TC';fill:#ff0000;stroke-width:6.88402;stroke-dasharray:27.5362, 6.88402"
       transform="matrix(0.5,0,0,0.5,0.07611061,1.5187397)">
      <path
         d="m 95.095809,93.43882 v -4.792332 h -5.828513 v -2.486832 l 5.647181,-11.760643 h 3.10854 l -5.647181,11.760643 h 2.719973 v -3.885675 h 2.875399 v 3.885675 h 1.398843 v 2.486832 h -1.398843 v 4.792332 z"
         style="font-weight:bold;font-family:'Sarasa Mono CL';-inkscape-font-specification:'Sarasa Mono CL Bold'"
         id="path4635" />
    </g>
    <g
       aria-label="2"
       id="text4420-3-4"
       style="font-size:25.9045px;font-family:'Source Han Sans TC';-inkscape-font-specification:'Source Han Sans TC';fill:#ff0000;stroke-width:6.88402;stroke-dasharray:27.5362, 6.88402"
       transform="matrix(0.5,0,0,0.5,0.07611061,1.5187397)">
      <path
         d="m 88.422935,43.999634 v -0.02591 q 0,-0.673517 0.0259,-1.347034 0.0259,-0.699421 0.103618,-1.347034 0.103618,-0.673517 0.28495,-1.321129 0.181331,-0.673517 0.466281,-1.269321 0.284949,-0.621707 0.647612,-1.191606 0.388568,-0.569899 0.828944,-1.062085 0.440377,-0.51809 0.932562,-0.958466 0.51809,-0.466281 1.062085,-0.880753 0.543994,-0.414472 1.062084,-0.854849 0.51809,-0.440376 0.906658,-0.984371 0.414472,-0.543994 0.595803,-1.191607 0.207236,-0.673517 0.207236,-1.347034 0,-0.362663 -0.05181,-0.699421 -0.0259,-0.336759 -0.129522,-0.673517 -0.103618,-0.336759 -0.28495,-0.621708 -0.155427,-0.310854 -0.414472,-0.543995 -0.259045,-0.23314 -0.595803,-0.336758 -0.336759,-0.103618 -0.673517,-0.103618 -0.466281,0 -0.906658,0.181331 -0.440376,0.181332 -0.725326,0.543995 -0.259045,0.362663 -0.388567,0.828944 -0.129523,0.440376 -0.129523,0.906657 0,0 0,0 0,0 0,0.0259 h -2.875399 q 0,-0.0259 0,-0.0259 0,0 0,-0.0259 0,-0.647613 0.129522,-1.295225 0.155427,-0.673517 0.466281,-1.243416 0.310854,-0.595804 0.777135,-1.062085 0.492186,-0.492185 1.062085,-0.777135 0.595803,-0.310854 1.243416,-0.414472 0.673517,-0.129522 1.347034,-0.129522 0.699421,0 1.398843,0.155427 0.699421,0.129522 1.295225,0.492185 0.621708,0.336759 1.087989,0.880753 0.466281,0.543995 0.75123,1.191607 0.284949,0.621708 0.388567,1.347034 0.103618,0.699422 0.103618,1.398843 0,0.854849 -0.23314,1.683793 -0.207236,0.828944 -0.647612,1.580174 -0.440377,0.725326 -1.062085,1.347034 -0.621708,0.595804 -1.26932,1.139798 -0.647613,0.543995 -1.269321,1.139798 -0.621708,0.595804 -1.139798,1.295225 -0.492185,0.673517 -0.854848,1.476556 -0.336759,0.777135 -0.466281,1.631984 h 6.838787 v 2.486832 z"
         style="font-weight:bold;font-family:'Sarasa Mono CL';-inkscape-font-specification:'Sarasa Mono CL Bold'"
         id="path4632" />
    </g>
  </g>
</svg>
