<?xml version="1.0" encoding="UTF-8" standalone="no"?>
<!-- Created with Inkscape (http://www.inkscape.org/) -->

<svg
   width="1199.9999"
   height="400.00006"
   viewBox="0 0 317.49995 105.83336"
   version="1.1"
   id="svg5"
   inkscape:version="1.2.2 (732a01da63, 2022-12-09)"
   sodipodi:docname="9f9c-v-decompose.svg"
   xmlns:inkscape="http://www.inkscape.org/namespaces/inkscape"
   xmlns:sodipodi="http://sodipodi.sourceforge.net/DTD/sodipodi-0.dtd"
   xmlns="http://www.w3.org/2000/svg"
   xmlns:svg="http://www.w3.org/2000/svg">
  <sodipodi:namedview
     id="namedview7"
     pagecolor="#ffffff"
     bordercolor="#000000"
     borderopacity="0.25"
     inkscape:showpageshadow="2"
     inkscape:pageopacity="0.0"
     inkscape:pagecheckerboard="0"
     inkscape:deskcolor="#d1d1d1"
     inkscape:document-units="mm"
     showgrid="false"
     inkscape:zoom="0.43712935"
     inkscape:cx="939.0813"
     inkscape:cy="788.09625"
     inkscape:window-width="1920"
     inkscape:window-height="1001"
     inkscape:window-x="-9"
     inkscape:window-y="-9"
     inkscape:window-maximized="1"
     inkscape:current-layer="layer6" />
  <defs
     id="defs2" />
  <g
     inkscape:groupmode="layer"
     id="layer6"
     inkscape:label="v"
     transform="translate(-327.50002,-239.70276)">
    <g
       aria-label="区"
       id="text2535-0-1"
       style="font-size:11.2889px;font-family:'Source Han Sans K VF';-inkscape-font-specification:'Source Han Sans K VF';display:inline;fill:#ff0000;stroke-width:3;stroke-dasharray:12, 3"
       transform="translate(-37.962983,128.3399)">
      <path
         style="fill:#000000"
         d="m 448.78409,160.65077 v 0.82409 h -9.13272 v -0.82409 z"
         id="path2858-3-8" />
      <path
         style="fill:#000000"
         d="m 449.14743,152.40988 v 9.70845 h -0.83538 v -8.89565 h -8.57957 v -0.8128 z"
         id="path2856-3-4" />
      <path
         style="fill:#000000"
         d="m 440.82468,155.04249 c 2.09973,1.3208 4.51556,3.31893 5.62187,4.73005 l 0.67734,-0.63218 c -1.16276,-1.4224 -3.62374,-3.35281 -5.7009,-4.63974 z"
         id="path2854-2-1" />
      <path
         style="fill:#000000"
         d="m 445.76922,153.66524 c -1.23049,2.39325 -3.20605,4.56072 -5.40739,5.88152 0.2032,0.15804 0.53058,0.48542 0.67734,0.65475 2.16747,-1.45625 4.19947,-3.68018 5.56543,-6.25405 z"
         id="path2735-5-0" />
    </g>
    <g
       aria-label="龜(J)"
       id="text3992-8-2-7-3"
       style="font-weight:bold;font-size:11.2889px;font-family:'Source Han Sans VF';-inkscape-font-specification:'Source Han Sans VF Bold';fill:#000000;stroke-width:3;stroke-dasharray:12, 3"
       transform="translate(328.89193,240.66396)">
      <g
         aria-label="(V)"
         id="text1902-7-4-3"
         style="font-weight:normal;font-family:'Source Han Sans TC';-inkscape-font-specification:'Source Han Sans TC'">
        <path
           d="m 18.092698,99.940682 0.632178,-0.282222 c -0.970845,-1.603024 -1.43369,-3.522137 -1.43369,-5.44125 0,-1.907824 0.462845,-3.815648 1.43369,-5.429961 l -0.632178,-0.293512 c -1.038579,1.693335 -1.659469,3.510848 -1.659469,5.723473 0,2.223913 0.62089,4.041426 1.659469,5.723472 z"
           id="path4100" />
        <path
           d="m 21.863183,98.228058 h 1.207912 l 2.630314,-8.274764 h -1.061157 l -1.33209,4.481693 c -0.282222,0.970846 -0.485422,1.761069 -0.801512,2.731914 h -0.04516 c -0.304801,-0.970845 -0.51929,-1.761068 -0.801512,-2.731914 L 20.316604,89.953294 H 19.22158 Z"
           id="path4102" />
        <path
           d="m 26.819019,99.940682 c 1.038579,-1.682046 1.659468,-3.499559 1.659468,-5.723472 0,-2.212625 -0.620889,-4.030138 -1.659468,-5.723473 l -0.643467,0.293512 c 0.970845,1.614313 1.456268,3.522137 1.456268,5.429961 0,1.919113 -0.485423,3.838226 -1.456268,5.44125 z"
           id="path4104" />
      </g>
      <g
         aria-label="龜"
         id="text1902-7-7-6-8"
         style="font-weight:normal;font-family:'Source Han Sans TC';-inkscape-font-specification:'Source Han Sans TC'">
        <path
           id="path6343"
           style="font-family:'Source Han Sans K VF';-inkscape-font-specification:'Source Han Sans K VF'"
           d="m 7.2518932,88.779497 c -0.5757327,0.790221 -1.6256743,1.727252 -3.0029174,2.415873 0.180622,0.112889 0.4179082,0.361464 0.5420857,0.542086 0.2481127,-0.138482 0.4843596,-0.282446 0.7110677,-0.430465 v 1.265556 H 8.109722 v 1.32085 H 7.2854829 V 93.01283 H 4.9378226 v 0.485759 h 1.6820679 v 0.451135 H 4.4298433 v 0.485759 h 2.1900472 v 0.462504 H 4.9378226 v 0.474389 H 7.2854829 V 94.49181 H 8.109722 v 2.31407 H 7.2854829 V 95.925314 H 4.9378226 v 0.47439 h 1.6820679 v 0.473873 H 4.4071056 v 0.485758 h 2.2127849 v 0.485242 H 4.9378226 v 0.474389 H 7.2854829 V 97.415662 H 8.109722 v 0.361219 c 0,1.10631 0.3954557,1.377177 1.7275431,1.377177 h 3.2395959 c 1.083732,0 1.320695,-0.315783 1.444873,-1.343071 -0.214489,-0.04515 -0.519076,-0.147043 -0.699699,-0.259932 -0.06773,0.790221 -0.180454,0.959631 -0.778764,0.959631 H 9.8372651 c -0.8579546,0 -0.9937377,-0.146704 -0.9937377,-0.722437 V 91.940234 H 6.2922619 v -0.668899 h 6.2430301 v 0.668899 H 9.7917899 v 6.220603 h 0.7451741 v -0.598414 h 3.250964 v -4.120678 h -3.250964 v -0.880567 h 2.799829 v -1.911304 h -3.066996 c 0.256555,-0.29131 0.509964,-0.626697 0.696081,-0.936894 l -0.49661,-0.33848 -0.113171,0.03359 H 7.7287634 c 0.1167938,-0.135281 0.2544985,-0.323738 0.3587378,-0.459093 z m -0.039894,1.182047 h 2.7281021 c -0.1586215,0.239839 -0.3498331,0.489074 -0.5400187,0.68833 H 6.4482214 c 0.2750543,-0.224651 0.5290137,-0.45504 0.7637778,-0.68833 z m 3.3249648,4.089983 h 2.517159 v 2.901115 h -2.517159 z m 1.65933,0.225826 c -0.12136,0.265474 -0.268783,0.526571 -0.435115,0.776696 -0.234107,-0.164301 -0.476177,-0.319468 -0.704867,-0.449585 l -0.349849,0.350367 c 0.246024,0.148463 0.506112,0.325518 0.754476,0.511596 -0.262991,0.330838 -0.557444,0.630927 -0.867648,0.876949 0.124178,0.07902 0.327672,0.259539 0.406694,0.34985 0.294669,-0.254025 0.5889,-0.565343 0.860929,-0.910022 0.249961,0.209352 0.467878,0.416047 0.617534,0.593762 l 0.361218,-0.406177 c -0.158657,-0.183446 -0.395696,-0.397518 -0.667143,-0.611332 0.206878,-0.303468 0.392094,-0.623682 0.543119,-0.946712 z"
           sodipodi:nodetypes="ccccccccccccccccccccccccccccccccccccccsssccsssccccccccccccccccccccccccccccccccccccccccccccc" />
      </g>
    </g>
    <g
       id="g3195-2-2"
       transform="translate(-38.154732,130.41365)">
      <path
         d="m 416.72033,173.81227 v 0.65476 h 4.58114 v -0.65476 z m 0.60975,1.59174 v 0.68862 h 3.05034 v -0.68862 z m 0.0747,-3.20605 v 0.68862 h 2.50821 v 3.61245 h 0.65005 v -4.30107 z"
         id="path2375-2-8-5-6-9"
         sodipodi:nodetypes="ccccccccccccccccc"
         style="font-size:11.2889px;font-family:'Source Han Sans K VF';-inkscape-font-specification:'Source Han Sans K VF';stroke-width:1.8191;stroke-dasharray:6.35288, 1.58822" />
      <path
         d="m 416.72033,168.81058 v 0.65476 h 4.58114 v -0.65476 z m 0.60975,1.59174 v 0.68862 h 3.05034 v -0.68862 z m 0.0747,-3.20605 v 0.68862 h 2.50821 v 3.61245 h 0.65005 v -4.30107 z"
         id="path2375-1-21-4-1-8-0"
         sodipodi:nodetypes="ccccccccccccccccc"
         style="font-size:11.2889px;font-family:'Source Han Sans K VF';-inkscape-font-specification:'Source Han Sans K VF';stroke-width:1.8191;stroke-dasharray:7.27643, 1.8191" />
      <path
         d="m 421.68536,169.87167 c 1.17404,1.15147 2.4384,2.76578 2.95769,3.83822 l 0.57573,-0.47413 c -0.53058,-1.06116 -1.8288,-2.61902 -3.02542,-3.77049 z"
         id="path3061-3-7"
         style="font-size:11.2889px;font-family:'Source Han Sans K VF';-inkscape-font-specification:'Source Han Sans K VF';stroke-width:3;stroke-dasharray:12, 3" />
      <path
         d="m 426.08238,167.25308 v 9.18916 H 425.34 v -8.38765 h -3.61782 v -0.80151 z"
         id="path3059-0-4"
         style="font-size:11.2889px;font-family:'Source Han Sans K VF';-inkscape-font-specification:'Source Han Sans K VF';stroke-width:2.88722;stroke-dasharray:12, 3" />
      <path
         d="m 425.6746,174.7602 v 0.79022 h -4.05698 v -0.79022 z"
         id="path3057-3-8"
         style="font-size:11.2889px;font-family:'Source Han Sans K VF';-inkscape-font-specification:'Source Han Sans K VF';stroke-width:2.88722;stroke-dasharray:12, 3" />
      <path
         d="m 424.01087,168.46056 c -0.41769,2.24649 -1.18533,4.28978 -2.39325,5.55414 0.18063,0.11288 0.508,0.36124 0.63218,0.48542 1.23049,-1.38854 2.05458,-3.49956 2.54,-5.92667 z"
         id="path3055-1-5"
         style="font-size:11.2889px;font-family:'Source Han Sans K VF';-inkscape-font-specification:'Source Han Sans K VF';stroke-width:3;stroke-dasharray:12, 3" />
    </g>
    <g
       aria-label="⿱⺈"
       id="text2192-7-0-7-5-3-5-8-0"
       style="font-weight:bold;font-size:11.2889px;font-family:'Sarasa Mono CL';-inkscape-font-specification:'Sarasa Mono CL Bold';stroke-width:3;stroke-dasharray:12, 3">
      <path
         d="m 334.315,313.30514 v 0.33867 h -0.67733 v 0.67733 H 333.299 v -1.016 z m 0.8128,0 h 1.01601 v 0.33867 h -1.01601 z m 1.82881,0 h 1.016 v 0.33867 h -1.016 z m 1.8288,0 h 1.016 v 0.33867 h -1.016 z m 1.8288,0 h 1.016 v 0.33867 h -1.016 z m 2.8448,0 v 1.016 h -0.33866 v -0.67733 h -0.67734 v -0.33867 z m -9.82134,2.8448 H 333.299 v -1.016 h 0.33867 z m 9.48268,-1.016 h 0.33866 v 1.016 h -0.33866 z m -9.48268,2.8448 H 333.299 v -1.016 h 0.33867 z m 9.48268,-1.016 h 0.33866 v 1.016 h -0.33866 z m -9.48268,2.84481 H 333.299 v -1.016 h 0.33867 z m 9.48268,-1.016 h 0.33866 v 1.016 h -0.33866 z m -9.48268,2.8448 H 333.299 v -1.016 h 0.33867 z m 9.48268,-1.016 h 0.33866 v 1.016 h -0.33866 z m -9.48268,2.50613 h 0.67733 v 0.33867 h -1.016 v -1.016 h 0.33867 z m 9.48268,-0.67733 h 0.33866 v 1.016 h -1.016 v -0.33867 h 0.67734 z m -7.99255,0.67733 h 1.01601 v 0.33867 h -1.01601 z m 1.82881,0 h 1.016 v 0.33867 h -1.016 z m 1.8288,0 h 1.016 v 0.33867 h -1.016 z m 1.8288,0 h 1.016 v 0.33867 h -1.016 z m -1.7272,-4.91067 v 0.33867 h -1.016 v -0.33867 z m 1.8288,0 v 0.33867 h -1.016 v -0.33867 z m 1.8288,0 v 0.33867 h -1.016 v -0.33867 z m -7.3152,0 v 0.33867 h -1.01601 v -0.33867 z m 1.8288,0 v 0.33867 h -1.016 v -0.33867 z"
         style="font-family:'思源黑体 VF';-inkscape-font-specification:'思源黑体 VF Bold'"
         id="path4095" />
      <path
         d="m 348.79866,313.16967 0.86925,0.16934 q -0.38382,0.77893 -0.97085,1.56915 -0.58702,0.79023 -1.39982,1.51272 -0.8128,0.72249 -1.86267,1.3208 -0.0452,-0.1016 -0.14675,-0.22578 -0.0903,-0.12418 -0.19192,-0.22578 -0.0903,-0.11289 -0.18062,-0.18062 1.00471,-0.51929 1.76107,-1.18534 0.76765,-0.66604 1.29822,-1.37724 0.53058,-0.7112 0.82409,-1.37725 z m -0.0451,1.15147 h 3.73662 v 0.7112 h -4.27849 z m 3.556,0 h 0.18062 l 0.13547,-0.0339 0.54187,0.34996 q -0.29351,0.59831 -0.72249,1.25307 -0.42898,0.64346 -0.90311,1.25307 -0.46285,0.59831 -0.89183,1.06115 -0.11289,-0.0903 -0.28222,-0.2032 -0.16933,-0.11289 -0.3048,-0.18062 0.41769,-0.44027 0.84667,-1.016 0.42898,-0.58702 0.80151,-1.19662 0.37253,-0.62089 0.59831,-1.10632 z"
         style="font-family:'思源黑体 VF';-inkscape-font-specification:'思源黑体 VF Bold'"
         id="path4097" />
    </g>
    <g
       aria-label="雪"
       id="text2373-2-8-6"
       style="font-size:11.2889px;font-family:'Source Han Sans K VF';-inkscape-font-specification:'Source Han Sans K VF';display:inline;stroke-width:3;stroke-dasharray:12, 3"
       transform="translate(-398.99296,245.03678)">
      <path
         d="m 789.19991,25.781272 v 0.654756 h 9.88908 v -0.654756 z m 1.10631,1.591735 v 0.688623 h 6.82979 v -0.688623 z m 0.2032,-3.206048 v 0.688623 h 6.26534 v 3.612448 h 0.85796 v -4.301071 z"
         id="path2375-8-6-1"
         sodipodi:nodetypes="ccccccccccccccccc" />
      <path
         d="m 789.19991,20.779583 v 0.654756 h 9.88908 v -0.654756 z m 1.10631,1.591735 v 0.688623 h 6.82979 v -0.688623 z m 0.2032,-3.206048 v 0.688623 h 6.26534 v 3.612448 h 0.85796 V 19.16527 Z"
         id="path2375-1-2-5-5"
         sodipodi:nodetypes="ccccccccccccccccc"
         style="font-size:11.2889px;font-family:'Source Han Sans K VF';-inkscape-font-specification:'Source Han Sans K VF';stroke-width:3;stroke-dasharray:12, 3" />
    </g>
    <g
       aria-label="雪"
       id="text2373-2-2-4"
       style="font-size:11.2889px;font-family:'Source Han Sans K VF';-inkscape-font-specification:'Source Han Sans K VF';display:inline;stroke-width:3;stroke-dasharray:12, 3"
       transform="translate(-398.99296,261.43705)">
      <path
         d="m 789.19991,25.781272 v 0.654756 h 9.88908 v -0.654756 z m 1.10631,1.591735 v 0.688623 h 6.82979 v -0.688623 z m 0.2032,-3.206048 v 0.688623 h 6.26534 v 3.612448 h 0.85796 v -4.301071 z"
         id="path2375-8-8-9"
         sodipodi:nodetypes="ccccccccccccccccc" />
      <path
         d="m 789.19991,20.779583 v 0.654756 h 9.88908 v -0.654756 z m 1.10631,1.591735 v 0.688623 h 6.82979 v -0.688623 z m 0.2032,-3.206048 v 0.688623 h 6.26534 v 3.612448 h 0.85796 V 19.16527 Z"
         id="path2375-1-2-7-1"
         sodipodi:nodetypes="ccccccccccccccccc"
         style="font-size:11.2889px;font-family:'Source Han Sans K VF';-inkscape-font-specification:'Source Han Sans K VF';stroke-width:3;stroke-dasharray:12, 3" />
    </g>
    <path
       id="path4451-2"
       style="fill:#000000;fill-opacity:1;fill-rule:nonzero;stroke:none;stroke-width:0.0343527"
       d="m 357.4471,313.7473 v 2.40853 h 2.44805 v 1.49681 h -0.54763 v -1.02412 h -2.37293 v 0.54018 h 1.77165 v 0.56277 h -2.28699 v 0.58525 h 2.28699 v 0.59643 h -1.79311 v 0.51777 h 2.39439 v -1.03546 h 0.54763 v 2.64483 h -0.56909 v -1.08045 h -2.35147 v 0.52902 h 1.75019 v 0.63026 h -2.27627 v 0.58517 h 2.27627 v 0.69783 h -1.77165 v 0.52893 h 2.37293 v -1.14793 h 0.56909 v 0.33762 c 0,0.43892 0.0537,0.76527 0.15032,1.01287 0.0966,0.23635 0.25766,0.39398 0.50461,0.49527 0.24696,0.10129 0.57983,0.14632 1.00932,0.14632 h 0.3973 0.70868 0.80526 0.7194 0.38649 c 0.3758,0 0.655,-0.0563 0.84827,-0.1689 0.19327,-0.11254 0.33287,-0.30381 0.41876,-0.58517 0.0859,-0.28137 0.1503,-0.65275 0.19325,-1.12545 -0.10737,-0.0337 -0.22546,-0.0788 -0.34357,-0.14631 -0.12884,-0.0562 -0.2362,-0.12388 -0.3221,-0.18014 -0.0215,0.39391 -0.0537,0.6978 -0.0967,0.90038 -0.0537,0.21384 -0.12888,0.34891 -0.23625,0.4277 -0.11811,0.0788 -0.27915,0.11257 -0.48316,0.11257 h -0.46169 -0.68721 -0.76233 -0.66567 -0.40804 c -0.26843,0 -0.47242,-0.0226 -0.61201,-0.0676 -0.13958,-0.045 -0.23623,-0.135 -0.27918,-0.2588 -0.0537,-0.1238 -0.0751,-0.31517 -0.0751,-0.55152 v -0.34887 -4.13047 -2.17214 h -2.42666 v -1.05786 h 5.92695 v 1.06919 h -2.61983 v 2.16081 4.13047 0.97913 h 0.7086 v -0.664 h 3.12453 v -5.14335 h -3.12453 v -0.78781 h 2.64137 v -2.41978 z m 4.74577,3.90534 h 2.45886 v 3.73652 h -2.45886 z m 1.58914,0.27013 c -0.0966,0.32639 -0.22552,0.67532 -0.38658,1.02421 -0.24695,-0.25886 -0.49384,-0.48402 -0.71932,-0.66409 l -0.32219,0.4277 c 0.12885,0.10129 0.25772,0.22507 0.39731,0.34887 0.13958,0.13506 0.26846,0.27015 0.3973,0.4052 -0.11811,0.21384 -0.23626,0.42768 -0.36511,0.61901 -0.13958,0.19133 -0.27918,0.37135 -0.41876,0.54018 0.0644,0.0562 0.13962,0.12386 0.22552,0.20264 l 0.19324,0.20255 c 0.26843,-0.32637 0.51539,-0.69775 0.74087,-1.13668 0.11811,0.1463 0.23628,0.2813 0.33292,0.42761 0.0966,0.1463 0.18247,0.29264 0.25763,0.41644 l 0.35438,-0.49518 c -0.1718,-0.28136 -0.39732,-0.57402 -0.67648,-0.87789 0.0966,-0.20259 0.19328,-0.41641 0.27918,-0.63025 0.0752,-0.21384 0.15028,-0.43892 0.2147,-0.65276 z"
       sodipodi:nodetypes="cccccccccccccccccccccccccccccccccccscssccccssscccccsccccsscsccccccccccccccccccccccccccccccccccccscccccc" />
    <path
       id="path4451-8-3"
       style="fill:#000000;fill-opacity:1;fill-rule:nonzero;stroke:none;stroke-width:0.0343527"
       d="m 368.50564,296.94997 v 4.27262 h 2.44805 v 4.10082 c 0,0.43892 0.0537,0.76527 0.15032,1.01287 0.0966,0.23635 0.25766,0.39398 0.50462,0.49527 0.24695,0.10129 0.57983,0.14632 1.00931,0.14632 h 0.39731 0.70867 0.80526 0.66649 0.38649 c 0.3758,0 0.65499,-0.0563 0.84826,-0.1689 0.19327,-0.11254 0.38579,-0.30381 0.47169,-0.58517 0.0859,-0.28137 0.15029,-1.17296 0.19324,-1.64566 -0.10737,-0.0337 -0.22545,-0.0788 -0.34356,-0.14631 -0.12885,-0.0562 -0.23621,-0.12388 -0.32211,-0.18014 -0.0215,0.39391 -0.0802,1.21801 -0.12311,1.42059 -0.0537,0.21384 -0.12888,0.34891 -0.23626,0.4277 -0.1181,0.0788 -0.3056,0.11257 -0.50961,0.11257 h -0.40877 -0.68722 -0.76233 -0.66567 -0.40803 c -0.26843,0 -0.47243,-0.0226 -0.61201,-0.0676 -0.13959,-0.045 -0.23623,-0.135 -0.27918,-0.2588 -0.0537,-0.1238 -0.0751,-0.31517 -0.0751,-0.55152 v -0.34887 -4.13047 -0.38743 h -2.42667 v -2.73674 h 6.67937 v 2.74807 h -2.61983 v 0.3761 3.85334 h 0.7086 v -3.47481 h 2.64137 v -4.28387 z"
       sodipodi:nodetypes="cccccssccccssscccccsccccsscsccccccccccccccc" />
    <path
       id="path4451-8-9-3"
       style="fill:#000000;fill-opacity:1;fill-rule:nonzero;stroke:none;stroke-width:0.0343527"
       d="m 368.50564,280.43415 v 4.27262 h 2.44805 v 4.10082 c 0,0.43892 0.0537,0.76527 0.15032,1.01287 0.0966,0.23635 0.25766,0.39398 0.50462,0.49527 0.24695,0.10129 0.57983,0.14632 1.00931,0.14632 h 0.39731 0.70867 0.80526 0.66649 0.38649 c 0.3758,0 0.65499,-0.0563 0.84826,-0.1689 0.19327,-0.11254 0.38579,-0.30381 0.47169,-0.58517 0.0859,-0.28137 0.15029,-1.17296 0.19324,-1.64566 -0.10737,-0.0337 -0.22545,-0.0788 -0.34356,-0.14631 -0.12885,-0.0562 -0.23621,-0.12388 -0.32211,-0.18014 -0.0215,0.39391 -0.0802,1.21801 -0.12311,1.42059 -0.0537,0.21384 -0.12888,0.34891 -0.23626,0.4277 -0.1181,0.0788 -0.3056,0.11257 -0.50961,0.11257 h -0.40877 -0.68722 -0.76233 -0.66567 -0.40803 c -0.26843,0 -0.47243,-0.0226 -0.61201,-0.0676 -0.13959,-0.045 -0.23623,-0.135 -0.27918,-0.2588 -0.0537,-0.1238 -0.0751,-0.31517 -0.0751,-0.55152 v -0.34887 -4.13047 -0.38743 h -2.42667 v -2.73674 h 6.67937 v 2.74807 h -2.61983 v 0.3761 3.85334 h 0.7086 V 284.718 h 2.64137 v -4.28387 z"
       sodipodi:nodetypes="cccccssccccssscccccsccccsscsccccccccccccccc" />
    <path
       id="path4451-8-1-3"
       style="fill:#000000;fill-opacity:1;fill-rule:nonzero;stroke:none;stroke-width:0.0343527"
       d="m 368.50564,263.72954 v 4.27262 h 2.44805 v 4.10082 c 0,0.43892 0.0537,0.76527 0.15032,1.01287 0.0966,0.23635 0.25766,0.39398 0.50462,0.49527 0.24695,0.10129 0.57983,0.14632 1.00931,0.14632 h 0.39731 0.70867 0.80526 0.66649 0.38649 c 0.3758,0 0.65499,-0.0563 0.84826,-0.1689 0.19327,-0.11254 0.38579,-0.30381 0.47169,-0.58517 0.0859,-0.28137 0.15029,-1.17296 0.19324,-1.64566 -0.10737,-0.0337 -0.22545,-0.0788 -0.34356,-0.14631 -0.12885,-0.0562 -0.23621,-0.12388 -0.32211,-0.18014 -0.0215,0.39391 -0.0802,1.21801 -0.12311,1.42059 -0.0537,0.21384 -0.12888,0.34891 -0.23626,0.4277 -0.1181,0.0788 -0.3056,0.11257 -0.50961,0.11257 h -0.40877 -0.68722 -0.76233 -0.66567 -0.40803 c -0.26843,0 -0.47243,-0.0226 -0.61201,-0.0676 -0.13959,-0.045 -0.23623,-0.135 -0.27918,-0.2588 -0.0537,-0.1238 -0.0751,-0.31517 -0.0751,-0.55152 v -0.34887 -4.13047 -0.38743 h -2.42667 v -2.73674 h 6.67937 v 2.74807 h -2.61983 v 0.3761 3.85334 h 0.7086 v -3.47481 h 2.64137 v -4.28387 z"
       sodipodi:nodetypes="cccccssccccssscccccsccccsscsccccccccccccccc" />
    <g
       aria-label="⿱⺈⿻#(-丨一-𠃍丨b一b乚)⿰⿱⺕⺕⿼コ乂d"
       id="text2192-7-0-7-8"
       style="font-weight:bold;font-size:11.2889px;font-family:'Sarasa Mono CL';-inkscape-font-specification:'Sarasa Mono CL Bold';stroke-width:3;stroke-dasharray:12, 3">
      <path
         d="m 334.315,246.65499 v 0.33867 h -0.67733 v 0.67733 H 333.299 v -1.016 z m 0.8128,0 h 1.01601 v 0.33867 h -1.01601 z m 1.82881,0 h 1.016 v 0.33867 h -1.016 z m 1.8288,0 h 1.016 v 0.33867 h -1.016 z m 1.8288,0 h 1.016 v 0.33867 h -1.016 z m 2.8448,0 v 1.016 h -0.33866 v -0.67733 h -0.67734 v -0.33867 z m -9.82134,2.84481 H 333.299 v -1.01601 h 0.33867 z m 9.48268,-1.01601 h 0.33866 v 1.01601 h -0.33866 z m -9.48268,2.84481 H 333.299 v -1.016 h 0.33867 z m 9.48268,-1.016 h 0.33866 v 1.016 h -0.33866 z m -9.48268,2.8448 H 333.299 v -1.016 h 0.33867 z m 9.48268,-1.016 h 0.33866 v 1.016 h -0.33866 z m -9.48268,2.8448 H 333.299 v -1.016 h 0.33867 z m 9.48268,-1.016 h 0.33866 v 1.016 h -0.33866 z m -9.48268,2.50614 h 0.67733 v 0.33866 h -1.016 v -1.016 h 0.33867 z m 9.48268,-0.67734 h 0.33866 v 1.016 h -1.016 v -0.33866 h 0.67734 z m -7.99255,0.67734 h 1.01601 v 0.33866 h -1.01601 z m 1.82881,0 h 1.016 v 0.33866 h -1.016 z m 1.8288,0 h 1.016 v 0.33866 h -1.016 z m 1.8288,0 h 1.016 v 0.33866 h -1.016 z m -1.7272,-4.91068 v 0.33867 h -1.016 v -0.33867 z m 1.8288,0 v 0.33867 h -1.016 v -0.33867 z m 1.8288,0 v 0.33867 h -1.016 v -0.33867 z m -7.3152,0 v 0.33867 h -1.01601 v -0.33867 z m 1.8288,0 v 0.33867 h -1.016 v -0.33867 z"
         style="font-family:'思源黑体 VF';-inkscape-font-specification:'思源黑体 VF Bold'"
         id="path4046" />
      <path
         d="m 348.79866,246.51953 0.86925,0.16933 q -0.38382,0.77893 -0.97085,1.56916 -0.58702,0.79022 -1.39982,1.51271 -0.8128,0.72249 -1.86267,1.3208 -0.0452,-0.1016 -0.14675,-0.22578 -0.0903,-0.12418 -0.19192,-0.22578 -0.0903,-0.11288 -0.18062,-0.18062 1.00471,-0.51929 1.76107,-1.18533 0.76765,-0.66605 1.29822,-1.37725 0.53058,-0.7112 0.82409,-1.37724 z m -0.0451,1.15146 h 3.73662 v 0.7112 h -4.27849 z m 3.556,0 h 0.18062 l 0.13547,-0.0339 0.54187,0.34995 q -0.29351,0.59831 -0.72249,1.25307 -0.42898,0.64347 -0.90311,1.25307 -0.46285,0.59831 -0.89183,1.06116 -0.11289,-0.0903 -0.28222,-0.2032 -0.16933,-0.11289 -0.3048,-0.18063 0.41769,-0.44026 0.84667,-1.016 0.42898,-0.58702 0.80151,-1.19662 0.37253,-0.62089 0.59831,-1.10631 z"
         style="font-family:'思源黑体 VF';-inkscape-font-specification:'思源黑体 VF Bold'"
         id="path4048" />
      <path
         d="m 355.8768,246.65499 h 1.016 v 0.33867 h -0.67733 v 0.67733 h -0.33867 z m 1.82881,0 h 1.016 v 0.33867 h -1.016 z m 1.8288,0 h 1.016 v 0.33867 h -1.016 z m 1.8288,0 h 1.016 v 1.016 h -0.33867 v -0.67733 h -0.67733 z m -5.14774,2.84481 h -0.33867 v -1.01601 h 0.33867 z m 5.82507,-1.01601 h 0.33867 v 1.01601 h -0.33867 z m -5.82507,2.84481 h -0.33867 v -1.016 h 0.33867 z m 4.33494,-1.016 v 0.33866 h -0.67734 v 0.67734 h -0.33866 v -1.016 z m 1.8288,0 v 1.016 h -0.33867 v -0.67734 h -0.67733 v -0.33866 z m 0.8128,0 h 1.016 v 0.33866 h -1.016 z m 2.8448,0 v 1.016 h -0.33866 v -0.67734 h -0.67734 v -0.33866 z m -9.82134,2.50613 h 0.67733 v 0.33867 h -1.016 v -1.016 h 0.33867 z m 3.6576,0 h 0.67734 v 0.33867 h -1.016 v -1.016 h 0.33866 z m 2.16747,-0.67733 h 0.33867 v 1.016 h -1.016 v -0.33867 h 0.67733 z m 3.65761,0 h 0.33866 v 1.016 h -0.33866 z m -7.99254,0.67733 h 1.016 v 0.33867 h -1.016 z m 2.16746,2.16747 h -0.33866 v -1.016 h 0.33866 z m 5.82508,-1.016 h 0.33866 v 1.016 h -0.33866 z m -5.82508,2.50614 h 0.67734 v 0.33866 h -1.016 v -1.016 h 0.33866 z m 5.82508,-0.67734 h 0.33866 v 1.016 h -1.016 v -0.33866 h 0.67734 z m -4.33494,0.67734 h 1.016 v 0.33866 h -1.016 z m 1.8288,0 h 1.016 v 0.33866 h -1.016 z"
         style="font-family:'思源黑体 VF';-inkscape-font-specification:'思源黑体 VF Bold'"
         id="path4050" />
      <path
         d="m 367.74144,256.02478 0.31609,-2.60774 h -1.00472 v -0.65475 h 1.08374 l 0.24835,-1.91911 h -1.08373 v -0.65476 h 1.15147 l 0.29351,-2.3368 h 0.6096 l -0.29351,2.3368 h 1.71591 l 0.31609,-2.3368 h 0.6096 l -0.29351,2.3368 h 1.016 v 0.65476 h -1.09502 l -0.23707,1.91911 h 1.08373 v 0.65475 h -1.17404 l -0.3048,2.60774 h -0.6096 l 0.3048,-2.60774 h -1.71592 l -0.31608,2.60774 z m 1.00471,-3.26249 h 1.7272 l 0.23707,-1.91911 h -1.71592 z"
         style="font-family:'思源黑体 VF';-inkscape-font-specification:'思源黑体 VF Bold'"
         id="path4052" />
      <path
         d="m 375.5082,258.22612 q -0.76765,-1.25307 -1.2192,-2.64161 -0.44027,-1.39982 -0.44027,-3.05929 0,-1.65947 0.44027,-3.048 0.45155,-1.39983 1.2192,-2.66418 l 0.56444,0.27093 q -0.73377,1.20791 -1.09502,2.60774 -0.36124,1.38853 -0.36124,2.83351 0,1.45627 0.36124,2.85609 0.36125,1.38854 1.09502,2.58516 z"
         style="font-family:'思源黑体 VF';-inkscape-font-specification:'思源黑体 VF Bold'"
         id="path4054" />
      <path
         d="m 377.05477,253.23642 v -0.72249 h 2.85609 v 0.72249 z"
         style="font-family:'思源黑体 VF';-inkscape-font-specification:'思源黑体 VF Bold'"
         id="path4056" />
      <path
         d="m 385.63434,246.57597 h 0.80151 v 10.32934 h -0.80151 z"
         style="font-family:'思源黑体 VF';-inkscape-font-specification:'思源黑体 VF Bold'"
         id="path4058" />
      <path
         d="m 392.20448,251.20442 h 10.31806 v 0.82409 h -10.31806 z"
         style="font-family:'思源黑体 VF';-inkscape-font-specification:'思源黑体 VF Bold'"
         id="path4060" />
      <path
         d="m 403.50467,253.23642 v -0.72249 h 2.85609 v 0.72249 z"
         style="font-family:'思源黑体 VF';-inkscape-font-specification:'思源黑体 VF Bold'"
         id="path4062" />
      <path
         d="m 407.70414,247.46779 h 9.29077 v 9.18917 h -0.8128 v -8.38765 h -8.47797 z"
         style="font-family:'思源黑体 VF';-inkscape-font-specification:'思源黑体 VF Bold'"
         id="path4064" />
      <path
         d="m 423.37314,246.57597 h 0.80151 v 10.32934 h -0.80151 z"
         style="font-family:'思源黑体 VF';-inkscape-font-specification:'思源黑体 VF Bold'"
         id="path4066" />
      <path
         d="m 433.11546,256.17154 q -0.41769,0 -0.88053,-0.2032 -0.46285,-0.2032 -0.86925,-0.57574 h -0.0451 l -0.0903,0.63218 h -0.73378 v -8.98596 h 0.92569 v 2.49484 l -0.0452,1.1176 q 0.42898,-0.37253 0.93698,-0.62089 0.508,-0.25964 1.02729,-0.25964 0.79022,0 1.33209,0.39511 0.54187,0.38382 0.8128,1.08374 0.28222,0.68862 0.28222,1.6256 0,1.03858 -0.37253,1.78364 -0.37253,0.74507 -0.98214,1.12889 -0.59831,0.38383 -1.29822,0.38383 z m -0.13547,-0.77894 q 0.53058,0 0.94827,-0.3048 0.41769,-0.3048 0.65476,-0.86924 0.23707,-0.56445 0.23707,-1.32081 0,-0.69991 -0.16934,-1.23049 -0.16933,-0.53057 -0.54187,-0.82408 -0.36124,-0.29352 -0.98213,-0.29352 -0.39511,0 -0.82409,0.22578 -0.41769,0.21449 -0.88053,0.64347 v 3.30765 q 0.41769,0.37253 0.83537,0.51929 0.41769,0.14675 0.72249,0.14675 z"
         style="font-family:'思源黑体 VF';-inkscape-font-specification:'思源黑体 VF Bold'"
         id="path4068" />
      <path
         d="m 436.87467,251.20442 h 10.31805 v 0.82409 h -10.31805 z"
         style="font-family:'思源黑体 VF';-inkscape-font-specification:'思源黑体 VF Bold'"
         id="path4070" />
      <path
         d="m 451.33574,256.17154 q -0.41768,0 -0.88053,-0.2032 -0.46284,-0.2032 -0.86924,-0.57574 h -0.0452 l -0.0903,0.63218 h -0.73378 v -8.98596 h 0.92569 v 2.49484 l -0.0452,1.1176 q 0.42898,-0.37253 0.93698,-0.62089 0.508,-0.25964 1.02729,-0.25964 0.79023,0 1.33209,0.39511 0.54187,0.38382 0.8128,1.08374 0.28223,0.68862 0.28223,1.6256 0,1.03858 -0.37254,1.78364 -0.37253,0.74507 -0.98213,1.12889 -0.59831,0.38383 -1.29823,0.38383 z m -0.13546,-0.77894 q 0.53058,0 0.94827,-0.3048 0.41769,-0.3048 0.65475,-0.86924 0.23707,-0.56445 0.23707,-1.32081 0,-0.69991 -0.16933,-1.23049 -0.16934,-0.53057 -0.54187,-0.82408 -0.36125,-0.29352 -0.98214,-0.29352 -0.39511,0 -0.82409,0.22578 -0.41769,0.21449 -0.88053,0.64347 v 3.30765 q 0.41769,0.37253 0.83538,0.51929 0.41769,0.14675 0.72249,0.14675 z"
         style="font-family:'思源黑体 VF';-inkscape-font-specification:'思源黑体 VF Bold'"
         id="path4072" />
      <path
         d="m 456.74313,247.02753 h 0.76765 v 7.59743 q 0,0.38382 0.0903,0.59831 0.1016,0.2032 0.37253,0.28222 0.27094,0.079 0.79023,0.079 0.15804,0 0.51928,0 0.36125,0 0.83538,0 0.47414,0 0.94827,0 0.48542,0 0.86925,0 0.39511,0 0.58702,0 0.51929,0 0.77893,-0.18062 0.27094,-0.18062 0.38383,-0.66604 0.11288,-0.48543 0.18062,-1.38854 0.1016,0.0677 0.23707,0.13547 0.13546,0.0677 0.27093,0.12418 0.13547,0.0452 0.23707,0.0677 -0.079,0.99342 -0.25965,1.58045 -0.18062,0.57573 -0.59831,0.8128 -0.41769,0.24835 -1.23049,0.24835 -0.1016,0 -0.38382,0 -0.27094,0 -0.66605,0 -0.39511,0 -0.82409,0 -0.42898,0 -0.82409,0 -0.38382,0 -0.66604,0 -0.27094,0 -0.36125,0 -0.79022,0 -1.24178,-0.14675 -0.45155,-0.13547 -0.63218,-0.508 -0.18062,-0.37254 -0.18062,-1.06116 z"
         style="font-family:'思源黑体 VF';-inkscape-font-specification:'思源黑体 VF Bold'"
         id="path4074" />
      <path
         d="m 466.90314,258.22612 -0.56444,-0.25965 q 0.72249,-1.19662 1.08373,-2.58516 0.37254,-1.39982 0.37254,-2.85609 0,-1.44498 -0.37254,-2.83351 -0.36124,-1.39983 -1.08373,-2.60774 l 0.56444,-0.27093 q 0.77894,1.26435 1.21921,2.66418 0.44026,1.38853 0.44026,3.048 0,1.65947 -0.44026,3.05929 -0.44027,1.38854 -1.21921,2.64161 z"
         style="font-family:'思源黑体 VF';-inkscape-font-specification:'思源黑体 VF Bold'"
         id="path4076" />
      <path
         d="m 471.19292,246.65499 v 0.33867 h -0.67734 v 0.67733 h -0.33866 v -1.016 z m 0.8128,0 h 1.016 v 0.33867 h -1.016 z m 1.8288,0 h 1.016 v 0.33867 h -1.016 z m 1.8288,0 h 1.016 v 0.33867 h -1.016 z m 1.8288,0 h 1.01601 v 0.33867 h -1.01601 z m 2.84481,0 v 1.016 h -0.33867 v -0.67733 h -0.67733 v -0.33867 z m -9.82135,2.84481 h -0.33866 v -1.01601 h 0.33866 z m 9.48268,-1.01601 h 0.33867 v 1.01601 h -0.33867 z m -9.48268,2.84481 h -0.33866 v -1.016 h 0.33866 z m 9.48268,-1.016 h 0.33867 v 1.016 h -0.33867 z m -9.48268,2.8448 h -0.33866 v -1.016 h 0.33866 z m 9.48268,-1.016 h 0.33867 v 1.016 h -0.33867 z m -9.48268,2.8448 h -0.33866 v -1.016 h 0.33866 z m 9.48268,-1.016 h 0.33867 v 1.016 h -0.33867 z m -9.48268,2.50614 h 0.67734 v 0.33866 h -1.016 v -1.016 h 0.33866 z m 9.48268,-0.67734 h 0.33867 v 1.016 h -1.016 v -0.33866 h 0.67733 z m -7.99254,0.67734 h 1.016 v 0.33866 h -1.016 z m 1.8288,0 h 1.016 v 0.33866 h -1.016 z m 1.8288,0 h 1.016 v 0.33866 h -1.016 z m 1.8288,0 h 1.01601 v 0.33866 h -1.01601 z m -2.06586,-4.23334 h -0.33867 v -1.016 h 0.33867 z m 0,1.8288 h -0.33867 v -1.016 h 0.33867 z m 0,1.8288 h -0.33867 v -1.016 h 0.33867 z m 0,-7.31521 h -0.33867 v -1.016 h 0.33867 z m 0,1.82881 h -0.33867 v -1.016 h 0.33867 z"
         style="font-family:'思源黑体 VF';-inkscape-font-specification:'思源黑体 VF Bold'"
         id="path4078" />
      <path
         d="m 482.48183,246.65499 v 0.33867 h -0.67734 v 0.67733 h -0.33866 v -1.016 z m 0.8128,0 h 1.016 v 0.33867 h -1.016 z m 1.8288,0 h 1.016 v 0.33867 h -1.016 z m 1.8288,0 h 1.016 v 0.33867 h -1.016 z m 1.8288,0 h 1.01601 v 0.33867 h -1.01601 z m 2.84481,0 v 1.016 h -0.33867 v -0.67733 h -0.67733 v -0.33867 z m -9.82135,2.84481 h -0.33866 v -1.01601 h 0.33866 z m 9.48268,-1.01601 h 0.33867 v 1.01601 h -0.33867 z m -9.48268,2.84481 h -0.33866 v -1.016 h 0.33866 z m 9.48268,-1.016 h 0.33867 v 1.016 h -0.33867 z m -9.48268,2.8448 h -0.33866 v -1.016 h 0.33866 z m 9.48268,-1.016 h 0.33867 v 1.016 h -0.33867 z m -9.48268,2.8448 h -0.33866 v -1.016 h 0.33866 z m 9.48268,-1.016 h 0.33867 v 1.016 h -0.33867 z m -9.48268,2.50614 h 0.67734 v 0.33866 h -1.016 v -1.016 h 0.33866 z m 9.48268,-0.67734 h 0.33867 v 1.016 h -1.016 v -0.33866 h 0.67733 z m -7.99254,0.67734 h 1.016 v 0.33866 h -1.016 z m 1.8288,0 h 1.016 v 0.33866 h -1.016 z m 1.8288,0 h 1.016 v 0.33866 h -1.016 z m 1.8288,0 h 1.01601 v 0.33866 h -1.01601 z m -1.7272,-4.91068 v 0.33867 h -1.016 v -0.33867 z m 1.82881,0 v 0.33867 h -1.01601 v -0.33867 z m 1.8288,0 v 0.33867 h -1.016 v -0.33867 z m -7.31521,0 v 0.33867 h -1.016 v -0.33867 z m 1.8288,0 v 0.33867 h -1.016 v -0.33867 z"
         style="font-family:'思源黑体 VF';-inkscape-font-specification:'思源黑体 VF Bold'"
         id="path4080" />
      <path
         d="m 493.57881,255.55065 v 0.82409 h 7.05556 v -0.82409 z m -0.88053,-4.28979 v 0.82409 h 10.2729 v -0.82409 z m 1.1176,-4.00756 v 0.82409 h 6.32178 v 8.8505 h 0.89183 v -9.67459 z"
         style="font-weight:normal;font-family:'Source Han Sans K VF';-inkscape-font-specification:'Source Han Sans K VF'"
         id="path4082" />
      <path
         d="m 504.86771,255.55065 v 0.82409 h 7.05556 v -0.82409 z m -0.88054,-4.28979 v 0.82409 h 10.2729 v -0.82409 z m 1.1176,-4.00756 v 0.82409 h 6.32179 v 8.8505 h 0.89182 v -9.67459 z"
         style="font-weight:normal;font-family:'Source Han Sans K VF';-inkscape-font-specification:'Source Han Sans K VF'"
         id="path4084" />
      <path
         d="m 515.56734,247.19981 h 1.50482 v 0.42995 h -1.50482 z m 2.05604,0 h 1.49931 v 0.42995 h -1.49931 z m 2.04501,0 h 1.49931 v 0.42995 h -1.49931 z m 2.0395,0 h 1.50482 v 0.42995 h -1.50482 z m 2.04501,0 h 1.50482 v 0.42995 h -1.50482 z m -8.17453,0.98117 h 0.42995 v 1.51584 h -0.42995 z m 9.26043,0 h 0.42994 v 1.51584 h -0.42994 z m -9.26043,2.05603 h 0.42995 v 1.51585 h -0.42995 z m 9.26043,0 h 0.42994 v 1.51585 h -0.42994 z m -9.26043,2.05604 h 0.42995 v 1.51033 h -0.42995 z m 9.26043,0 h 0.42994 v 1.51033 h -0.42994 z m -9.26043,2.06706 h 0.42995 v 1.49931 h -0.42995 z m 9.26043,0 h 0.42994 v 1.49931 h -0.42994 z m -9.27146,2.05052 h 1.50482 v 0.42995 h -1.50482 z m 2.05604,0 h 1.49931 v 0.42995 h -1.49931 z m 2.04501,0 h 1.49931 v 0.42995 h -1.49931 z m 2.0395,0 h 1.50482 v 0.42995 h -1.50482 z m 2.04501,0 h 1.50482 v 0.42995 h -1.50482 z m -0.89848,-5.55074 h -0.42995 v -1.2678 h 0.42995 z m 0,3.59393 h -0.42995 v -1.2678 h 0.42995 z m 0,-1.79697 h -0.42995 v -1.26779 h 0.42995 z m -4.8948,-3.06476 v 0.42995 h -1.40009 v -0.42995 z m 1.95682,0 v 0.42995 h -1.4056 v -0.42995 z m -1.95682,4.43178 v 0.42995 h -1.40009 v -0.42995 z m 1.95682,0 v 0.42995 h -1.4056 v -0.42995 z m 1.9513,-4.43178 v 0.42995 h -1.40009 v -0.42995 z m 0,4.43178 v 0.42995 h -1.40009 v -0.42995 z"
         style="font-family:'思源黑体 VF';-inkscape-font-specification:'思源黑体 VF Bold'"
         id="path4086" />
      <path
         d="m 528.03253,248.33704 q 0.27094,0.0226 0.59832,0.0452 0.33866,0.0113 0.59831,0.0113 h 5.54285 q 0.2032,0 0.41769,0 0.21449,0 0.39511,-0.0113 -0.0113,0.18063 -0.0226,0.41769 -0.0113,0.22578 -0.0113,0.41769 v 5.83636 q 0,0.30481 0.0113,0.62089 0.0226,0.31609 0.0339,0.41769 h -0.90311 q 0,-0.1016 0.0113,-0.37253 0.0113,-0.28222 0.0113,-0.58702 V 249.195 h -5.47511 q -0.3048,0 -0.66605,0.0113 -0.36124,0.0113 -0.54187,0.0226 z m -0.14675,6.24276 q 0.2032,0.0226 0.54187,0.0452 0.33866,0.0226 0.67733,0.0226 h 6.05085 v 0.81281 h -6.02827 q -0.33867,0 -0.68863,0.0113 -0.33866,0.0113 -0.55315,0.0339 z"
         style="font-family:'思源黑体 VF';-inkscape-font-specification:'思源黑体 VF Bold'"
         id="path4088" />
      <path
         d="m 545.86899,247.32104 0.84667,0.2032 q -0.508,1.90782 -1.23049,3.39796 -0.7112,1.49013 -1.7272,2.63031 -1.00472,1.14018 -2.34809,1.97556 -1.34338,0.82409 -3.09316,1.41111 -0.0565,-0.1016 -0.15805,-0.23707 -0.1016,-0.13546 -0.21449,-0.27093 -0.1016,-0.13547 -0.19191,-0.21449 1.73849,-0.51929 3.048,-1.29822 1.32081,-0.77894 2.29165,-1.85138 0.97085,-1.08374 1.64818,-2.50614 0.67733,-1.4224 1.12889,-3.23991 z m -5.74605,0.0451 q 0.56445,2.29165 1.58045,4.08659 1.02729,1.78364 2.65289,2.99155 1.6256,1.19663 3.9624,1.76107 -0.079,0.079 -0.19191,0.2032 -0.1016,0.13547 -0.19191,0.27094 -0.0903,0.14675 -0.14676,0.24835 -1.81751,-0.46284 -3.19475,-1.29822 -1.37725,-0.84667 -2.38196,-2.032 -0.99343,-1.18534 -1.69334,-2.69805 -0.69991,-1.524 -1.17404,-3.36409 z"
         style="font-family:'思源黑体 VF';-inkscape-font-specification:'思源黑体 VF Bold'"
         id="path4090" />
      <path
         d="m 551.76181,256.17154 q -0.76765,0 -1.33209,-0.37254 -0.56445,-0.37253 -0.88054,-1.08373 -0.3048,-0.7112 -0.3048,-1.7272 0,-0.99343 0.37254,-1.70463 0.37253,-0.72249 0.97084,-1.1176 0.6096,-0.39511 1.3208,-0.39511 0.53058,0 0.92569,0.19191 0.39511,0.19191 0.8128,0.53058 l -0.0452,-1.07245 v -2.38195 h 0.9144 v 8.98596 h -0.75636 l -0.079,-0.73378 h -0.0339 q -0.36124,0.36125 -0.84666,0.62089 -0.47414,0.25965 -1.03858,0.25965 z m 0.19191,-0.77894 q 0.44026,0 0.83538,-0.21449 0.4064,-0.22578 0.8128,-0.65475 V 251.227 q -0.4064,-0.37254 -0.79023,-0.51929 -0.37253,-0.15805 -0.76764,-0.15805 -0.508,0 -0.93698,0.31609 -0.41769,0.3048 -0.66605,0.85796 -0.24835,0.54187 -0.24835,1.25307 0,0.74506 0.2032,1.28693 0.21449,0.54187 0.6096,0.83538 0.39511,0.29351 0.94827,0.29351 z"
         style="font-family:'思源黑体 VF';-inkscape-font-specification:'思源黑体 VF Bold'"
         id="path4092" />
    </g>
    <g
       aria-label="⿱⺈⿻　⿰　⿼コ㐅"
       id="text2192-7-0-7-5-0"
       style="font-weight:bold;font-size:11.2889px;font-family:'Sarasa Mono CL';-inkscape-font-specification:'Sarasa Mono CL Bold';stroke-width:3;stroke-dasharray:12, 3">
      <path
         d="m 334.315,263.76064 v 0.33867 h -0.67733 v 0.67734 H 333.299 v -1.01601 z m 0.8128,0 h 1.01601 v 0.33867 h -1.01601 z m 1.82881,0 h 1.016 v 0.33867 h -1.016 z m 1.8288,0 h 1.016 v 0.33867 h -1.016 z m 1.8288,0 h 1.016 v 0.33867 h -1.016 z m 2.8448,0 v 1.01601 h -0.33866 v -0.67734 h -0.67734 v -0.33867 z m -9.82134,2.84481 H 333.299 v -1.016 h 0.33867 z m 9.48268,-1.016 h 0.33866 v 1.016 h -0.33866 z m -9.48268,2.8448 H 333.299 v -1.016 h 0.33867 z m 9.48268,-1.016 h 0.33866 v 1.016 h -0.33866 z m -9.48268,2.8448 H 333.299 v -1.016 h 0.33867 z m 9.48268,-1.016 h 0.33866 v 1.016 h -0.33866 z m -9.48268,2.8448 H 333.299 v -1.016 h 0.33867 z m 9.48268,-1.016 h 0.33866 v 1.016 h -0.33866 z m -9.48268,2.50614 h 0.67733 v 0.33867 h -1.016 v -1.01601 h 0.33867 z m 9.48268,-0.67734 h 0.33866 v 1.01601 h -1.016 v -0.33867 h 0.67734 z m -7.99255,0.67734 h 1.01601 v 0.33867 h -1.01601 z m 1.82881,0 h 1.016 v 0.33867 h -1.016 z m 1.8288,0 h 1.016 v 0.33867 h -1.016 z m 1.8288,0 h 1.016 v 0.33867 h -1.016 z m -1.7272,-4.91067 v 0.33866 h -1.016 v -0.33866 z m 1.8288,0 v 0.33866 h -1.016 v -0.33866 z m 1.8288,0 v 0.33866 h -1.016 v -0.33866 z m -7.3152,0 v 0.33866 h -1.01601 v -0.33866 z m 1.8288,0 v 0.33866 h -1.016 v -0.33866 z"
         style="font-family:'思源黑体 VF';-inkscape-font-specification:'思源黑体 VF Bold'"
         id="path4031" />
      <path
         d="m 348.79866,263.62518 0.86925,0.16933 q -0.38382,0.77894 -0.97085,1.56916 -0.58702,0.79022 -1.39982,1.51271 -0.8128,0.72249 -1.86267,1.3208 -0.0452,-0.1016 -0.14675,-0.22578 -0.0903,-0.12417 -0.19192,-0.22577 -0.0903,-0.11289 -0.18062,-0.18063 1.00471,-0.51929 1.76107,-1.18533 0.76765,-0.66605 1.29822,-1.37725 0.53058,-0.7112 0.82409,-1.37724 z m -0.0451,1.15147 h 3.73662 v 0.7112 h -4.27849 z m 3.556,0 h 0.18062 l 0.13547,-0.0339 0.54187,0.34996 q -0.29351,0.59831 -0.72249,1.25306 -0.42898,0.64347 -0.90311,1.25307 -0.46285,0.59831 -0.89183,1.06116 -0.11289,-0.0903 -0.28222,-0.2032 -0.16933,-0.11289 -0.3048,-0.18063 0.41769,-0.44026 0.84667,-1.016 0.42898,-0.58702 0.80151,-1.19662 0.37253,-0.62089 0.59831,-1.10631 z"
         style="font-family:'思源黑体 VF';-inkscape-font-specification:'思源黑体 VF Bold'"
         id="path4033" />
      <path
         d="m 355.8768,263.76064 h 1.016 v 0.33867 h -0.67733 v 0.67734 h -0.33867 z m 1.82881,0 h 1.016 v 0.33867 h -1.016 z m 1.8288,0 h 1.016 v 0.33867 h -1.016 z m 1.8288,0 h 1.016 v 1.01601 h -0.33867 v -0.67734 h -0.67733 z m -5.14774,2.84481 h -0.33867 v -1.016 h 0.33867 z m 5.82507,-1.016 h 0.33867 v 1.016 h -0.33867 z m -5.82507,2.8448 h -0.33867 v -1.016 h 0.33867 z m 4.33494,-1.016 v 0.33867 h -0.67734 v 0.67733 h -0.33866 v -1.016 z m 1.8288,0 v 1.016 h -0.33867 v -0.67733 h -0.67733 v -0.33867 z m 0.8128,0 h 1.016 v 0.33867 h -1.016 z m 2.8448,0 v 1.016 h -0.33866 v -0.67733 h -0.67734 v -0.33867 z m -9.82134,2.50613 h 0.67733 v 0.33867 h -1.016 v -1.016 h 0.33867 z m 3.6576,0 h 0.67734 v 0.33867 h -1.016 v -1.016 h 0.33866 z m 2.16747,-0.67733 h 0.33867 v 1.016 h -1.016 v -0.33867 h 0.67733 z m 3.65761,0 h 0.33866 v 1.016 h -0.33866 z m -7.99254,0.67733 h 1.016 v 0.33867 h -1.016 z m 2.16746,2.16747 h -0.33866 v -1.016 h 0.33866 z m 5.82508,-1.016 h 0.33866 v 1.016 h -0.33866 z m -5.82508,2.50614 h 0.67734 v 0.33867 h -1.016 v -1.01601 h 0.33866 z m 5.82508,-0.67734 h 0.33866 v 1.01601 h -1.016 v -0.33867 h 0.67734 z m -4.33494,0.67734 h 1.016 v 0.33867 h -1.016 z m 1.8288,0 h 1.016 v 0.33867 h -1.016 z"
         style="font-family:'思源黑体 VF';-inkscape-font-specification:'思源黑体 VF Bold'"
         id="path4035" />
      <path
         d="m 379.47061,263.76064 v 0.33867 h -0.67734 v 0.67734 h -0.33867 v -1.01601 z m 0.8128,0 h 1.016 v 0.33867 h -1.016 z m 1.8288,0 h 1.016 v 0.33867 h -1.016 z m 1.8288,0 h 1.016 v 0.33867 h -1.016 z m 1.8288,0 h 1.016 v 0.33867 h -1.016 z m 2.8448,0 v 1.01601 h -0.33866 v -0.67734 h -0.67734 v -0.33867 z m -9.82134,2.84481 h -0.33867 v -1.016 h 0.33867 z m 9.48268,-1.016 h 0.33866 v 1.016 h -0.33866 z m -9.48268,2.8448 h -0.33867 v -1.016 h 0.33867 z m 9.48268,-1.016 h 0.33866 v 1.016 h -0.33866 z m -9.48268,2.8448 h -0.33867 v -1.016 h 0.33867 z m 9.48268,-1.016 h 0.33866 v 1.016 h -0.33866 z m -9.48268,2.8448 h -0.33867 v -1.016 h 0.33867 z m 9.48268,-1.016 h 0.33866 v 1.016 h -0.33866 z m -9.48268,2.50614 h 0.67734 v 0.33867 h -1.01601 v -1.01601 h 0.33867 z m 9.48268,-0.67734 h 0.33866 v 1.01601 h -1.016 v -0.33867 h 0.67734 z m -7.99254,0.67734 h 1.016 v 0.33867 h -1.016 z m 1.8288,0 h 1.016 v 0.33867 h -1.016 z m 1.8288,0 h 1.016 v 0.33867 h -1.016 z m 1.8288,0 h 1.016 v 0.33867 h -1.016 z m -2.06587,-4.23334 h -0.33866 v -1.016 h 0.33866 z m 0,1.8288 h -0.33866 v -1.016 h 0.33866 z m 0,1.8288 h -0.33866 v -1.016 h 0.33866 z m 0,-7.3152 h -0.33866 v -1.016 h 0.33866 z m 0,1.8288 h -0.33866 v -1.016 h 0.33866 z"
         style="font-family:'思源黑体 VF';-inkscape-font-specification:'思源黑体 VF Bold'"
         id="path4037" />
      <path
         d="m 401.26722,264.30547 h 1.50482 v 0.42994 h -1.50482 z m 2.05603,0 h 1.49931 v 0.42994 h -1.49931 z m 2.04502,0 h 1.4993 v 0.42994 h -1.4993 z m 2.03949,0 h 1.50482 v 0.42994 h -1.50482 z m 2.04501,0 h 1.50482 v 0.42994 h -1.50482 z m -8.17453,0.98116 h 0.42995 v 1.51584 h -0.42995 z m 9.26043,0 h 0.42995 v 1.51584 h -0.42995 z m -9.26043,2.05604 h 0.42995 v 1.51584 h -0.42995 z m 9.26043,0 h 0.42995 v 1.51584 h -0.42995 z m -9.26043,2.05603 h 0.42995 v 1.51033 h -0.42995 z m 9.26043,0 h 0.42995 v 1.51033 h -0.42995 z m -9.26043,2.06706 h 0.42995 v 1.49931 h -0.42995 z m 9.26043,0 h 0.42995 v 1.49931 h -0.42995 z m -9.27145,2.05052 h 1.50482 v 0.42995 h -1.50482 z m 2.05603,0 h 1.49931 v 0.42995 h -1.49931 z m 2.04502,0 h 1.4993 v 0.42995 h -1.4993 z m 2.03949,0 h 1.50482 v 0.42995 h -1.50482 z m 2.04501,0 h 1.50482 v 0.42995 h -1.50482 z m -0.89848,-5.55074 h -0.42995 v -1.2678 h 0.42995 z m 0,3.59393 h -0.42995 v -1.2678 h 0.42995 z m 0,-1.79697 h -0.42995 v -1.26779 h 0.42995 z m -4.89479,-3.06476 v 0.42995 h -1.40009 v -0.42995 z m 1.95681,0 v 0.42995 h -1.4056 v -0.42995 z m -1.95681,4.43178 v 0.42995 h -1.40009 v -0.42995 z m 1.95681,0 v 0.42995 h -1.4056 v -0.42995 z m 1.95131,-4.43178 v 0.42995 h -1.40009 v -0.42995 z m 0,4.43178 v 0.42995 h -1.40009 v -0.42995 z"
         style="font-family:'思源黑体 VF';-inkscape-font-specification:'思源黑体 VF Bold'"
         id="path4039" />
      <path
         d="m 413.73242,265.44269 q 0.27093,0.0226 0.59831,0.0452 0.33867,0.0113 0.59831,0.0113 h 5.54285 q 0.2032,0 0.41769,0 0.21449,0 0.39511,-0.0113 -0.0113,0.18062 -0.0226,0.41769 -0.0113,0.22577 -0.0113,0.41769 v 5.83636 q 0,0.3048 0.0113,0.62089 0.0226,0.31609 0.0339,0.41769 h -0.90311 q 0,-0.1016 0.0113,-0.37254 0.0113,-0.28222 0.0113,-0.58702 v -5.93796 h -5.47512 q -0.3048,0 -0.66605,0.0113 -0.36124,0.0113 -0.54186,0.0226 z m -0.14676,6.24276 q 0.2032,0.0226 0.54187,0.0452 0.33866,0.0226 0.67733,0.0226 h 6.05085 v 0.8128 h -6.02827 q -0.33867,0 -0.68862,0.0113 -0.33867,0.0113 -0.55316,0.0339 z"
         style="font-family:'思源黑体 VF';-inkscape-font-specification:'思源黑体 VF Bold'"
         id="path4041" />
      <path
         d="m 425.58576,267.02314 0.53058,-0.56445 q 0.84667,0.4064 1.73849,0.9144 0.89183,0.49671 1.7272,1.06116 0.83538,0.56444 1.53529,1.14018 0.69992,0.56444 1.16276,1.09502 l -0.59831,0.66605 q -0.45156,-0.53058 -1.14018,-1.10632 -0.68862,-0.57573 -1.51271,-1.15146 -0.82409,-0.58703 -1.70463,-1.10632 -0.88053,-0.53057 -1.73849,-0.94826 z m 5.10259,-2.69805 0.8128,0.2032 q -0.46285,1.30951 -1.06116,2.58516 -0.59831,1.27564 -1.37724,2.44969 -0.77894,1.16276 -1.76107,2.16747 -0.97085,1.00471 -2.17876,1.78364 -0.0565,-0.0903 -0.16933,-0.19191 -0.1016,-0.1016 -0.21449,-0.2032 -0.1016,-0.1016 -0.2032,-0.16933 1.18533,-0.73378 2.1336,-1.70462 0.95955,-0.98214 1.71591,-2.11103 0.76765,-1.12889 1.33209,-2.34809 0.57574,-1.23049 0.97085,-2.46098 z"
         style="font-family:'思源黑体 VF';-inkscape-font-specification:'思源黑体 VF Bold'"
         id="path4043" />
    </g>
    <g
       aria-label="⿱⺈⿻　⿰"
       id="text2192-7-0-7-5-3-0"
       style="font-weight:bold;font-size:11.2889px;font-family:'Sarasa Mono CL';-inkscape-font-specification:'Sarasa Mono CL Bold';stroke-width:3;stroke-dasharray:12, 3">
      <path
         d="m 334.315,280.24536 v 0.33866 h -0.67733 v 0.67734 H 333.299 v -1.016 z m 0.8128,0 h 1.01601 v 0.33866 h -1.01601 z m 1.82881,0 h 1.016 v 0.33866 h -1.016 z m 1.8288,0 h 1.016 v 0.33866 h -1.016 z m 1.8288,0 h 1.016 v 0.33866 h -1.016 z m 2.8448,0 v 1.016 h -0.33866 v -0.67734 h -0.67734 v -0.33866 z m -9.82134,2.8448 H 333.299 v -1.016 h 0.33867 z m 9.48268,-1.016 h 0.33866 v 1.016 h -0.33866 z m -9.48268,2.8448 H 333.299 v -1.016 h 0.33867 z m 9.48268,-1.016 h 0.33866 v 1.016 h -0.33866 z m -9.48268,2.8448 H 333.299 v -1.016 h 0.33867 z m 9.48268,-1.016 h 0.33866 v 1.016 h -0.33866 z m -9.48268,2.8448 H 333.299 v -1.016 h 0.33867 z m 9.48268,-1.016 h 0.33866 v 1.016 h -0.33866 z m -9.48268,2.50614 h 0.67733 v 0.33867 h -1.016 v -1.01601 h 0.33867 z m 9.48268,-0.67734 h 0.33866 v 1.01601 h -1.016 v -0.33867 h 0.67734 z m -7.99255,0.67734 h 1.01601 v 0.33867 h -1.01601 z m 1.82881,0 h 1.016 v 0.33867 h -1.016 z m 1.8288,0 h 1.016 v 0.33867 h -1.016 z m 1.8288,0 h 1.016 v 0.33867 h -1.016 z m -1.7272,-4.91067 v 0.33866 h -1.016 v -0.33866 z m 1.8288,0 v 0.33866 h -1.016 v -0.33866 z m 1.8288,0 v 0.33866 h -1.016 v -0.33866 z m -7.3152,0 v 0.33866 h -1.01601 v -0.33866 z m 1.8288,0 v 0.33866 h -1.016 v -0.33866 z"
         style="font-family:'思源黑体 VF';-inkscape-font-specification:'思源黑体 VF Bold'"
         id="path4022" />
      <path
         d="m 348.79866,280.10989 0.86925,0.16933 q -0.38382,0.77894 -0.97085,1.56916 -0.58702,0.79022 -1.39982,1.51271 -0.8128,0.72249 -1.86267,1.3208 -0.0452,-0.1016 -0.14675,-0.22577 -0.0903,-0.12418 -0.19192,-0.22578 -0.0903,-0.11289 -0.18062,-0.18063 1.00471,-0.51928 1.76107,-1.18533 0.76765,-0.66604 1.29822,-1.37725 0.53058,-0.7112 0.82409,-1.37724 z m -0.0451,1.15147 h 3.73662 v 0.7112 h -4.27849 z m 3.556,0 h 0.18062 l 0.13547,-0.0339 0.54187,0.34996 q -0.29351,0.59831 -0.72249,1.25306 -0.42898,0.64347 -0.90311,1.25307 -0.46285,0.59831 -0.89183,1.06116 -0.11289,-0.0903 -0.28222,-0.2032 -0.16933,-0.11289 -0.3048,-0.18062 0.41769,-0.44027 0.84667,-1.01601 0.42898,-0.58702 0.80151,-1.19662 0.37253,-0.62089 0.59831,-1.10631 z"
         style="font-family:'思源黑体 VF';-inkscape-font-specification:'思源黑体 VF Bold'"
         id="path4024" />
      <path
         d="m 355.8768,280.24536 h 1.016 v 0.33866 h -0.67733 v 0.67734 h -0.33867 z m 1.82881,0 h 1.016 v 0.33866 h -1.016 z m 1.8288,0 h 1.016 v 0.33866 h -1.016 z m 1.8288,0 h 1.016 v 1.016 h -0.33867 v -0.67734 h -0.67733 z m -5.14774,2.8448 h -0.33867 v -1.016 h 0.33867 z m 5.82507,-1.016 h 0.33867 v 1.016 h -0.33867 z m -5.82507,2.8448 h -0.33867 v -1.016 h 0.33867 z m 4.33494,-1.016 v 0.33867 h -0.67734 v 0.67733 h -0.33866 v -1.016 z m 1.8288,0 v 1.016 h -0.33867 v -0.67733 h -0.67733 v -0.33867 z m 0.8128,0 h 1.016 v 0.33867 h -1.016 z m 2.8448,0 v 1.016 h -0.33866 v -0.67733 h -0.67734 v -0.33867 z m -9.82134,2.50614 h 0.67733 v 0.33866 h -1.016 v -1.016 h 0.33867 z m 3.6576,0 h 0.67734 v 0.33866 h -1.016 v -1.016 h 0.33866 z m 2.16747,-0.67734 h 0.33867 v 1.016 h -1.016 v -0.33866 h 0.67733 z m 3.65761,0 h 0.33866 v 1.016 h -0.33866 z m -7.99254,0.67734 h 1.016 v 0.33866 h -1.016 z m 2.16746,2.16746 h -0.33866 v -1.016 h 0.33866 z m 5.82508,-1.016 h 0.33866 v 1.016 h -0.33866 z m -5.82508,2.50614 h 0.67734 v 0.33867 h -1.016 v -1.01601 h 0.33866 z m 5.82508,-0.67734 h 0.33866 v 1.01601 h -1.016 v -0.33867 h 0.67734 z m -4.33494,0.67734 h 1.016 v 0.33867 h -1.016 z m 1.8288,0 h 1.016 v 0.33867 h -1.016 z"
         style="font-family:'思源黑体 VF';-inkscape-font-specification:'思源黑体 VF Bold'"
         id="path4026" />
      <path
         d="m 379.47061,280.24536 v 0.33866 h -0.67734 v 0.67734 h -0.33867 v -1.016 z m 0.8128,0 h 1.016 v 0.33866 h -1.016 z m 1.8288,0 h 1.016 v 0.33866 h -1.016 z m 1.8288,0 h 1.016 v 0.33866 h -1.016 z m 1.8288,0 h 1.016 v 0.33866 h -1.016 z m 2.8448,0 v 1.016 h -0.33866 v -0.67734 h -0.67734 v -0.33866 z m -9.82134,2.8448 h -0.33867 v -1.016 h 0.33867 z m 9.48268,-1.016 h 0.33866 v 1.016 h -0.33866 z m -9.48268,2.8448 h -0.33867 v -1.016 h 0.33867 z m 9.48268,-1.016 h 0.33866 v 1.016 h -0.33866 z m -9.48268,2.8448 h -0.33867 v -1.016 h 0.33867 z m 9.48268,-1.016 h 0.33866 v 1.016 h -0.33866 z m -9.48268,2.8448 h -0.33867 v -1.016 h 0.33867 z m 9.48268,-1.016 h 0.33866 v 1.016 h -0.33866 z m -9.48268,2.50614 h 0.67734 v 0.33867 h -1.01601 v -1.01601 h 0.33867 z m 9.48268,-0.67734 h 0.33866 v 1.01601 h -1.016 v -0.33867 h 0.67734 z m -7.99254,0.67734 h 1.016 v 0.33867 h -1.016 z m 1.8288,0 h 1.016 v 0.33867 h -1.016 z m 1.8288,0 h 1.016 v 0.33867 h -1.016 z m 1.8288,0 h 1.016 v 0.33867 h -1.016 z m -2.06587,-4.23334 h -0.33866 v -1.016 h 0.33866 z m 0,1.8288 h -0.33866 v -1.016 h 0.33866 z m 0,1.8288 h -0.33866 v -1.016 h 0.33866 z m 0,-7.3152 h -0.33866 v -1.016 h 0.33866 z m 0,1.8288 h -0.33866 v -1.016 h 0.33866 z"
         style="font-family:'思源黑体 VF';-inkscape-font-specification:'思源黑体 VF Bold'"
         id="path4028" />
    </g>
    <g
       aria-label="⿱⺈⿻"
       id="text2192-7-0-7-5-3-5-9"
       style="font-weight:bold;font-size:11.2889px;font-family:'Sarasa Mono CL';-inkscape-font-specification:'Sarasa Mono CL Bold';stroke-width:3;stroke-dasharray:12, 3">
      <path
         d="m 334.315,296.75268 v 0.33867 h -0.67733 v 0.67733 H 333.299 v -1.016 z m 0.8128,0 h 1.01601 v 0.33867 h -1.01601 z m 1.82881,0 h 1.016 v 0.33867 h -1.016 z m 1.8288,0 h 1.016 v 0.33867 h -1.016 z m 1.8288,0 h 1.016 v 0.33867 h -1.016 z m 2.8448,0 v 1.016 h -0.33866 v -0.67733 h -0.67734 v -0.33867 z m -9.82134,2.8448 H 333.299 v -1.016 h 0.33867 z m 9.48268,-1.016 h 0.33866 v 1.016 h -0.33866 z m -9.48268,2.8448 H 333.299 v -1.016 h 0.33867 z m 9.48268,-1.016 h 0.33866 v 1.016 h -0.33866 z m -9.48268,2.84481 H 333.299 v -1.016 h 0.33867 z m 9.48268,-1.016 h 0.33866 v 1.016 h -0.33866 z m -9.48268,2.8448 H 333.299 v -1.016 h 0.33867 z m 9.48268,-1.016 h 0.33866 v 1.016 h -0.33866 z m -9.48268,2.50613 h 0.67733 v 0.33867 h -1.016 v -1.016 h 0.33867 z m 9.48268,-0.67733 h 0.33866 v 1.016 h -1.016 v -0.33867 h 0.67734 z m -7.99255,0.67733 h 1.01601 v 0.33867 h -1.01601 z m 1.82881,0 h 1.016 v 0.33867 h -1.016 z m 1.8288,0 h 1.016 v 0.33867 h -1.016 z m 1.8288,0 h 1.016 v 0.33867 h -1.016 z m -1.7272,-4.91067 v 0.33867 h -1.016 v -0.33867 z m 1.8288,0 v 0.33867 h -1.016 v -0.33867 z m 1.8288,0 v 0.33867 h -1.016 v -0.33867 z m -7.3152,0 v 0.33867 h -1.01601 v -0.33867 z m 1.8288,0 v 0.33867 h -1.016 v -0.33867 z"
         style="font-family:'思源黑体 VF';-inkscape-font-specification:'思源黑体 VF Bold'"
         id="path4015" />
      <path
         d="m 348.79866,296.61721 0.86925,0.16934 q -0.38382,0.77893 -0.97085,1.56915 -0.58702,0.79023 -1.39982,1.51272 -0.8128,0.72249 -1.86267,1.3208 -0.0452,-0.1016 -0.14675,-0.22578 -0.0903,-0.12418 -0.19192,-0.22578 -0.0903,-0.11289 -0.18062,-0.18062 1.00471,-0.51929 1.76107,-1.18534 0.76765,-0.66604 1.29822,-1.37724 0.53058,-0.7112 0.82409,-1.37725 z m -0.0451,1.15147 h 3.73662 v 0.7112 h -4.27849 z m 3.556,0 h 0.18062 l 0.13547,-0.0339 0.54187,0.34996 q -0.29351,0.59831 -0.72249,1.25307 -0.42898,0.64347 -0.90311,1.25307 -0.46285,0.59831 -0.89183,1.06115 -0.11289,-0.0903 -0.28222,-0.2032 -0.16933,-0.11289 -0.3048,-0.18062 0.41769,-0.44027 0.84667,-1.016 0.42898,-0.58702 0.80151,-1.19662 0.37253,-0.62089 0.59831,-1.10632 z"
         style="font-family:'思源黑体 VF';-inkscape-font-specification:'思源黑体 VF Bold'"
         id="path4017" />
      <path
         d="m 355.8768,296.75268 h 1.016 v 0.33867 h -0.67733 v 0.67733 h -0.33867 z m 1.82881,0 h 1.016 v 0.33867 h -1.016 z m 1.8288,0 h 1.016 v 0.33867 h -1.016 z m 1.8288,0 h 1.016 v 1.016 h -0.33867 v -0.67733 h -0.67733 z m -5.14774,2.8448 h -0.33867 v -1.016 h 0.33867 z m 5.82507,-1.016 h 0.33867 v 1.016 h -0.33867 z m -5.82507,2.8448 h -0.33867 v -1.016 h 0.33867 z m 4.33494,-1.016 v 0.33867 h -0.67734 v 0.67733 h -0.33866 v -1.016 z m 1.8288,0 v 1.016 h -0.33867 v -0.67733 h -0.67733 v -0.33867 z m 0.8128,0 h 1.016 v 0.33867 h -1.016 z m 2.8448,0 v 1.016 h -0.33866 v -0.67733 h -0.67734 v -0.33867 z m -9.82134,2.50614 h 0.67733 v 0.33867 h -1.016 v -1.016 h 0.33867 z m 3.6576,0 h 0.67734 v 0.33867 h -1.016 v -1.016 h 0.33866 z m 2.16747,-0.67733 h 0.33867 v 1.016 h -1.016 v -0.33867 h 0.67733 z m 3.65761,0 h 0.33866 v 1.016 h -0.33866 z m -7.99254,0.67733 h 1.016 v 0.33867 h -1.016 z m 2.16746,2.16747 h -0.33866 v -1.016 h 0.33866 z m 5.82508,-1.016 h 0.33866 v 1.016 h -0.33866 z m -5.82508,2.50613 h 0.67734 v 0.33867 h -1.016 v -1.016 h 0.33866 z m 5.82508,-0.67733 h 0.33866 v 1.016 h -1.016 v -0.33867 h 0.67734 z m -4.33494,0.67733 h 1.016 v 0.33867 h -1.016 z m 1.8288,0 h 1.016 v 0.33867 h -1.016 z"
         style="font-family:'思源黑体 VF';-inkscape-font-specification:'思源黑体 VF Bold'"
         id="path4019" />
    </g>
  </g>
</svg>
