<?xml version="1.0" encoding="UTF-8" standalone="no"?>
<!-- Created with Inkscape (http://www.inkscape.org/) -->

<svg
   width="1199.9998"
   height="400.00012"
   viewBox="0 0 317.49992 105.83337"
   version="1.1"
   id="svg5"
   inkscape:version="1.2.2 (732a01da63, 2022-12-09)"
   sodipodi:docname="9f9c-q4072-decompose.svg"
   xmlns:inkscape="http://www.inkscape.org/namespaces/inkscape"
   xmlns:sodipodi="http://sodipodi.sourceforge.net/DTD/sodipodi-0.dtd"
   xmlns="http://www.w3.org/2000/svg"
   xmlns:svg="http://www.w3.org/2000/svg">
  <sodipodi:namedview
     id="namedview7"
     pagecolor="#ffffff"
     bordercolor="#000000"
     borderopacity="0.25"
     inkscape:showpageshadow="2"
     inkscape:pageopacity="0.0"
     inkscape:pagecheckerboard="0"
     inkscape:deskcolor="#d1d1d1"
     inkscape:document-units="mm"
     showgrid="false"
     inkscape:zoom="1.2363885"
     inkscape:cx="262.45796"
     inkscape:cy="338.48584"
     inkscape:window-width="1920"
     inkscape:window-height="1001"
     inkscape:window-x="-9"
     inkscape:window-y="-9"
     inkscape:window-maximized="1"
     inkscape:current-layer="layer9" />
  <defs
     id="defs2" />
  <g
     inkscape:groupmode="layer"
     id="layer9"
     inkscape:label="q4072"
     transform="translate(0.15808341,-360.1778)">
    <g
       aria-label="龜(J)"
       id="text3992-8-2-7-3-7"
       style="font-weight:bold;font-size:11.2889px;font-family:'Source Han Sans VF';-inkscape-font-specification:'Source Han Sans VF Bold';fill:#000000;stroke-width:3;stroke-dasharray:12, 3"
       transform="translate(0.95618199,360.16107)">
      <g
         aria-label="(q4072)"
         id="text1902-7-4-3-0"
         style="font-weight:normal;font-family:'Source Han Sans TC';-inkscape-font-specification:'Source Han Sans TC'">
        <path
           d="m 18.092698,99.967141 0.632178,-0.282222 c -0.970845,-1.603024 -1.43369,-3.522137 -1.43369,-5.44125 0,-1.907825 0.462845,-3.815649 1.43369,-5.429961 l -0.632178,-0.293512 c -1.038579,1.693335 -1.659469,3.510848 -1.659469,5.723473 0,2.223913 0.62089,4.041426 1.659469,5.723472 z"
           id="path3036" />
        <path
           d="m 24.132252,100.83967 h 1.038579 v -8.715026 h -0.82409 l -0.1016,0.575734 h -0.02258 c -0.541867,-0.474134 -1.038579,-0.733779 -1.761068,-0.733779 -1.399824,0 -2.652892,1.241779 -2.652892,3.228626 0,2.043291 0.993423,3.206047 2.528714,3.206047 0.711201,0 1.354668,-0.372533 1.851379,-0.857956 l -0.05644,1.117601 z m -1.569157,-3.307643 c -1.072446,0 -1.693335,-0.869245 -1.693335,-2.348091 0,-1.399824 0.790223,-2.348092 1.772357,-2.348092 0.508001,0 0.982134,0.180623 1.490135,0.643468 v 3.217336 c -0.508001,0.564445 -1.004712,0.835379 -1.569157,0.835379 z"
           id="path3038" />
        <path
           d="m 30.047645,98.254517 h 0.970846 v -2.223914 h 1.106312 v -0.824089 h -1.106312 v -5.000983 h -1.140179 l -3.443115,5.147738 v 0.677334 h 3.612448 z m 0,-3.048003 h -2.540002 l 1.885246,-2.754492 c 0.237067,-0.406401 0.462845,-0.756357 0.666045,-1.140179 h 0.04516 c -0.02258,0.417689 -0.05645,1.12889 -0.05645,1.53529 z"
           id="path3040" />
        <path
           d="m 35.613077,98.401272 c 1.603024,0 2.57387,-1.501423 2.57387,-4.199471 0,-2.686758 -0.970846,-4.143026 -2.57387,-4.143026 -1.614313,0 -2.573869,1.444979 -2.573869,4.143026 0,2.698048 0.959556,4.199471 2.573869,4.199471 z m 0,-0.835378 c -0.936979,0 -1.580446,-1.004712 -1.580446,-3.364093 0,-2.35938 0.643467,-3.318936 1.580446,-3.318936 0.936979,0 1.580446,0.959556 1.580446,3.318936 0,2.359381 -0.643467,3.364093 -1.580446,3.364093 z"
           id="path3042" />
        <path
           d="m 40.975308,98.254517 h 1.072445 c 0.135467,-3.138315 0.530579,-4.978405 2.427114,-7.416808 v -0.632178 h -5.181605 v 0.891823 h 4.018848 c -1.591735,2.201335 -2.190046,4.120448 -2.336802,7.157163 z"
           id="path3044" />
        <path
           d="m 45.50216,98.254517 h 5.204183 v -0.891824 h -2.336802 c -0.41769,0 -0.92569,0.04516 -1.354668,0.07902 1.907824,-1.998136 3.296359,-3.510848 3.296359,-5.023561 0,-1.422401 -0.936979,-2.35938 -2.415825,-2.35938 -1.049868,0 -1.772358,0.474134 -2.438403,1.219201 l 0.598312,0.575734 c 0.462845,-0.530578 1.038579,-0.959556 1.715913,-0.959556 1.02729,0 1.524001,0.654756 1.524001,1.569157 0,1.320801 -1.365956,2.76578 -3.79307,5.181605 z"
           id="path3046" />
        <path
           d="m 52.388392,99.967141 c 1.038579,-1.682046 1.659469,-3.499559 1.659469,-5.723472 0,-2.212625 -0.62089,-4.030138 -1.659469,-5.723473 l -0.643467,0.293512 c 0.970845,1.614312 1.456268,3.522136 1.456268,5.429961 0,1.919113 -0.485423,3.838226 -1.456268,5.44125 z"
           id="path3048" />
      </g>
      <g
         id="g9855">
        <path
           id="path6343-8"
           style="font-weight:normal;font-size:11.2889px;font-family:'Source Han Sans K VF';-inkscape-font-specification:'Source Han Sans K VF';fill:#000000;stroke-width:3;stroke-dasharray:12, 3"
           d="m 7.2521433,88.779619 c -0.5757317,0.790219 -1.6256772,1.727254 -3.0029175,2.415873 0.1806216,0.112889 0.4179085,0.361464 0.5420858,0.542086 0.2481121,-0.138482 0.48436,-0.282446 0.7110677,-0.430465 v 1.265556 h 3.4514689 v 1.32085 H 7.8717437 V 93.012952 H 5.0967193 v 0.485759 h 2.1094319 v 0.451135 H 4.4300933 v 0.485758 h 2.7760579 v 0.462505 H 5.0967193 v 0.474389 h 2.7750244 v -0.880566 h 1.0821045 v 2.31407 H 7.8717437 V 95.925436 H 5.0967193 v 0.47439 h 2.1094319 v 0.473873 H 4.4073557 v 0.485758 h 2.7987955 v 0.485242 H 5.0967193 v 0.474389 h 2.7750244 v -0.903304 h 1.0821045 v 0.361219 c 0,1.106306 0.3954588,1.377176 1.7275428,1.377176 h 2.39572 c 1.08373,0 1.320695,-0.315784 1.444873,-1.34307 -0.214489,-0.04515 -0.519076,-0.147045 -0.699699,-0.259932 -0.06773,0.790219 -0.180456,0.959631 -0.778764,0.959631 h -2.36213 c -0.8579521,0 -0.9937375,-0.146704 -0.9937375,-0.722437 V 92.5613 h 3.6493895 v -1.911511 h -3.066996 c 0.256555,-0.29131 0.509966,-0.626697 0.696081,-0.936894 l -0.49661,-0.33848 -0.113171,0.03359 H 7.7286 c 0.1167936,-0.135281 0.2549121,-0.323533 0.3591512,-0.458886 z m -0.040308,1.18184 h 2.728516 C 9.78173,90.201298 9.5905178,90.450533 9.4003326,90.649789 H 8.9672841 6.448058 c 0.2750537,-0.224651 0.5290144,-0.45504 0.7637773,-0.68833 z M 6.2925119,91.271456 H 8.9672841 V 91.94015 H 6.2925119 Z m 3.3951416,0 H 12.535542 V 91.94015 H 9.6876535 Z" />
        <path
           id="path8887-3-2-7"
           style="font-size:11.2889px;font-family:'Source Han Sans K VF';-inkscape-font-specification:'Source Han Sans K VF';stroke-width:2.07616;stroke-dasharray:8.30463, 2.07616"
           d="m 10.246353,93.095486 v 4.725382 l 3.547486,-0.001 v -4.724322 z m 0.62549,0.63444 h 2.282546 v 3.419452 h -2.282546 z"
           sodipodi:nodetypes="cccccccccc" />
        <path
           d="m 10.675484,95.778055 v 0.62541 h 2.689224 v -0.62541 z"
           id="path8883-6-4-4"
           style="font-size:11.2889px;font-family:'Source Han Sans K VF';-inkscape-font-specification:'Source Han Sans K VF';stroke-width:2.31251;stroke-dasharray:9.25004, 2.31251"
           sodipodi:nodetypes="ccccc" />
        <path
           d="m 10.675488,94.466136 v 0.62538 h 2.68922 v -0.62538 z"
           id="path8849-9-9-6"
           style="font-size:11.2889px;font-family:'Source Han Sans K VF';-inkscape-font-specification:'Source Han Sans K VF';stroke-width:2.31251;stroke-dasharray:9.25005, 2.31251"
           sodipodi:nodetypes="ccccc" />
      </g>
    </g>
    <g
       aria-label="⿱⺈"
       id="text2192-7-0-7-5-3-5-8-0-1"
       style="font-weight:bold;font-size:11.2889px;font-family:'Sarasa Mono CL';-inkscape-font-specification:'Sarasa Mono CL Bold';display:inline;stroke-width:3;stroke-dasharray:12, 3">
      <path
         d="m 6.3792565,432.80224 v 0.33867 h -0.677334 v 0.67733 h -0.338667 v -1.016 z m 0.8128009,0 h 1.016001 v 0.33867 h -1.016001 z m 1.8288018,0 H 10.03686 v 0.33867 H 9.0208592 Z m 1.8288018,0 h 1.016001 v 0.33867 h -1.016001 z m 1.828802,0 h 1.016001 v 0.33867 h -1.016001 z m 2.844803,0 v 1.016 h -0.338667 v -0.67733 h -0.677334 v -0.33867 z m -9.8213435,2.8448 h -0.338667 v -1.016 h 0.338667 z m 9.4826765,-1.016 h 0.338667 v 1.016 h -0.338667 z m -9.4826765,2.84481 h -0.338667 v -1.01601 h 0.338667 z m 9.4826765,-1.01601 h 0.338667 v 1.01601 h -0.338667 z m -9.4826765,2.84481 h -0.338667 v -1.016 h 0.338667 z m 9.4826765,-1.016 h 0.338667 v 1.016 h -0.338667 z m -9.4826765,2.8448 h -0.338667 v -1.016 h 0.338667 z m 9.4826765,-1.016 h 0.338667 v 1.016 h -0.338667 z m -9.4826765,2.50613 h 0.677334 v 0.33867 h -1.016001 v -1.016 h 0.338667 z m 9.4826765,-0.67733 h 0.338667 v 1.016 h -1.016001 v -0.33867 h 0.677334 z m -7.9925416,0.67733 h 1.016001 v 0.33867 h -1.016001 z m 1.8288018,0 H 10.03686 v 0.33867 H 9.0208592 Z m 1.8288018,0 h 1.016001 v 0.33867 h -1.016001 z m 1.828802,0 h 1.016001 v 0.33867 h -1.016001 z m -1.727202,-4.91067 v 0.33867 H 9.9352602 v -0.33867 z m 1.828802,0 v 0.33867 h -1.016001 v -0.33867 z m 1.828802,0 v 0.33867 h -1.016001 v -0.33867 z m -7.3152075,0 v 0.33867 H 6.2776564 v -0.33867 z m 1.8288018,0 v 0.33867 h -1.016001 v -0.33867 z"
         style="font-family:'思源黑体 VF';-inkscape-font-specification:'思源黑体 VF Bold'"
         id="path3031" />
      <path
         d="m 20.862916,432.66677 0.869245,0.16934 q -0.383823,0.77893 -0.970845,1.56915 -0.587023,0.79023 -1.399824,1.51272 -0.812801,0.72249 -1.862669,1.3208 -0.04516,-0.1016 -0.146755,-0.22578 -0.09031,-0.12418 -0.191912,-0.22578 -0.09031,-0.11289 -0.180622,-0.18062 1.004712,-0.51929 1.761068,-1.18533 0.767646,-0.66605 1.298224,-1.37725 0.530578,-0.7112 0.82409,-1.37725 z m -0.04516,1.15147 h 3.736626 v 0.7112 h -4.278493 z m 3.556004,0 h 0.180622 l 0.135467,-0.0339 0.541867,0.34996 q -0.293511,0.59831 -0.722489,1.25307 -0.428979,0.64347 -0.903112,1.25307 -0.462845,0.59831 -0.891824,1.06115 -0.112889,-0.0903 -0.282222,-0.2032 -0.169334,-0.11289 -0.3048,-0.18062 0.417689,-0.44027 0.846667,-1.016 0.428978,-0.58702 0.801512,-1.19662 0.372534,-0.62089 0.598312,-1.10632 z"
         style="font-family:'思源黑体 VF';-inkscape-font-specification:'思源黑体 VF Bold'"
         id="path3033" />
    </g>
    <g
       id="g9720">
      <path
         id="path4451-2-2"
         style="fill:#000000;fill-opacity:1;fill-rule:nonzero;stroke:none;stroke-width:0.0343527"
         d="m 29.511418,433.24449 v 2.40864 l 3.305224,0.0109 v 1.4857 h -1.008207 v -1.02423 h -2.663403 v 0.54054 h 2.062406 v 0.56275 h -2.684074 v 0.58498 h 2.684074 v 0.59635 h -2.08411 v 0.51779 h 2.685107 v -1.03508 h 1.008207 v 2.6448 h -1.029394 v -1.08055 h -2.642216 v 0.52917 h 2.040702 v 0.62993 h -2.673222 v 0.5855 h 2.673222 v 0.69763 h -2.062406 v 0.52865 h 2.66392 v -1.14774 h 1.029394 v 0.33745 c 0,0.43892 0.05376,0.76526 0.150379,1.01286 0.0966,0.23635 0.25793,0.39429 0.504878,0.49558 0.24696,0.10129 0.579753,0.14624 1.009241,0.14624 h 0.502295 0.551388 0.719336 0.386539 c 0.3758,0 0.655259,-0.0564 0.848527,-0.16898 0.19327,-0.11254 0.332691,-0.30362 0.418579,-0.58498 0.0859,-0.28137 0.15032,-0.65281 0.19327,-1.12551 -0.10737,-0.0337 -0.225538,-0.0787 -0.343648,-0.14625 -0.12884,-0.0562 -0.236044,-0.12409 -0.321944,-0.18035 -0.0215,0.39391 -0.05363,0.69814 -0.09663,0.90072 -0.0537,0.21384 -0.128791,0.34858 -0.236161,0.42737 -0.11811,0.0788 -0.279165,0.11265 -0.483175,0.11265 H 36.157529 35.470232 35.005144 34.49148 c -0.268428,0 -0.47226,-0.0227 -0.611848,-0.0677 -0.13958,-0.045 -0.236103,-0.1351 -0.279053,-0.2589 -0.0537,-0.1238 -0.07545,-0.31504 -0.07545,-0.55139 v -0.34882 -4.13049 -1.4857 h 3.373438 v -2.41949 z m 0.730188,0.67541 h 2.582788 v 1.06298 l -2.582788,-0.005 z m 3.28352,0 h 2.64325 v 1.06919 l -2.64325,-0.005 z" />
      <path
         id="path8887-3-2"
         style="font-size:11.2889px;font-family:'Source Han Sans K VF';-inkscape-font-specification:'Source Han Sans K VF';stroke-width:2.07616;stroke-dasharray:8.30463, 2.07616"
         d="m 34.194367,436.18806 v 5.55462 l 3.025869,-0.001 v -5.55356 z m 0.62549,0.63444 h 1.760929 v 4.24869 h -1.760929 z"
         sodipodi:nodetypes="cccccccccc" />
      <path
         d="m 34.623497,439.48587 v 0.62541 h 2.167608 v -0.62541 z"
         id="path8883-6-4"
         style="font-size:11.2889px;font-family:'Source Han Sans K VF';-inkscape-font-specification:'Source Han Sans K VF';stroke-width:2.07616;stroke-dasharray:8.30463, 2.07616"
         sodipodi:nodetypes="ccccc" />
      <path
         d="m 34.623502,437.86633 v 0.62538 h 2.1676 v -0.62538 z"
         id="path8849-9-9"
         style="font-size:11.2889px;font-family:'Source Han Sans K VF';-inkscape-font-specification:'Source Han Sans K VF';stroke-width:2.07616;stroke-dasharray:8.30463, 2.07616"
         sodipodi:nodetypes="ccccc" />
    </g>
    <g
       aria-label="⿱⺈⿻[1:]乚.⿱口.⿰⿱⺕⺕目"
       id="text2192-7-0-7-8-7"
       style="font-weight:bold;font-size:11.2889px;font-family:'Sarasa Mono CL';-inkscape-font-specification:'Sarasa Mono CL Bold';stroke-width:3;stroke-dasharray:12, 3">
      <path
         d="m 6.3792565,366.15209 v 0.33867 h -0.677334 v 0.67733 h -0.338667 v -1.016 z m 0.8128009,0 h 1.016001 v 0.33867 h -1.016001 z m 1.8288018,0 H 10.03686 v 0.33867 H 9.0208592 Z m 1.8288018,0 h 1.016001 v 0.33867 h -1.016001 z m 1.828802,0 h 1.016001 v 0.33867 h -1.016001 z m 2.844803,0 v 1.016 h -0.338667 v -0.67733 h -0.677334 v -0.33867 z m -9.8213435,2.84481 h -0.338667 v -1.016 h 0.338667 z m 9.4826765,-1.016 h 0.338667 v 1.016 h -0.338667 z m -9.4826765,2.8448 h -0.338667 v -1.016 h 0.338667 z m 9.4826765,-1.016 h 0.338667 v 1.016 h -0.338667 z m -9.4826765,2.8448 h -0.338667 v -1.016 h 0.338667 z m 9.4826765,-1.016 h 0.338667 v 1.016 h -0.338667 z m -9.4826765,2.8448 h -0.338667 v -1.016 h 0.338667 z m 9.4826765,-1.016 h 0.338667 v 1.016 h -0.338667 z m -9.4826765,2.50614 h 0.677334 v 0.33866 h -1.016001 v -1.016 h 0.338667 z m 9.4826765,-0.67734 h 0.338667 v 1.016 h -1.016001 v -0.33866 h 0.677334 z m -7.9925416,0.67734 h 1.016001 v 0.33866 h -1.016001 z m 1.8288018,0 H 10.03686 v 0.33866 H 9.0208592 Z m 1.8288018,0 h 1.016001 v 0.33866 h -1.016001 z m 1.828802,0 h 1.016001 v 0.33866 h -1.016001 z m -1.727202,-4.91067 v 0.33866 H 9.9352602 v -0.33866 z m 1.828802,0 v 0.33866 h -1.016001 v -0.33866 z m 1.828802,0 v 0.33866 h -1.016001 v -0.33866 z m -7.3152075,0 v 0.33866 H 6.2776564 v -0.33866 z m 1.8288018,0 v 0.33866 h -1.016001 v -0.33866 z"
         style="font-family:'思源黑体 VF';-inkscape-font-specification:'思源黑体 VF Bold'"
         id="path2996" />
      <path
         d="m 20.862916,366.01663 0.869245,0.16933 q -0.383823,0.77893 -0.970845,1.56916 -0.587023,0.79022 -1.399824,1.51271 -0.812801,0.72249 -1.862669,1.3208 -0.04516,-0.1016 -0.146755,-0.22578 -0.09031,-0.12417 -0.191912,-0.22577 -0.09031,-0.11289 -0.180622,-0.18063 1.004712,-0.51929 1.761068,-1.18533 0.767646,-0.66605 1.298224,-1.37725 0.530578,-0.7112 0.82409,-1.37724 z m -0.04516,1.15146 h 3.736626 v 0.71121 h -4.278493 z m 3.556004,0 h 0.180622 l 0.135467,-0.0339 0.541867,0.34995 q -0.293511,0.59832 -0.722489,1.25307 -0.428979,0.64347 -0.903112,1.25307 -0.462845,0.59831 -0.891824,1.06116 -0.112889,-0.0903 -0.282222,-0.2032 -0.169334,-0.11289 -0.3048,-0.18063 0.417689,-0.44026 0.846667,-1.016 0.428978,-0.58702 0.801512,-1.19662 0.372534,-0.62089 0.598312,-1.10631 z"
         style="font-family:'思源黑体 VF';-inkscape-font-specification:'思源黑体 VF Bold'"
         id="path2998" />
      <path
         d="m 27.941056,366.15209 h 1.016001 v 0.33867 h -0.677334 v 0.67733 h -0.338667 z m 1.828802,0 h 1.016001 v 0.33867 h -1.016001 z m 1.828802,0 h 1.016001 v 0.33867 H 31.59866 Z m 1.828802,0 h 1.016001 v 1.016 h -0.338667 v -0.67733 h -0.677334 z m -5.147739,2.84481 h -0.338667 v -1.016 h 0.338667 z m 5.825073,-1.016 h 0.338667 v 1.016 h -0.338667 z m -5.825073,2.8448 h -0.338667 v -1.016 h 0.338667 z m 4.334938,-1.016 v 0.33866 h -0.677334 v 0.67734 H 31.59866 v -1.016 z m 1.828802,0 v 1.016 h -0.338667 v -0.67734 h -0.677334 v -0.33866 z m 0.812801,0 h 1.016001 v 0.33866 h -1.016001 z m 2.844803,0 v 1.016 H 37.7624 v -0.67734 h -0.677334 v -0.33866 z m -9.821344,2.50613 h 0.677334 v 0.33867 h -1.016001 v -1.016 h 0.338667 z m 3.657604,0 h 0.677334 v 0.33867 H 31.59866 v -1.016 h 0.338667 z m 2.167469,-0.67733 h 0.338667 v 1.016 h -1.016001 v -0.33867 h 0.677334 z m 3.657604,0 h 0.338667 v 1.016 H 37.7624 Z m -7.992542,0.67733 h 1.016001 v 0.33867 h -1.016001 z m 2.167469,2.16747 H 31.59866 v -1.016 h 0.338667 z m 5.825073,-1.016 h 0.338667 v 1.016 H 37.7624 Z m -5.825073,2.50614 h 0.677334 v 0.33866 H 31.59866 v -1.016 h 0.338667 z M 37.7624,375.2961 h 0.338667 v 1.016 h -1.016001 v -0.33866 H 37.7624 Z m -4.334938,0.67734 h 1.016001 v 0.33866 h -1.016001 z m 1.828802,0 h 1.016001 v 0.33866 h -1.016001 z"
         style="font-family:'思源黑体 VF';-inkscape-font-specification:'思源黑体 VF Bold'"
         id="path3000" />
      <path
         d="m 39.862133,377.42971 v -10.82606 h 2.178758 v 0.54187 h -1.478846 v 9.75361 h 1.478846 v 0.53058 z"
         style="font-family:'思源黑体 VF';-inkscape-font-specification:'思源黑体 VF Bold'"
         id="path3002" />
      <path
         d="m 43.418133,375.52188 v -0.77893 h 1.851379 v -6.32179 h -1.478846 v -0.59831 q 0.541868,-0.0903 0.948268,-0.22578 0.4064,-0.14675 0.72249,-0.33866 h 0.7112 v 7.48454 h 1.682046 v 0.77893 z"
         style="font-family:'思源黑体 VF';-inkscape-font-specification:'思源黑体 VF Bold'"
         id="path3004" />
      <path
         d="m 50.123734,371.06277 q -0.282222,0 -0.496711,-0.19192 -0.2032,-0.2032 -0.2032,-0.53057 0,-0.33867 0.2032,-0.54187 0.214489,-0.2032 0.496711,-0.2032 0.282223,0 0.485423,0.2032 0.2032,0.2032 0.2032,0.54187 0,0.32737 -0.2032,0.53057 -0.2032,0.19192 -0.485423,0.19192 z m 0,4.60587 q -0.282222,0 -0.496711,-0.2032 -0.2032,-0.2032 -0.2032,-0.51929 0,-0.33867 0.2032,-0.54187 0.214489,-0.2032 0.496711,-0.2032 0.282223,0 0.485423,0.2032 0.2032,0.2032 0.2032,0.54187 0,0.31609 -0.2032,0.51929 -0.2032,0.2032 -0.485423,0.2032 z"
         style="font-family:'思源黑体 VF';-inkscape-font-specification:'思源黑体 VF Bold'"
         id="path3006" />
      <path
         d="m 51.997683,377.42971 v -0.53058 h 1.490135 v -9.75361 h -1.490135 v -0.54187 h 2.178757 v 10.82606 z"
         style="font-family:'思源黑体 VF';-inkscape-font-specification:'思源黑体 VF Bold'"
         id="path3008" />
      <path
         d="m 57.529236,366.52463 h 0.767645 v 7.59743 q 0,0.38382 0.09031,0.59831 0.1016,0.2032 0.372534,0.28222 0.270934,0.079 0.790223,0.079 0.158045,0 0.519289,0 0.361245,0 0.835379,0 0.474134,0 0.948268,0 0.485422,0 0.869245,0 0.395112,0 0.587023,0 0.519289,0 0.778934,-0.18062 0.270934,-0.18062 0.383823,-0.66604 0.112889,-0.48543 0.180622,-1.38854 0.1016,0.0677 0.237067,0.13547 0.135467,0.0677 0.270934,0.12418 0.135466,0.0451 0.237066,0.0677 -0.07902,0.99342 -0.259644,1.58045 -0.180623,0.57573 -0.598312,0.8128 -0.417689,0.24835 -1.23049,0.24835 -0.1016,0 -0.383823,0 -0.270933,0 -0.666045,0 -0.395111,0 -0.82409,0 -0.428978,0 -0.824089,0 -0.383823,0 -0.666045,0 -0.270934,0 -0.361245,0 -0.790223,0 -1.241779,-0.14675 -0.451556,-0.13547 -0.632179,-0.508 -0.180622,-0.37254 -0.180622,-1.06116 z"
         style="font-family:'思源黑体 VF';-inkscape-font-specification:'思源黑体 VF Bold'"
         id="path3010" />
      <path
         d="m 68.18596,375.66864 q -0.282223,0 -0.496712,-0.2032 -0.2032,-0.2032 -0.2032,-0.51929 0,-0.33867 0.2032,-0.54187 0.214489,-0.2032 0.496712,-0.2032 0.282222,0 0.485422,0.2032 0.203201,0.2032 0.203201,0.54187 0,0.31609 -0.203201,0.51929 -0.2032,0.2032 -0.485422,0.2032 z"
         style="font-family:'思源黑体 VF';-inkscape-font-specification:'思源黑体 VF Bold'"
         id="path3012" />
      <path
         d="m 71.279105,366.15209 v 0.33867 h -0.677334 v 0.67733 h -0.338667 v -1.016 z m 0.812801,0 h 1.016001 v 0.33867 h -1.016001 z m 1.828802,0 h 1.016001 v 0.33867 h -1.016001 z m 1.828802,0 h 1.016001 v 0.33867 H 75.74951 Z m 1.828802,0 h 1.016001 v 0.33867 h -1.016001 z m 2.844803,0 v 1.016 h -0.338667 v -0.67733 h -0.677334 v -0.33867 z m -9.821344,2.84481 h -0.338667 v -1.016 h 0.338667 z m 9.482677,-1.016 h 0.338667 v 1.016 h -0.338667 z m -9.482677,2.8448 h -0.338667 v -1.016 h 0.338667 z m 9.482677,-1.016 h 0.338667 v 1.016 h -0.338667 z m -9.482677,2.8448 h -0.338667 v -1.016 h 0.338667 z m 9.482677,-1.016 h 0.338667 v 1.016 h -0.338667 z m -9.482677,2.8448 h -0.338667 v -1.016 h 0.338667 z m 9.482677,-1.016 h 0.338667 v 1.016 h -0.338667 z m -9.482677,2.50614 h 0.677334 v 0.33866 h -1.016001 v -1.016 h 0.338667 z m 9.482677,-0.67734 h 0.338667 v 1.016 h -1.016001 v -0.33866 h 0.677334 z m -7.992542,0.67734 h 1.016001 v 0.33866 h -1.016001 z m 1.828802,0 h 1.016001 v 0.33866 h -1.016001 z m 1.828802,0 h 1.016001 v 0.33866 H 75.74951 Z m 1.828802,0 h 1.016001 v 0.33866 h -1.016001 z m -1.727202,-4.91067 v 0.33866 h -1.016001 v -0.33866 z m 1.828802,0 v 0.33866 h -1.016001 v -0.33866 z m 1.828802,0 v 0.33866 h -1.016001 v -0.33866 z m -7.315208,0 v 0.33866 h -1.016001 v -0.33866 z m 1.828802,0 v 0.33866 h -1.016001 v -0.33866 z"
         style="font-family:'思源黑体 VF';-inkscape-font-specification:'思源黑体 VF Bold'"
         id="path3014" />
      <path
         d="m 82.466408,367.25841 h 8.376364 v 8.79405 h -0.812801 v -8.0377 h -6.784629 v 8.10543 h -0.778934 z m 0.338667,7.112 h 7.80063 v 0.76765 h -7.80063 z"
         style="font-family:'思源黑体 VF';-inkscape-font-specification:'思源黑体 VF Bold'"
         id="path3016" />
      <path
         d="m 93.800466,375.66864 q -0.282223,0 -0.496712,-0.2032 -0.2032,-0.2032 -0.2032,-0.51929 0,-0.33867 0.2032,-0.54187 0.214489,-0.2032 0.496712,-0.2032 0.282222,0 0.485422,0.2032 0.2032,0.2032 0.2032,0.54187 0,0.31609 -0.2032,0.51929 -0.2032,0.2032 -0.485422,0.2032 z"
         style="font-family:'思源黑体 VF';-inkscape-font-specification:'思源黑体 VF Bold'"
         id="path3018" />
      <path
         d="m 96.893615,366.15209 v 0.33867 h -0.677334 v 0.67733 h -0.338667 v -1.016 z m 0.812801,0 h 1.016001 v 0.33867 h -1.016001 z m 1.828802,0 h 1.016002 v 0.33867 h -1.016002 z m 1.828802,0 h 1.016 v 0.33867 h -1.016 z m 1.8288,0 h 1.016 v 0.33867 h -1.016 z m 2.8448,0 v 1.016 h -0.33866 v -0.67733 h -0.67734 v -0.33867 z m -9.821339,2.84481 h -0.338667 v -1.016 h 0.338667 z m 9.482679,-1.016 h 0.33866 v 1.016 h -0.33866 z m -9.482679,2.8448 h -0.338667 v -1.016 h 0.338667 z m 9.482679,-1.016 h 0.33866 v 1.016 h -0.33866 z m -9.482679,2.8448 h -0.338667 v -1.016 h 0.338667 z m 9.482679,-1.016 h 0.33866 v 1.016 h -0.33866 z m -9.482679,2.8448 h -0.338667 v -1.016 h 0.338667 z m 9.482679,-1.016 h 0.33866 v 1.016 h -0.33866 z m -9.482679,2.50614 h 0.677334 v 0.33866 h -1.016001 v -1.016 h 0.338667 z m 9.482679,-0.67734 h 0.33866 v 1.016 h -1.016 v -0.33866 h 0.67734 z m -7.992544,0.67734 h 1.016001 v 0.33866 h -1.016001 z m 1.828802,0 h 1.016002 v 0.33866 h -1.016002 z m 1.828802,0 h 1.016 v 0.33866 h -1.016 z m 1.8288,0 h 1.016 v 0.33866 h -1.016 z m -2.06587,-4.23334 h -0.33866 v -1.016 h 0.33866 z m 0,1.8288 h -0.33866 v -1.016 h 0.33866 z m 0,1.8288 h -0.33866 v -1.016 h 0.33866 z m 0,-7.3152 h -0.33866 v -1.01601 h 0.33866 z m 0,1.8288 h -0.33866 v -1.016 h 0.33866 z"
         style="font-family:'思源黑体 VF';-inkscape-font-specification:'思源黑体 VF Bold'"
         id="path3020" />
      <path
         d="m 108.18251,366.15209 v 0.33867 h -0.67733 v 0.67733 h -0.33867 v -1.016 z m 0.8128,0 h 1.016 v 0.33867 h -1.016 z m 1.8288,0 h 1.016 v 0.33867 h -1.016 z m 1.8288,0 h 1.01601 v 0.33867 h -1.01601 z m 1.82881,0 h 1.016 v 0.33867 h -1.016 z m 2.8448,0 v 1.016 h -0.33867 v -0.67733 h -0.67733 v -0.33867 z m -9.82134,2.84481 h -0.33867 v -1.016 h 0.33867 z m 9.48267,-1.016 h 0.33867 v 1.016 h -0.33867 z m -9.48267,2.8448 h -0.33867 v -1.016 h 0.33867 z m 9.48267,-1.016 h 0.33867 v 1.016 h -0.33867 z m -9.48267,2.8448 h -0.33867 v -1.016 h 0.33867 z m 9.48267,-1.016 h 0.33867 v 1.016 h -0.33867 z m -9.48267,2.8448 h -0.33867 v -1.016 h 0.33867 z m 9.48267,-1.016 h 0.33867 v 1.016 h -0.33867 z m -9.48267,2.50614 h 0.67733 v 0.33866 h -1.016 v -1.016 h 0.33867 z m 9.48267,-0.67734 h 0.33867 v 1.016 h -1.016 v -0.33866 h 0.67733 z m -7.99254,0.67734 h 1.016 v 0.33866 h -1.016 z m 1.8288,0 h 1.016 v 0.33866 h -1.016 z m 1.8288,0 h 1.01601 v 0.33866 h -1.01601 z m 1.82881,0 h 1.016 v 0.33866 h -1.016 z m -1.72721,-4.91067 v 0.33866 h -1.016 v -0.33866 z m 1.82881,0 v 0.33866 h -1.016 v -0.33866 z m 1.8288,0 v 0.33866 h -1.016 v -0.33866 z m -7.31521,0 v 0.33866 h -1.016 v -0.33866 z m 1.8288,0 v 0.33866 h -1.016 v -0.33866 z"
         style="font-family:'思源黑体 VF';-inkscape-font-specification:'思源黑体 VF Bold'"
         id="path3022" />
      <path
         d="m 119.2795,375.04775 v 0.82409 h 7.05556 v -0.82409 z m -0.88053,-4.28978 v 0.82408 h 10.2729 v -0.82408 z m 1.1176,-4.00756 v 0.82409 h 6.32178 v 8.85049 h 0.89182 v -9.67458 z"
         style="font-weight:normal;font-family:'Source Han Sans K VF';-inkscape-font-specification:'Source Han Sans K VF'"
         id="path3024" />
      <path
         d="m 130.5684,375.04775 v 0.82409 h 7.05557 v -0.82409 z m -0.88053,-4.28978 v 0.82408 h 10.2729 v -0.82408 z m 1.1176,-4.00756 v 0.82409 h 6.32178 v 8.85049 h 0.89183 v -9.67458 z"
         style="font-weight:normal;font-family:'Source Han Sans K VF';-inkscape-font-specification:'Source Han Sans K VF'"
         id="path3026" />
      <path
         d="m 142.79428,369.44845 h 6.604 v 0.72249 h -6.604 z m 0,2.68676 h 6.604 v 0.72249 h -6.604 z m 0,2.69805 h 6.604 v 0.73378 h -6.604 z m -0.508,-8.06028 h 7.59743 v 9.58428 h -0.79023 v -8.83921 h -6.05085 v 8.83921 h -0.75635 z"
         style="font-family:'思源黑体 VF';-inkscape-font-specification:'思源黑体 VF Bold'"
         id="path3028" />
    </g>
    <g
       aria-label="⿱⺈⿻[1:]乚⿱口⿰　目"
       id="text2192-7-0-7-5-0-0"
       style="font-weight:bold;font-size:11.2889px;font-family:'Sarasa Mono CL';-inkscape-font-specification:'Sarasa Mono CL Bold';stroke-width:3;stroke-dasharray:12, 3">
      <path
         d="m 6.3792565,383.25775 v 0.33866 h -0.677334 v 0.67734 h -0.338667 v -1.016 z m 0.8128009,0 h 1.016001 v 0.33866 h -1.016001 z m 1.8288018,0 H 10.03686 v 0.33866 H 9.0208592 Z m 1.8288018,0 h 1.016001 v 0.33866 h -1.016001 z m 1.828802,0 h 1.016001 v 0.33866 h -1.016001 z m 2.844803,0 v 1.016 h -0.338667 v -0.67734 h -0.677334 v -0.33866 z m -9.8213435,2.8448 h -0.338667 v -1.016 h 0.338667 z m 9.4826765,-1.016 h 0.338667 v 1.016 h -0.338667 z m -9.4826765,2.8448 h -0.338667 v -1.016 h 0.338667 z m 9.4826765,-1.016 h 0.338667 v 1.016 h -0.338667 z m -9.4826765,2.8448 h -0.338667 v -1.016 h 0.338667 z m 9.4826765,-1.016 h 0.338667 v 1.016 h -0.338667 z m -9.4826765,2.8448 h -0.338667 v -1.016 h 0.338667 z m 9.4826765,-1.016 h 0.338667 v 1.016 h -0.338667 z m -9.4826765,2.50614 h 0.677334 v 0.33867 h -1.016001 v -1.01601 h 0.338667 z m 9.4826765,-0.67734 h 0.338667 v 1.01601 h -1.016001 v -0.33867 h 0.677334 z m -7.9925416,0.67734 h 1.016001 v 0.33867 h -1.016001 z m 1.8288018,0 H 10.03686 v 0.33867 H 9.0208592 Z m 1.8288018,0 h 1.016001 v 0.33867 h -1.016001 z m 1.828802,0 h 1.016001 v 0.33867 h -1.016001 z m -1.727202,-4.91067 v 0.33866 H 9.9352602 v -0.33866 z m 1.828802,0 v 0.33866 h -1.016001 v -0.33866 z m 1.828802,0 v 0.33866 h -1.016001 v -0.33866 z m -7.3152075,0 v 0.33866 H 6.2776564 v -0.33866 z m 1.8288018,0 v 0.33866 h -1.016001 v -0.33866 z"
         style="font-family:'思源黑体 VF';-inkscape-font-specification:'思源黑体 VF Bold'"
         id="path2971" />
      <path
         d="m 20.862916,383.12228 0.869245,0.16933 q -0.383823,0.77894 -0.970845,1.56916 -0.587023,0.79022 -1.399824,1.51271 -0.812801,0.72249 -1.862669,1.3208 -0.04516,-0.1016 -0.146755,-0.22577 -0.09031,-0.12418 -0.191912,-0.22578 -0.09031,-0.11289 -0.180622,-0.18062 1.004712,-0.51929 1.761068,-1.18534 0.767646,-0.66604 1.298224,-1.37725 0.530578,-0.7112 0.82409,-1.37724 z m -0.04516,1.15147 h 3.736626 v 0.7112 h -4.278493 z m 3.556004,0 h 0.180622 l 0.135467,-0.0339 0.541867,0.34996 q -0.293511,0.59831 -0.722489,1.25306 -0.428979,0.64347 -0.903112,1.25307 -0.462845,0.59831 -0.891824,1.06116 -0.112889,-0.0903 -0.282222,-0.2032 -0.169334,-0.11289 -0.3048,-0.18062 0.417689,-0.44027 0.846667,-1.01601 0.428978,-0.58702 0.801512,-1.19662 0.372534,-0.62089 0.598312,-1.10631 z"
         style="font-family:'思源黑体 VF';-inkscape-font-specification:'思源黑体 VF Bold'"
         id="path2973" />
      <path
         d="m 27.941056,383.25775 h 1.016001 v 0.33866 h -0.677334 v 0.67734 h -0.338667 z m 1.828802,0 h 1.016001 v 0.33866 h -1.016001 z m 1.828802,0 h 1.016001 v 0.33866 H 31.59866 Z m 1.828802,0 h 1.016001 v 1.016 h -0.338667 v -0.67734 h -0.677334 z m -5.147739,2.8448 h -0.338667 v -1.016 h 0.338667 z m 5.825073,-1.016 h 0.338667 v 1.016 h -0.338667 z m -5.825073,2.8448 h -0.338667 v -1.016 h 0.338667 z m 4.334938,-1.016 v 0.33867 h -0.677334 v 0.67733 H 31.59866 v -1.016 z m 1.828802,0 v 1.016 h -0.338667 v -0.67733 h -0.677334 v -0.33867 z m 0.812801,0 h 1.016001 v 0.33867 h -1.016001 z m 2.844803,0 v 1.016 H 37.7624 v -0.67733 h -0.677334 v -0.33867 z m -9.821344,2.50614 h 0.677334 v 0.33866 h -1.016001 v -1.016 h 0.338667 z m 3.657604,0 h 0.677334 v 0.33866 H 31.59866 v -1.016 h 0.338667 z m 2.167469,-0.67734 h 0.338667 v 1.016 h -1.016001 v -0.33866 h 0.677334 z m 3.657604,0 h 0.338667 v 1.016 H 37.7624 Z m -7.992542,0.67734 h 1.016001 v 0.33866 h -1.016001 z m 2.167469,2.16746 H 31.59866 v -1.016 h 0.338667 z m 5.825073,-1.016 h 0.338667 v 1.016 H 37.7624 Z m -5.825073,2.50614 h 0.677334 v 0.33867 H 31.59866 v -1.01601 h 0.338667 z m 5.825073,-0.67734 h 0.338667 v 1.01601 h -1.016001 v -0.33867 H 37.7624 Z m -4.334938,0.67734 h 1.016001 v 0.33867 h -1.016001 z m 1.828802,0 h 1.016001 v 0.33867 h -1.016001 z"
         style="font-family:'思源黑体 VF';-inkscape-font-specification:'思源黑体 VF Bold'"
         id="path2975" />
      <path
         d="M 39.862133,394.53536 V 383.7093 h 2.178758 v 0.54187 h -1.478846 v 9.75361 h 1.478846 v 0.53058 z"
         style="font-family:'思源黑体 VF';-inkscape-font-specification:'思源黑体 VF Bold'"
         id="path2977" />
      <path
         d="m 43.418133,392.62753 v -0.77893 h 1.851379 v -6.32179 h -1.478846 v -0.59831 q 0.541868,-0.0903 0.948268,-0.22578 0.4064,-0.14675 0.72249,-0.33866 h 0.7112 v 7.48454 h 1.682046 v 0.77893 z"
         style="font-family:'思源黑体 VF';-inkscape-font-specification:'思源黑体 VF Bold'"
         id="path2979" />
      <path
         d="m 50.123734,388.16842 q -0.282222,0 -0.496711,-0.19191 -0.2032,-0.2032 -0.2032,-0.53058 0,-0.33867 0.2032,-0.54187 0.214489,-0.2032 0.496711,-0.2032 0.282223,0 0.485423,0.2032 0.2032,0.2032 0.2032,0.54187 0,0.32738 -0.2032,0.53058 -0.2032,0.19191 -0.485423,0.19191 z m 0,4.60587 q -0.282222,0 -0.496711,-0.2032 -0.2032,-0.2032 -0.2032,-0.51929 0,-0.33867 0.2032,-0.54187 0.214489,-0.2032 0.496711,-0.2032 0.282223,0 0.485423,0.2032 0.2032,0.2032 0.2032,0.54187 0,0.31609 -0.2032,0.51929 -0.2032,0.2032 -0.485423,0.2032 z"
         style="font-family:'思源黑体 VF';-inkscape-font-specification:'思源黑体 VF Bold'"
         id="path2981" />
      <path
         d="m 51.997683,394.53536 v -0.53058 h 1.490135 v -9.75361 h -1.490135 v -0.54187 h 2.178757 v 10.82606 z"
         style="font-family:'思源黑体 VF';-inkscape-font-specification:'思源黑体 VF Bold'"
         id="path2983" />
      <path
         d="m 57.529236,383.63028 h 0.767645 v 7.59743 q 0,0.38382 0.09031,0.59831 0.1016,0.2032 0.372534,0.28222 0.270934,0.079 0.790223,0.079 0.158045,0 0.519289,0 0.361245,0 0.835379,0 0.474134,0 0.948268,0 0.485422,0 0.869245,0 0.395112,0 0.587023,0 0.519289,0 0.778934,-0.18063 0.270934,-0.18062 0.383823,-0.66604 0.112889,-0.48542 0.180622,-1.38854 0.1016,0.0677 0.237067,0.13547 0.135467,0.0677 0.270934,0.12418 0.135466,0.0452 0.237066,0.0677 -0.07902,0.99342 -0.259644,1.58045 -0.180623,0.57573 -0.598312,0.8128 -0.417689,0.24835 -1.23049,0.24835 -0.1016,0 -0.383823,0 -0.270933,0 -0.666045,0 -0.395111,0 -0.82409,0 -0.428978,0 -0.824089,0 -0.383823,0 -0.666045,0 -0.270934,0 -0.361245,0 -0.790223,0 -1.241779,-0.14675 -0.451556,-0.13547 -0.632179,-0.508 -0.180622,-0.37254 -0.180622,-1.06116 z"
         style="font-family:'思源黑体 VF';-inkscape-font-specification:'思源黑体 VF Bold'"
         id="path2985" />
      <path
         d="m 68.242404,383.25775 v 0.33866 H 67.56507 v 0.67734 h -0.338667 v -1.016 z m 0.812801,0 h 1.016001 v 0.33866 h -1.016001 z m 1.828802,0 h 1.016001 v 0.33866 h -1.016001 z m 1.828802,0 h 1.016001 v 0.33866 h -1.016001 z m 1.828802,0 h 1.016001 v 0.33866 h -1.016001 z m 2.844803,0 v 1.016 h -0.338667 v -0.67734 h -0.677334 v -0.33866 z m -9.821344,2.8448 h -0.338667 v -1.016 h 0.338667 z m 9.482677,-1.016 h 0.338667 v 1.016 h -0.338667 z m -9.482677,2.8448 h -0.338667 v -1.016 h 0.338667 z m 9.482677,-1.016 h 0.338667 v 1.016 h -0.338667 z m -9.482677,2.8448 h -0.338667 v -1.016 h 0.338667 z m 9.482677,-1.016 h 0.338667 v 1.016 h -0.338667 z m -9.482677,2.8448 h -0.338667 v -1.016 h 0.338667 z m 9.482677,-1.016 h 0.338667 v 1.016 h -0.338667 z m -9.482677,2.50614 h 0.677334 v 0.33867 h -1.016001 v -1.01601 h 0.338667 z m 9.482677,-0.67734 h 0.338667 v 1.01601 h -1.016001 v -0.33867 h 0.677334 z m -7.992542,0.67734 h 1.016001 v 0.33867 h -1.016001 z m 1.828802,0 h 1.016001 v 0.33867 h -1.016001 z m 1.828802,0 h 1.016001 v 0.33867 h -1.016001 z m 1.828802,0 h 1.016001 v 0.33867 h -1.016001 z m -1.727202,-4.91067 v 0.33866 h -1.016001 v -0.33866 z m 1.828802,0 v 0.33866 H 73.62721 v -0.33866 z m 1.828802,0 v 0.33866 h -1.016001 v -0.33866 z m -7.315208,0 v 0.33866 h -1.016001 v -0.33866 z m 1.828802,0 v 0.33866 h -1.016001 v -0.33866 z"
         style="font-family:'思源黑体 VF';-inkscape-font-specification:'思源黑体 VF Bold'"
         id="path2987" />
      <path
         d="m 79.429703,384.36406 h 8.376364 v 8.79405 h -0.812801 v -8.0377 h -6.784629 v 8.10543 h -0.778934 z m 0.338667,7.11201 H 87.569 v 0.76764 h -7.80063 z"
         style="font-family:'思源黑体 VF';-inkscape-font-specification:'思源黑体 VF Bold'"
         id="path2989" />
      <path
         d="m 90.820205,383.25775 v 0.33866 h -0.677334 v 0.67734 h -0.338667 v -1.016 z m 0.812801,0 h 1.016001 v 0.33866 h -1.016001 z m 1.828802,0 h 1.016001 v 0.33866 h -1.016001 z m 1.828802,0 h 1.016001 v 0.33866 H 95.29061 Z m 1.828801,0 h 1.016001 v 0.33866 h -1.016001 z m 2.844803,0 v 1.016 h -0.338667 v -0.67734 h -0.677334 v -0.33866 z m -9.821343,2.8448 h -0.338667 v -1.016 h 0.338667 z m 9.482676,-1.016 h 0.338667 v 1.016 h -0.338667 z m -9.482676,2.8448 h -0.338667 v -1.016 h 0.338667 z m 9.482676,-1.016 h 0.338667 v 1.016 h -0.338667 z m -9.482676,2.8448 h -0.338667 v -1.016 h 0.338667 z m 9.482676,-1.016 h 0.338667 v 1.016 h -0.338667 z m -9.482676,2.8448 h -0.338667 v -1.016 h 0.338667 z m 9.482676,-1.016 h 0.338667 v 1.016 h -0.338667 z m -9.482676,2.50614 h 0.677334 v 0.33867 h -1.016001 v -1.01601 h 0.338667 z m 9.482676,-0.67734 h 0.338667 v 1.01601 h -1.016001 v -0.33867 h 0.677334 z m -7.992541,0.67734 h 1.016001 v 0.33867 h -1.016001 z m 1.828802,0 h 1.016001 v 0.33867 h -1.016001 z m 1.828802,0 h 1.016001 v 0.33867 H 95.29061 Z m 1.828801,0 h 1.016001 v 0.33867 h -1.016001 z m -2.065868,-4.23334 h -0.338667 v -1.016 h 0.338667 z m 0,1.8288 h -0.338667 v -1.016 h 0.338667 z m 0,1.82881 h -0.338667 v -1.01601 h 0.338667 z m 0,-7.31521 h -0.338667 v -1.016 h 0.338667 z m 0,1.8288 h -0.338667 v -1.016 h 0.338667 z"
         style="font-family:'思源黑体 VF';-inkscape-font-specification:'思源黑体 VF Bold'"
         id="path2991" />
      <path
         d="m 114.14307,386.5541 h 6.60401 v 0.72249 h -6.60401 z m 0,2.68676 h 6.60401 v 0.72249 h -6.60401 z m 0,2.69805 h 6.60401 v 0.73378 h -6.60401 z m -0.508,-8.06027 h 7.59743 v 9.58427 h -0.79022 v -8.83921 h -6.05085 v 8.83921 h -0.75636 z"
         style="font-family:'思源黑体 VF';-inkscape-font-specification:'思源黑体 VF Bold'"
         id="path2993" />
    </g>
    <g
       aria-label="⿱⺈⿻[1:]乚⿱口"
       id="text2192-7-0-7-5-3-0-4"
       style="font-weight:bold;font-size:11.2889px;font-family:'Sarasa Mono CL';-inkscape-font-specification:'Sarasa Mono CL Bold';stroke-width:3;stroke-dasharray:12, 3">
      <path
         d="m 6.3792565,399.74246 v 0.33866 h -0.677334 v 0.67734 h -0.338667 v -1.016 z m 0.8128009,0 h 1.016001 v 0.33866 h -1.016001 z m 1.8288018,0 H 10.03686 v 0.33866 H 9.0208592 Z m 1.8288018,0 h 1.016001 v 0.33866 h -1.016001 z m 1.828802,0 h 1.016001 v 0.33866 h -1.016001 z m 2.844803,0 v 1.016 h -0.338667 v -0.67734 h -0.677334 v -0.33866 z m -9.8213435,2.8448 h -0.338667 v -1.016 h 0.338667 z m 9.4826765,-1.016 h 0.338667 v 1.016 h -0.338667 z m -9.4826765,2.8448 h -0.338667 v -1.016 h 0.338667 z m 9.4826765,-1.016 h 0.338667 v 1.016 h -0.338667 z m -9.4826765,2.8448 h -0.338667 v -1.016 h 0.338667 z m 9.4826765,-1.016 h 0.338667 v 1.016 h -0.338667 z m -9.4826765,2.8448 h -0.338667 v -1.016 h 0.338667 z m 9.4826765,-1.016 h 0.338667 v 1.016 h -0.338667 z m -9.4826765,2.50614 h 0.677334 v 0.33867 h -1.016001 v -1.016 h 0.338667 z m 9.4826765,-0.67733 h 0.338667 v 1.016 h -1.016001 v -0.33867 h 0.677334 z m -7.9925416,0.67733 h 1.016001 v 0.33867 h -1.016001 z m 1.8288018,0 H 10.03686 v 0.33867 H 9.0208592 Z m 1.8288018,0 h 1.016001 v 0.33867 h -1.016001 z m 1.828802,0 h 1.016001 v 0.33867 h -1.016001 z m -1.727202,-4.91067 v 0.33867 H 9.9352602 v -0.33867 z m 1.828802,0 v 0.33867 h -1.016001 v -0.33867 z m 1.828802,0 v 0.33867 h -1.016001 v -0.33867 z m -7.3152075,0 v 0.33867 H 6.2776564 v -0.33867 z m 1.8288018,0 v 0.33867 h -1.016001 v -0.33867 z"
         style="font-family:'思源黑体 VF';-inkscape-font-specification:'思源黑体 VF Bold'"
         id="path2950" />
      <path
         d="m 20.862916,399.60699 0.869245,0.16933 q -0.383823,0.77894 -0.970845,1.56916 -0.587023,0.79022 -1.399824,1.51271 -0.812801,0.72249 -1.862669,1.3208 -0.04516,-0.1016 -0.146755,-0.22577 -0.09031,-0.12418 -0.191912,-0.22578 -0.09031,-0.11289 -0.180622,-0.18062 1.004712,-0.51929 1.761068,-1.18534 0.767646,-0.66604 1.298224,-1.37724 0.530578,-0.71121 0.82409,-1.37725 z m -0.04516,1.15147 h 3.736626 v 0.7112 h -4.278493 z m 3.556004,0 h 0.180622 l 0.135467,-0.0339 0.541867,0.34996 q -0.293511,0.59831 -0.722489,1.25306 -0.428979,0.64347 -0.903112,1.25307 -0.462845,0.59831 -0.891824,1.06116 -0.112889,-0.0903 -0.282222,-0.2032 -0.169334,-0.11289 -0.3048,-0.18062 0.417689,-0.44027 0.846667,-1.016 0.428978,-0.58703 0.801512,-1.19663 0.372534,-0.62089 0.598312,-1.10631 z"
         style="font-family:'思源黑体 VF';-inkscape-font-specification:'思源黑体 VF Bold'"
         id="path2952" />
      <path
         d="m 27.941056,399.74246 h 1.016001 v 0.33866 h -0.677334 v 0.67734 h -0.338667 z m 1.828802,0 h 1.016001 v 0.33866 h -1.016001 z m 1.828802,0 h 1.016001 v 0.33866 H 31.59866 Z m 1.828802,0 h 1.016001 v 1.016 h -0.338667 v -0.67734 h -0.677334 z m -5.147739,2.8448 h -0.338667 v -1.016 h 0.338667 z m 5.825073,-1.016 h 0.338667 v 1.016 h -0.338667 z m -5.825073,2.8448 h -0.338667 v -1.016 h 0.338667 z m 4.334938,-1.016 v 0.33867 h -0.677334 v 0.67733 H 31.59866 v -1.016 z m 1.828802,0 v 1.016 h -0.338667 v -0.67733 h -0.677334 v -0.33867 z m 0.812801,0 h 1.016001 v 0.33867 h -1.016001 z m 2.844803,0 v 1.016 H 37.7624 v -0.67733 h -0.677334 v -0.33867 z m -9.821344,2.50614 h 0.677334 v 0.33866 h -1.016001 v -1.016 h 0.338667 z m 3.657604,0 h 0.677334 v 0.33866 H 31.59866 v -1.016 h 0.338667 z m 2.167469,-0.67734 h 0.338667 v 1.016 h -1.016001 v -0.33866 h 0.677334 z m 3.657604,0 h 0.338667 v 1.016 H 37.7624 Z m -7.992542,0.67734 h 1.016001 v 0.33866 h -1.016001 z m 2.167469,2.16746 H 31.59866 v -1.016 h 0.338667 z m 5.825073,-1.016 h 0.338667 v 1.016 H 37.7624 Z m -5.825073,2.50614 h 0.677334 v 0.33867 H 31.59866 v -1.016 h 0.338667 z m 5.825073,-0.67733 h 0.338667 v 1.016 H 37.085066 V 409.5638 H 37.7624 Z m -4.334938,0.67733 h 1.016001 v 0.33867 h -1.016001 z m 1.828802,0 h 1.016001 v 0.33867 h -1.016001 z"
         style="font-family:'思源黑体 VF';-inkscape-font-specification:'思源黑体 VF Bold'"
         id="path2954" />
      <path
         d="m 39.862133,411.02007 v -10.82606 h 2.178758 v 0.54187 h -1.478846 v 9.75361 h 1.478846 v 0.53058 z"
         style="font-family:'思源黑体 VF';-inkscape-font-specification:'思源黑体 VF Bold'"
         id="path2956" />
      <path
         d="m 43.418133,409.11224 v -0.77893 h 1.851379 v -6.32178 h -1.478846 v -0.59832 q 0.541868,-0.0903 0.948268,-0.22577 0.4064,-0.14676 0.72249,-0.33867 h 0.7112 v 7.48454 h 1.682046 v 0.77893 z"
         style="font-family:'思源黑体 VF';-inkscape-font-specification:'思源黑体 VF Bold'"
         id="path2958" />
      <path
         d="m 50.123734,404.65313 q -0.282222,0 -0.496711,-0.19191 -0.2032,-0.2032 -0.2032,-0.53058 0,-0.33867 0.2032,-0.54187 0.214489,-0.2032 0.496711,-0.2032 0.282223,0 0.485423,0.2032 0.2032,0.2032 0.2032,0.54187 0,0.32738 -0.2032,0.53058 -0.2032,0.19191 -0.485423,0.19191 z m 0,4.60587 q -0.282222,0 -0.496711,-0.2032 -0.2032,-0.2032 -0.2032,-0.51929 0,-0.33867 0.2032,-0.54187 0.214489,-0.2032 0.496711,-0.2032 0.282223,0 0.485423,0.2032 0.2032,0.2032 0.2032,0.54187 0,0.31609 -0.2032,0.51929 -0.2032,0.2032 -0.485423,0.2032 z"
         style="font-family:'思源黑体 VF';-inkscape-font-specification:'思源黑体 VF Bold'"
         id="path2960" />
      <path
         d="m 51.997683,411.02007 v -0.53058 h 1.490135 v -9.75361 h -1.490135 v -0.54187 h 2.178757 v 10.82606 z"
         style="font-family:'思源黑体 VF';-inkscape-font-specification:'思源黑体 VF Bold'"
         id="path2962" />
      <path
         d="m 57.529236,400.11499 h 0.767645 v 7.59743 q 0,0.38382 0.09031,0.59831 0.1016,0.2032 0.372534,0.28222 0.270934,0.079 0.790223,0.079 0.158045,0 0.519289,0 0.361245,0 0.835379,0 0.474134,0 0.948268,0 0.485422,0 0.869245,0 0.395112,0 0.587023,0 0.519289,0 0.778934,-0.18063 0.270934,-0.18062 0.383823,-0.66604 0.112889,-0.48542 0.180622,-1.38854 0.1016,0.0677 0.237067,0.13547 0.135467,0.0677 0.270934,0.12418 0.135466,0.0452 0.237066,0.0677 -0.07902,0.99343 -0.259644,1.58045 -0.180623,0.57573 -0.598312,0.8128 -0.417689,0.24836 -1.23049,0.24836 -0.1016,0 -0.383823,0 -0.270933,0 -0.666045,0 -0.395111,0 -0.82409,0 -0.428978,0 -0.824089,0 -0.383823,0 -0.666045,0 -0.270934,0 -0.361245,0 -0.790223,0 -1.241779,-0.14676 -0.451556,-0.13547 -0.632179,-0.508 -0.180622,-0.37253 -0.180622,-1.06116 z"
         style="font-family:'思源黑体 VF';-inkscape-font-specification:'思源黑体 VF Bold'"
         id="path2964" />
      <path
         d="m 68.242404,399.74246 v 0.33866 H 67.56507 v 0.67734 h -0.338667 v -1.016 z m 0.812801,0 h 1.016001 v 0.33866 h -1.016001 z m 1.828802,0 h 1.016001 v 0.33866 h -1.016001 z m 1.828802,0 h 1.016001 v 0.33866 h -1.016001 z m 1.828802,0 h 1.016001 v 0.33866 h -1.016001 z m 2.844803,0 v 1.016 h -0.338667 v -0.67734 h -0.677334 v -0.33866 z m -9.821344,2.8448 h -0.338667 v -1.016 h 0.338667 z m 9.482677,-1.016 h 0.338667 v 1.016 h -0.338667 z m -9.482677,2.8448 h -0.338667 v -1.016 h 0.338667 z m 9.482677,-1.016 h 0.338667 v 1.016 h -0.338667 z m -9.482677,2.8448 h -0.338667 v -1.016 h 0.338667 z m 9.482677,-1.016 h 0.338667 v 1.016 h -0.338667 z m -9.482677,2.8448 h -0.338667 v -1.016 h 0.338667 z m 9.482677,-1.016 h 0.338667 v 1.016 h -0.338667 z m -9.482677,2.50614 h 0.677334 v 0.33867 h -1.016001 v -1.016 h 0.338667 z m 9.482677,-0.67733 h 0.338667 v 1.016 h -1.016001 v -0.33867 h 0.677334 z m -7.992542,0.67733 h 1.016001 v 0.33867 h -1.016001 z m 1.828802,0 h 1.016001 v 0.33867 h -1.016001 z m 1.828802,0 h 1.016001 v 0.33867 h -1.016001 z m 1.828802,0 h 1.016001 v 0.33867 h -1.016001 z m -1.727202,-4.91067 v 0.33867 h -1.016001 v -0.33867 z m 1.828802,0 v 0.33867 H 73.62721 v -0.33867 z m 1.828802,0 v 0.33867 h -1.016001 v -0.33867 z m -7.315208,0 v 0.33867 h -1.016001 v -0.33867 z m 1.828802,0 v 0.33867 h -1.016001 v -0.33867 z"
         style="font-family:'思源黑体 VF';-inkscape-font-specification:'思源黑体 VF Bold'"
         id="path2966" />
      <path
         d="m 79.429703,400.84877 h 8.376364 v 8.79405 h -0.812801 v -8.0377 h -6.784629 v 8.10544 h -0.778934 z m 0.338667,7.11201 H 87.569 v 0.76764 h -7.80063 z"
         style="font-family:'思源黑体 VF';-inkscape-font-specification:'思源黑体 VF Bold'"
         id="path2968" />
    </g>
    <g
       aria-label="⿱⺈⿻[1:]乚"
       id="text2192-7-0-7-5-3-5-9-8"
       style="font-weight:bold;font-size:11.2889px;font-family:'Sarasa Mono CL';-inkscape-font-specification:'Sarasa Mono CL Bold';display:inline;stroke-width:3;stroke-dasharray:12, 3">
      <path
         d="m 6.3792565,416.22717 v 0.33866 h -0.677334 v 0.67734 h -0.338667 v -1.016 z m 0.8128009,0 h 1.016001 v 0.33866 h -1.016001 z m 1.8288018,0 H 10.03686 v 0.33866 H 9.0208592 Z m 1.8288018,0 h 1.016001 v 0.33866 h -1.016001 z m 1.828802,0 h 1.016001 v 0.33866 h -1.016001 z m 2.844803,0 v 1.016 h -0.338667 v -0.67734 h -0.677334 v -0.33866 z m -9.8213435,2.8448 h -0.338667 v -1.016 h 0.338667 z m 9.4826765,-1.016 h 0.338667 v 1.016 h -0.338667 z m -9.4826765,2.8448 h -0.338667 v -1.016 h 0.338667 z m 9.4826765,-1.016 h 0.338667 v 1.016 h -0.338667 z m -9.4826765,2.8448 h -0.338667 v -1.016 h 0.338667 z m 9.4826765,-1.016 h 0.338667 v 1.016 h -0.338667 z m -9.4826765,2.84481 h -0.338667 v -1.01601 h 0.338667 z m 9.4826765,-1.01601 h 0.338667 v 1.01601 h -0.338667 z m -9.4826765,2.50614 h 0.677334 v 0.33867 h -1.016001 v -1.016 h 0.338667 z m 9.4826765,-0.67733 h 0.338667 v 1.016 h -1.016001 v -0.33867 h 0.677334 z m -7.9925416,0.67733 h 1.016001 v 0.33867 h -1.016001 z m 1.8288018,0 H 10.03686 v 0.33867 H 9.0208592 Z m 1.8288018,0 h 1.016001 v 0.33867 h -1.016001 z m 1.828802,0 h 1.016001 v 0.33867 h -1.016001 z m -1.727202,-4.91067 v 0.33867 H 9.9352602 v -0.33867 z m 1.828802,0 v 0.33867 h -1.016001 v -0.33867 z m 1.828802,0 v 0.33867 h -1.016001 v -0.33867 z m -7.3152075,0 v 0.33867 H 6.2776564 v -0.33867 z m 1.8288018,0 v 0.33867 h -1.016001 v -0.33867 z"
         style="font-family:'思源黑体 VF';-inkscape-font-specification:'思源黑体 VF Bold'"
         id="path2933" />
      <path
         d="m 20.862916,416.0917 0.869245,0.16933 q -0.383823,0.77894 -0.970845,1.56916 -0.587023,0.79022 -1.399824,1.51271 -0.812801,0.72249 -1.862669,1.3208 -0.04516,-0.1016 -0.146755,-0.22577 -0.09031,-0.12418 -0.191912,-0.22578 -0.09031,-0.11289 -0.180622,-0.18062 1.004712,-0.51929 1.761068,-1.18534 0.767646,-0.66604 1.298224,-1.37724 0.530578,-0.7112 0.82409,-1.37725 z m -0.04516,1.15147 h 3.736626 v 0.7112 h -4.278493 z m 3.556004,0 h 0.180622 l 0.135467,-0.0339 0.541867,0.34996 q -0.293511,0.59831 -0.722489,1.25307 -0.428979,0.64346 -0.903112,1.25306 -0.462845,0.59831 -0.891824,1.06116 -0.112889,-0.0903 -0.282222,-0.2032 -0.169334,-0.11289 -0.3048,-0.18062 0.417689,-0.44027 0.846667,-1.016 0.428978,-0.58703 0.801512,-1.19663 0.372534,-0.62089 0.598312,-1.10631 z"
         style="font-family:'思源黑体 VF';-inkscape-font-specification:'思源黑体 VF Bold'"
         id="path2935" />
      <path
         d="m 27.941056,416.22717 h 1.016001 v 0.33866 h -0.677334 v 0.67734 h -0.338667 z m 1.828802,0 h 1.016001 v 0.33866 h -1.016001 z m 1.828802,0 h 1.016001 v 0.33866 H 31.59866 Z m 1.828802,0 h 1.016001 v 1.016 h -0.338667 v -0.67734 h -0.677334 z m -5.147739,2.8448 h -0.338667 v -1.016 h 0.338667 z m 5.825073,-1.016 h 0.338667 v 1.016 h -0.338667 z m -5.825073,2.8448 h -0.338667 v -1.016 h 0.338667 z m 4.334938,-1.016 v 0.33867 h -0.677334 v 0.67733 H 31.59866 v -1.016 z m 1.828802,0 v 1.016 h -0.338667 v -0.67733 h -0.677334 v -0.33867 z m 0.812801,0 h 1.016001 v 0.33867 h -1.016001 z m 2.844803,0 v 1.016 H 37.7624 v -0.67733 h -0.677334 v -0.33867 z m -9.821344,2.50614 h 0.677334 v 0.33866 h -1.016001 v -1.016 h 0.338667 z m 3.657604,0 h 0.677334 v 0.33866 H 31.59866 v -1.016 h 0.338667 z m 2.167469,-0.67734 h 0.338667 v 1.016 h -1.016001 v -0.33866 h 0.677334 z m 3.657604,0 h 0.338667 v 1.016 H 37.7624 Z m -7.992542,0.67734 h 1.016001 v 0.33866 h -1.016001 z m 2.167469,2.16747 H 31.59866 v -1.01601 h 0.338667 z m 5.825073,-1.01601 h 0.338667 v 1.01601 H 37.7624 Z m -5.825073,2.50614 h 0.677334 v 0.33867 H 31.59866 v -1.016 h 0.338667 z m 5.825073,-0.67733 h 0.338667 v 1.016 h -1.016001 v -0.33867 H 37.7624 Z m -4.334938,0.67733 h 1.016001 v 0.33867 h -1.016001 z m 1.828802,0 h 1.016001 v 0.33867 h -1.016001 z"
         style="font-family:'思源黑体 VF';-inkscape-font-specification:'思源黑体 VF Bold'"
         id="path2937" />
      <path
         d="m 39.862133,427.50478 v -10.82606 h 2.178758 v 0.54187 h -1.478846 v 9.75361 h 1.478846 v 0.53058 z"
         style="font-family:'思源黑体 VF';-inkscape-font-specification:'思源黑体 VF Bold'"
         id="path2939" />
      <path
         d="m 43.418133,425.59695 v -0.77893 h 1.851379 v -6.32178 h -1.478846 v -0.59832 q 0.541868,-0.0903 0.948268,-0.22577 0.4064,-0.14676 0.72249,-0.33867 h 0.7112 v 7.48454 h 1.682046 v 0.77893 z"
         style="font-family:'思源黑体 VF';-inkscape-font-specification:'思源黑体 VF Bold'"
         id="path2941" />
      <path
         d="m 50.123734,421.13784 q -0.282222,0 -0.496711,-0.19191 -0.2032,-0.2032 -0.2032,-0.53058 0,-0.33867 0.2032,-0.54187 0.214489,-0.2032 0.496711,-0.2032 0.282223,0 0.485423,0.2032 0.2032,0.2032 0.2032,0.54187 0,0.32738 -0.2032,0.53058 -0.2032,0.19191 -0.485423,0.19191 z m 0,4.60587 q -0.282222,0 -0.496711,-0.2032 -0.2032,-0.2032 -0.2032,-0.51929 0,-0.33867 0.2032,-0.54187 0.214489,-0.2032 0.496711,-0.2032 0.282223,0 0.485423,0.2032 0.2032,0.2032 0.2032,0.54187 0,0.31609 -0.2032,0.51929 -0.2032,0.2032 -0.485423,0.2032 z"
         style="font-family:'思源黑体 VF';-inkscape-font-specification:'思源黑体 VF Bold'"
         id="path2943" />
      <path
         d="m 51.997683,427.50478 v -0.53058 h 1.490135 v -9.75361 h -1.490135 v -0.54187 h 2.178757 v 10.82606 z"
         style="font-family:'思源黑体 VF';-inkscape-font-specification:'思源黑体 VF Bold'"
         id="path2945" />
      <path
         d="m 57.529236,416.5997 h 0.767645 v 7.59743 q 0,0.38382 0.09031,0.59831 0.1016,0.2032 0.372534,0.28222 0.270934,0.079 0.790223,0.079 0.158045,0 0.519289,0 0.361245,0 0.835379,0 0.474134,0 0.948268,0 0.485422,0 0.869245,0 0.395112,0 0.587023,0 0.519289,0 0.778934,-0.18063 0.270934,-0.18062 0.383823,-0.66604 0.112889,-0.48542 0.180622,-1.38854 0.1016,0.0677 0.237067,0.13547 0.135467,0.0677 0.270934,0.12418 0.135466,0.0452 0.237066,0.0677 -0.07902,0.99343 -0.259644,1.58045 -0.180623,0.57573 -0.598312,0.8128 -0.417689,0.24836 -1.23049,0.24836 -0.1016,0 -0.383823,0 -0.270933,0 -0.666045,0 -0.395111,0 -0.82409,0 -0.428978,0 -0.824089,0 -0.383823,0 -0.666045,0 -0.270934,0 -0.361245,0 -0.790223,0 -1.241779,-0.14676 -0.451556,-0.13547 -0.632179,-0.508 -0.180622,-0.37253 -0.180622,-1.06116 z"
         style="font-family:'思源黑体 VF';-inkscape-font-specification:'思源黑体 VF Bold'"
         id="path2947" />
    </g>
    <g
       aria-label="雪"
       id="text2373-2-8-68"
       style="font-size:11.2889px;font-family:'Source Han Sans K VF';-inkscape-font-specification:'Source Han Sans K VF';display:inline;stroke-width:3;stroke-dasharray:12, 3"
       transform="translate(-687.17207,364.47702)">
      <path
         d="m 789.19991,25.781272 v 0.654756 h 9.88908 v -0.654756 z m 1.10631,1.591735 v 0.688623 h 6.82979 v -0.688623 z m 0.2032,-3.206048 v 0.688623 h 6.26534 v 3.612448 h 0.85796 v -4.301071 z"
         id="path2375-8-6-4"
         sodipodi:nodetypes="ccccccccccccccccc" />
      <path
         d="m 789.19991,20.779583 v 0.654756 h 9.88908 v -0.654756 z m 1.10631,1.591735 v 0.688623 h 6.82979 v -0.688623 z m 0.2032,-3.206048 v 0.688623 h 6.26534 v 3.612448 h 0.85796 V 19.16527 Z"
         id="path2375-1-2-5-7"
         sodipodi:nodetypes="ccccccccccccccccc"
         style="font-size:11.2889px;font-family:'Source Han Sans K VF';-inkscape-font-specification:'Source Han Sans K VF';stroke-width:3;stroke-dasharray:12, 3" />
    </g>
    <g
       id="g3195-2-7"
       transform="translate(-326.44046,233.14794)">
      <path
         d="m 416.72033,173.81227 v 0.65476 h 4.58114 v -0.65476 z m 0.60975,1.59174 v 0.68862 h 3.05034 v -0.68862 z m 0.0747,-3.20605 v 0.68862 h 2.50821 v 3.61245 h 0.65005 v -4.30107 z"
         id="path2375-2-8-5-6-3"
         sodipodi:nodetypes="ccccccccccccccccc"
         style="font-size:11.2889px;font-family:'Source Han Sans K VF';-inkscape-font-specification:'Source Han Sans K VF';stroke-width:1.8191;stroke-dasharray:6.35288, 1.58822" />
      <path
         d="m 416.72033,168.81058 v 0.65476 h 4.58114 v -0.65476 z m 0.60975,1.59174 v 0.68862 h 3.05034 v -0.68862 z m 0.0747,-3.20605 v 0.68862 h 2.50821 v 3.61245 h 0.65005 v -4.30107 z"
         id="path2375-1-21-4-1-8-4"
         sodipodi:nodetypes="ccccccccccccccccc"
         style="font-size:11.2889px;font-family:'Source Han Sans K VF';-inkscape-font-specification:'Source Han Sans K VF';stroke-width:1.8191;stroke-dasharray:7.27643, 1.8191" />
      <path
         d="m 421.67981,167.26056 v 9.23847 h 0.75439 v -8.49429 h 2.89869 v 8.40924 h 0.77133 v -9.15342 z"
         id="path8887"
         style="font-size:11.2889px;font-family:'Source Han Sans K VF';-inkscape-font-specification:'Source Han Sans K VF';stroke-width:2.52263;stroke-dasharray:10.0905, 2.52263"
         sodipodi:nodetypes="ccccccccc" />
      <path
         d="m 422.02732,175.10635 v 0.78671 h 3.81415 v -0.78671 z"
         id="path8885"
         style="font-size:11.2889px;font-family:'Source Han Sans K VF';-inkscape-font-specification:'Source Han Sans K VF';stroke-width:2.52263;stroke-dasharray:10.0905, 2.52263" />
      <path
         d="m 422.06967,172.4273 v 0.76545 h 3.72092 v -0.76545 z"
         id="path8883"
         style="font-size:11.2889px;font-family:'Source Han Sans K VF';-inkscape-font-specification:'Source Han Sans K VF';stroke-width:2.52263;stroke-dasharray:10.0905, 2.52263" />
      <path
         d="m 422.09512,169.80141 v 0.76544 h 3.72091 v -0.76544 z"
         id="path8849"
         style="font-size:11.2889px;font-family:'Source Han Sans K VF';-inkscape-font-specification:'Source Han Sans K VF';stroke-width:2.52263;stroke-dasharray:10.0905, 2.52263" />
    </g>
    <g
       id="g3195-6-5"
       transform="matrix(1,0,0,0.87497071,-349.36104,272.54903)"
       inkscape:label="g3195-6-5">
      <path
         d="m 416.72033,173.63083 v 0.65476 h 4.58114 v -0.65476 z m 0.60975,1.59174 v 0.68862 h 3.05034 v -0.68862 z m 0.0747,-3.20605 v 0.68862 h 2.50821 v 3.61245 h 0.65005 v -4.30107 z"
         id="path2375-2-8-5-2-0"
         sodipodi:nodetypes="ccccccccccccccccc"
         style="font-size:11.2889px;font-family:'Source Han Sans K VF';-inkscape-font-specification:'Source Han Sans K VF';stroke-width:1.8191;stroke-dasharray:6.35288, 1.58822" />
      <path
         d="m 416.72033,168.89902 v 0.65476 h 4.58114 v -0.65476 z m 0.60975,1.59174 v 0.68862 h 3.05034 v -0.68862 z m 0.0747,-3.20605 v 0.68862 h 2.50821 v 3.61245 h 0.65005 v -4.30107 z"
         id="path2375-1-21-4-1-5-7"
         sodipodi:nodetypes="ccccccccccccccccc"
         style="font-size:11.2889px;font-family:'Source Han Sans K VF';-inkscape-font-specification:'Source Han Sans K VF';stroke-width:1.8191;stroke-dasharray:7.27643, 1.8191" />
      <path
         d="m 421.71866,167.30409 v 9.10627 h 0.75439 v -8.25575 h 2.89869 v 8.15855 h 0.77133 v -9.00907 z"
         id="path8887-3"
         style="font-size:11.2889px;font-family:'Source Han Sans K VF';-inkscape-font-specification:'Source Han Sans K VF';stroke-width:2.69685;stroke-dasharray:10.7874, 2.69685"
         sodipodi:nodetypes="ccccccccc" />
      <path
         d="m 422.0619,174.87601 v 0.89912 h 3.81415 v -0.89912 z"
         id="path8885-8"
         style="font-size:11.2889px;font-family:'Source Han Sans K VF';-inkscape-font-specification:'Source Han Sans K VF';stroke-width:2.69685;stroke-dasharray:10.7874, 2.69685" />
      <path
         d="m 422.0918,172.29187 v 0.87483 h 3.72092 v -0.87483 z"
         id="path8883-6"
         style="font-size:11.2889px;font-family:'Source Han Sans K VF';-inkscape-font-specification:'Source Han Sans K VF';stroke-width:2.69685;stroke-dasharray:10.7874, 2.69685" />
      <path
         d="m 422.13397,169.80671 v 0.87481 h 3.72091 v -0.87481 z"
         id="path8849-9"
         style="font-size:11.2889px;font-family:'Source Han Sans K VF';-inkscape-font-specification:'Source Han Sans K VF';stroke-width:2.69685;stroke-dasharray:10.7874, 2.69685" />
      <path
         id="path3541-4-8-4"
         style="font-size:11.2889px;font-family:'Source Han Sans SC VF';-inkscape-font-specification:'Source Han Sans SC VF';display:inline;stroke-width:2.63845;stroke-dasharray:10.5538, 2.63845"
         d="m 417.46132,163.7877 v 0.78137 1.96141 h 7.50238 0.81649 v -2.74278 h -0.81649 z m 0.81648,0.78137 h 6.6859 v 1.17945 h -6.6859 z"
         sodipodi:nodetypes="ccccccccccccc" />
    </g>
    <g
       id="g3195-6-5-4"
       transform="matrix(4.2164086,0,0,3.689234,-1614.6627,-198.67591)"
       inkscape:label="g3195-6-5">
      <path
         d="m 416.72033,173.63083 v 0.65476 h 4.58114 v -0.65476 z m 0.60975,1.59174 v 0.68862 h 3.05034 v -0.68862 z m 0.0747,-3.20605 v 0.68862 h 2.50821 v 3.61245 h 0.65005 v -4.30107 z"
         id="path2375-2-8-5-2-0-1"
         sodipodi:nodetypes="ccccccccccccccccc"
         style="font-size:11.2889px;font-family:'Source Han Sans K VF';-inkscape-font-specification:'Source Han Sans K VF';stroke-width:1.8191;stroke-dasharray:6.35288, 1.58822" />
      <path
         d="m 416.72033,168.89902 v 0.65476 h 4.58114 v -0.65476 z m 0.60975,1.59174 v 0.68862 h 3.05034 v -0.68862 z m 0.0747,-3.20605 v 0.68862 h 2.50821 v 3.61245 h 0.65005 v -4.30107 z"
         id="path2375-1-21-4-1-5-7-5"
         sodipodi:nodetypes="ccccccccccccccccc"
         style="font-size:11.2889px;font-family:'Source Han Sans K VF';-inkscape-font-specification:'Source Han Sans K VF';stroke-width:1.8191;stroke-dasharray:7.27643, 1.8191" />
      <path
         d="m 421.71866,167.30409 v 9.10627 h 0.75439 v -8.25575 h 2.89869 v 8.15855 h 0.77133 v -9.00907 z"
         id="path8887-3-28"
         style="font-size:11.2889px;font-family:'Source Han Sans K VF';-inkscape-font-specification:'Source Han Sans K VF';stroke-width:2.69685;stroke-dasharray:10.7874, 2.69685"
         sodipodi:nodetypes="ccccccccc" />
      <path
         d="m 422.0619,174.87601 v 0.89912 h 3.81415 v -0.89912 z"
         id="path8885-8-9"
         style="font-size:11.2889px;font-family:'Source Han Sans K VF';-inkscape-font-specification:'Source Han Sans K VF';stroke-width:2.69685;stroke-dasharray:10.7874, 2.69685" />
      <path
         d="m 422.0918,172.29187 v 0.87483 h 3.72092 v -0.87483 z"
         id="path8883-6-9"
         style="font-size:11.2889px;font-family:'Source Han Sans K VF';-inkscape-font-specification:'Source Han Sans K VF';stroke-width:2.69685;stroke-dasharray:10.7874, 2.69685" />
      <path
         d="m 422.13397,169.80671 v 0.87481 h 3.72091 v -0.87481 z"
         id="path8849-9-2"
         style="font-size:11.2889px;font-family:'Source Han Sans K VF';-inkscape-font-specification:'Source Han Sans K VF';stroke-width:2.69685;stroke-dasharray:10.7874, 2.69685" />
      <path
         id="path3541-4-8-4-6"
         style="font-size:11.2889px;font-family:'Source Han Sans SC VF';-inkscape-font-specification:'Source Han Sans SC VF';display:inline;stroke-width:2.63845;stroke-dasharray:10.5538, 2.63845"
         d="m 417.46132,163.7877 v 0.78137 1.96141 h 7.50238 0.81649 v -2.74278 h -0.81649 z m 0.81648,0.78137 h 6.6859 v 1.17945 h -6.6859 z"
         sodipodi:nodetypes="ccccccccccccc" />
    </g>
    <g
       aria-label="[1]"
       id="text9468-5-6-9-3-2"
       style="font-size:11.2889px;font-family:'Source Han Sans';-inkscape-font-specification:'Source Han Sans';stroke-width:3;stroke-dasharray:12, 3">
      <path
         d="m 183.25786,409.64696 h 2.2352 v -0.58703 h -1.46756 v -9.67458 h 1.46756 v -0.59831 h -2.2352 z"
         id="path2926" />
      <path
         d="m 186.8703,407.72784 h 4.53814 v -0.85795 h -1.65947 v -7.41681 h -0.79023 c -0.45155,0.25964 -0.98213,0.45156 -1.71591,0.58702 v 0.65476 h 1.47885 v 6.17503 h -1.85138 z"
         id="path2928" />
      <path
         d="m 192.52604,409.64696 h 2.24649 v -10.85992 h -2.24649 v 0.59831 h 1.46756 v 9.67458 h -1.46756 z"
         id="path2930" />
    </g>
  </g>
</svg>
