<?xml version="1.0" encoding="UTF-8" standalone="no"?>
<!-- Created with Inkscape (http://www.inkscape.org/) -->

<svg
   width="1199.9998"
   height="399.99997"
   viewBox="0 0 317.49992 105.83333"
   version="1.1"
   id="svg5"
   inkscape:version="1.2.2 (732a01da63, 2022-12-09)"
   sodipodi:docname="9f9c-h-decompose.svg"
   xmlns:inkscape="http://www.inkscape.org/namespaces/inkscape"
   xmlns:sodipodi="http://sodipodi.sourceforge.net/DTD/sodipodi-0.dtd"
   xmlns="http://www.w3.org/2000/svg"
   xmlns:svg="http://www.w3.org/2000/svg">
  <sodipodi:namedview
     id="namedview7"
     pagecolor="#ffffff"
     bordercolor="#000000"
     borderopacity="0.25"
     inkscape:showpageshadow="2"
     inkscape:pageopacity="0.0"
     inkscape:pagecheckerboard="0"
     inkscape:deskcolor="#d1d1d1"
     inkscape:document-units="mm"
     showgrid="false"
     inkscape:zoom="0.43712935"
     inkscape:cx="939.0813"
     inkscape:cy="788.09625"
     inkscape:window-width="1920"
     inkscape:window-height="1001"
     inkscape:window-x="-9"
     inkscape:window-y="-9"
     inkscape:window-maximized="1"
     inkscape:current-layer="layer3" />
  <defs
     id="defs2" />
  <g
     inkscape:groupmode="layer"
     id="layer3"
     inkscape:label="h"
     transform="translate(-1.525879e-5,-118.5817)">
    <g
       aria-label="龜(J)"
       id="text3992-8-2"
       style="font-weight:bold;font-size:11.2889px;font-family:'Source Han Sans VF';-inkscape-font-specification:'Source Han Sans VF Bold';fill:#000000;stroke-width:3;stroke-dasharray:12, 3"
       transform="translate(1.114223,119.04022)">
      <g
         aria-label="(H)"
         id="text1902-7"
         style="font-weight:normal;font-family:'Source Han Sans TC';-inkscape-font-specification:'Source Han Sans TC'">
        <path
           d="m 18.092698,99.940682 0.632178,-0.282222 c -0.970845,-1.603024 -1.43369,-3.522137 -1.43369,-5.44125 0,-1.907824 0.462845,-3.815648 1.43369,-5.429961 l -0.632178,-0.293512 c -1.038579,1.693335 -1.659469,3.510848 -1.659469,5.723473 0,2.223913 0.62089,4.041426 1.659469,5.723472 z"
           id="path1405" />
        <path
           d="m 20.35047,98.228058 h 1.038579 v -3.90596 h 3.860804 v 3.90596 h 1.049868 v -8.274764 h -1.049868 v 3.465692 H 21.389049 V 89.953294 H 20.35047 Z"
           id="path1407" />
        <path
           d="m 28.54622,100.44068 c 1.038578,-1.682044 1.659468,-3.499557 1.659468,-5.72347 0,-2.212625 -0.62089,-4.030138 -1.659468,-5.723473 l -0.643468,0.293512 c 0.970846,1.614313 1.456268,3.522137 1.456268,5.429961 0,1.919113 -0.485422,3.838226 -1.456268,5.44125 z"
           id="path1409" />
      </g>
      <g
         aria-label="龜"
         id="text1902-7-7"
         style="font-weight:normal;font-family:'Source Han Sans TC';-inkscape-font-specification:'Source Han Sans TC'">
        <path
           d="m 7.2518714,88.779625 c -0.5757339,0.790223 -1.6256016,1.727202 -3.0028475,2.415825 0.1806224,0.112889 0.4176893,0.361245 0.5418672,0.541867 1.4562682,-0.812801 2.5400026,-1.806224 3.2963589,-2.788358 z m -0.022578,0.575734 -0.451556,0.553156 h 3.6350264 v -0.553156 z m 2.5625804,1.43369 v 7.371652 h 0.745067 V 90.789049 Z M 5.5020919,90.597138 v 1.975558 H 8.2791613 V 92.019539 H 6.2923149 v -1.422401 z m 0.5192894,0 v 0.541867 h 6.5136957 v 0.880534 h -2.415825 v 0.541868 h 3.217337 v -1.964269 z m 2.0884465,0.191911 v 6.98783 c 0,1.106312 0.3951116,1.377245 1.7272018,1.377245 0.3048004,0 2.9012474,0 3.2399144,0 1.083734,0 1.320801,-0.316089 1.444979,-1.343379 -0.214489,-0.04515 -0.519289,-0.146755 -0.699912,-0.259644 -0.06773,0.790223 -0.180622,0.959556 -0.778934,0.959556 -0.530578,0 -2.788358,0 -3.2060474,0 -0.8579564,0 -0.9934232,-0.146756 -0.9934232,-0.722489 v -6.999119 z m 2.0207132,2.652892 v 0.609601 h 2.923825 v 2.901247 h -2.889958 v 0.609601 h 3.623737 V 93.441941 Z M 4.9376468,93.012963 v 0.485422 H 6.619693 v 1.399824 H 4.9376468 v 0.474134 h 2.3480913 v -2.35938 z m 0,2.912536 v 0.474134 H 6.619693 v 1.444979 H 4.9376468 v 0.474134 H 7.2857381 V 95.925499 Z M 12.19641,94.27732 c -0.361245,0.790223 -0.948268,1.546579 -1.603024,2.065868 0.124178,0.07902 0.327378,0.259645 0.4064,0.349956 0.654757,-0.564445 1.309513,-1.411112 1.715913,-2.280358 z m -1.490135,0.677334 c 0.654756,0.395111 1.411112,0.993423 1.772357,1.422401 l 0.361245,-0.4064 c -0.361245,-0.41769 -1.12889,-0.993424 -1.783646,-1.365957 z M 4.4296463,93.949941 v 0.485423 H 6.95836 v -0.485423 z m 2.4835581,-0.05644 v 0.598312 h 1.5465794 v -0.598312 z m 0,2.912536 v 0.609601 h 1.5465794 v -0.609601 z m -2.5061359,0.06773 v 0.485422 h 2.5400026 v -0.485422 z m 5.7799175,-7.518408 v 0.135467 c -0.1919118,0.383822 -0.5870233,0.936979 -0.9369792,1.253068 0.1693335,0.07902 0.3951115,0.225778 0.5418672,0.338667 0.383823,-0.338667 0.869245,-0.914401 1.174046,-1.422402 l -0.496712,-0.338667 -0.112889,0.03387 z"
           style="font-family:'Source Han Sans K VF';-inkscape-font-specification:'Source Han Sans K VF'"
           id="path1412" />
      </g>
    </g>
    <g
       aria-label="⿱⺈⿹⿴⿻[1:]⿺乚.#(丨b一-𠃍)#(一-𠃍丨b一)乂d⿱⺕⺕"
       id="text2192-7-0"
       style="font-weight:bold;font-size:11.2889px;font-family:'Sarasa Mono CL';-inkscape-font-specification:'Sarasa Mono CL Bold';stroke-width:3;stroke-dasharray:12, 3">
      <path
         d="m 6.379248,123.22863 v 0.33867 H 5.7019139 v 0.67733 h -0.338667 v -1.016 z m 0.8128008,0 h 1.016001 v 0.33867 h -1.016001 z m 1.8288018,0 h 1.0160014 v 0.33867 H 9.0208506 Z m 1.8288024,0 h 1.016001 v 0.33867 h -1.016001 z m 1.828801,0 h 1.016001 v 0.33867 h -1.016001 z m 2.844803,0 v 1.016 H 15.18459 v -0.67733 h -0.677334 v -0.33867 z m -9.8213431,2.8448 h -0.338667 v -1.016 h 0.338667 z m 9.4826761,-1.016 h 0.338667 v 1.016 H 15.18459 Z m -9.4826761,2.84481 h -0.338667 v -1.016 h 0.338667 z m 9.4826761,-1.016 h 0.338667 v 1.016 H 15.18459 Z m -9.4826761,2.8448 h -0.338667 v -1.016 h 0.338667 z m 9.4826761,-1.016 h 0.338667 v 1.016 H 15.18459 Z m -9.4826761,2.8448 h -0.338667 v -1.016 h 0.338667 z m 9.4826761,-1.016 h 0.338667 v 1.016 H 15.18459 Z m -9.4826761,2.50614 H 6.379248 v 0.33866 H 5.3632469 v -1.016 h 0.338667 z m 9.4826761,-0.67734 h 0.338667 v 1.016 h -1.016001 v -0.33866 h 0.677334 z m -7.9925412,0.67734 h 1.016001 v 0.33866 h -1.016001 z m 1.8288018,0 h 1.0160014 v 0.33866 H 9.0208506 Z m 1.8288024,0 h 1.016001 v 0.33866 h -1.016001 z m 1.828801,0 h 1.016001 v 0.33866 h -1.016001 z m -1.727201,-4.91068 v 0.33867 H 9.9352516 v -0.33867 z m 1.828801,0 v 0.33867 h -1.016001 v -0.33867 z m 1.828802,0 v 0.33867 h -1.016001 v -0.33867 z m -7.3152071,0 v 0.33867 H 6.2776478 v -0.33867 z m 1.8288018,0 v 0.33867 h -1.016001 v -0.33867 z"
         style="font-family:'思源黑体 VF';-inkscape-font-specification:'思源黑体 VF Bold'"
         id="path1336" />
      <path
         d="m 20.862907,123.09317 0.869245,0.16933 q -0.383822,0.77893 -0.970845,1.56916 -0.587023,0.79022 -1.399824,1.51271 -0.8128,0.72249 -1.862668,1.3208 -0.04516,-0.1016 -0.146756,-0.22578 -0.09031,-0.12418 -0.191911,-0.22578 -0.09031,-0.11289 -0.180623,-0.18062 1.004713,-0.51929 1.761069,-1.18533 0.767645,-0.66605 1.298223,-1.37725 0.530579,-0.7112 0.82409,-1.37724 z m -0.04516,1.15146 h 3.736626 v 0.7112 h -4.278494 z m 3.556003,0 h 0.180623 l 0.135466,-0.0339 0.541868,0.34995 q -0.293512,0.59831 -0.72249,1.25307 -0.428978,0.64347 -0.903112,1.25307 -0.462845,0.59831 -0.891823,1.06115 -0.112889,-0.0903 -0.282223,-0.2032 -0.169333,-0.11288 -0.3048,-0.18062 0.417689,-0.44027 0.846668,-1.016 0.428978,-0.58702 0.801511,-1.19662 0.372534,-0.62089 0.598312,-1.10631 z"
         style="font-family:'思源黑体 VF';-inkscape-font-specification:'思源黑体 VF Bold'"
         id="path1338" />
      <path
         d="m 37.085057,133.38864 v -0.33866 h 0.677334 v -0.67734 h 0.338667 v 1.016 z m -0.812801,0 h -1.016001 v -0.33866 h 1.016001 z m -1.828802,0 h -1.016001 v -0.33866 h 1.016001 z m -1.828802,0 h -1.016001 v -0.33866 h 1.016001 z m -1.828801,0 H 29.76985 v -0.33866 h 1.016001 z m -2.844803,0 v -1.016 h 0.338667 v 0.67734 h 0.677334 v 0.33866 z m 9.821343,-2.8448 h 0.338667 v 1.016 h -0.338667 z m 0,-1.8288 h 0.338667 v 1.016 h -0.338667 z m -9.482676,1.016 h -0.338667 v -1.016 h 0.338667 z m 9.482676,-2.8448 h 0.338667 v 1.016 h -0.338667 z m -9.482676,-2.64161 h -0.338667 v -1.016 h 1.016001 v 0.33867 h -0.677334 z m 7.992541,-0.67733 h -1.016001 v -0.33867 h 1.016001 z m -1.828802,0 h -1.016001 v -0.33867 h 1.016001 z m -1.828802,0 h -1.016001 v -0.33867 h 1.016001 z m -1.828801,0 H 29.76985 v -0.33867 h 1.016001 z m -2.506136,7.99254 h -0.338667 v -1.016 h 0.338667 z m 9.482676,-6.50241 h 0.338667 v 1.016 h -0.338667 z m -9.482676,2.84481 h -0.338667 v -1.016 h 0.338667 z m 9.482676,-4.33494 h -0.677334 v -0.33867 h 1.016001 v 1.016 h -0.338667 z m -9.482676,2.50613 h -0.338667 v -1.016 h 0.338667 z m 6.739473,5.38481 h 0.338667 v 1.016 h -0.338667 z m 0,-1.8288 h 0.338667 v 1.016 h -0.338667 z m 0,-1.8288 h 0.338667 v 1.016 h -0.338667 z m -2.506136,-1.82881 h 1.016001 v 0.33867 h -1.016001 z m 2.844803,0 v 1.01601 h -0.338667 v -0.67734 h -0.677334 v -0.33867 z m -6.502406,0.33867 v -0.33867 h 1.016001 v 0.33867 z m 1.828801,0 v -0.33867 h 1.016001 v 0.33867 z m 1.828802,0 v -0.33867 h 1.016001 v 0.33867 z m 2.844803,0.67734 h -0.338667 v -0.67734 h -0.677334 v -0.33867 h 1.016001 z"
         style="font-family:'思源黑体 VF';-inkscape-font-specification:'思源黑体 VF Bold'"
         id="path1340" />
      <path
         d="m 40.245947,123.22863 v 0.33867 h -0.677334 v 0.67733 h -0.338667 v -1.016 z m 0.812801,0 h 1.016001 v 0.33867 h -1.016001 z m 1.828802,0 h 1.016001 v 0.33867 H 42.88755 Z m 1.828802,0 h 1.016001 v 0.33867 h -1.016001 z m 1.828802,0 h 1.016001 v 0.33867 h -1.016001 z m 2.844802,0 v 1.016 h -0.338667 v -0.67733 h -0.677334 v -0.33867 z m -9.821343,2.8448 h -0.338667 v -1.016 h 0.338667 z m 9.482676,-1.016 h 0.338667 v 1.016 h -0.338667 z m -9.482676,2.84481 h -0.338667 v -1.016 h 0.338667 z m 9.482676,-1.016 h 0.338667 v 1.016 h -0.338667 z m -9.482676,2.8448 h -0.338667 v -1.016 h 0.338667 z m 9.482676,-1.016 h 0.338667 v 1.016 h -0.338667 z m -9.482676,2.8448 h -0.338667 v -1.016 h 0.338667 z m 9.482676,-1.016 h 0.338667 v 1.016 h -0.338667 z m -9.482676,2.50614 h 0.677334 v 0.33866 h -1.016001 v -1.016 h 0.338667 z m 9.482676,-0.67734 h 0.338667 v 1.016 h -1.016001 v -0.33866 h 0.677334 z m -7.992541,0.67734 h 1.016001 v 0.33866 h -1.016001 z m 1.828802,0 h 1.016001 v 0.33866 H 42.88755 Z m 1.828802,0 h 1.016001 v 0.33866 h -1.016001 z m 1.828802,0 h 1.016001 v 0.33866 h -1.016001 z m -3.657604,-7.99255 h 1.016001 v 0.33867 H 42.88755 Z m 1.828802,0 h 1.016001 v 0.33867 h -1.016001 z m 2.844803,0 v 1.016 h -0.338667 v -0.67733 h -0.677334 v -0.33867 z m -0.338667,1.82881 h 0.338667 v 1.016 h -0.338667 z m 0,1.8288 h 0.338667 v 1.016 h -0.338667 z m -5.147739,-3.65761 v 0.33867 h -0.677334 v 0.67733 h -0.338667 v -1.016 z m -0.677334,2.84481 h -0.338667 v -1.016 h 0.338667 z m 0,1.8288 h -0.338667 v -1.016 h 0.338667 z m 0,1.49013 h 0.677334 v 0.33867 h -1.016001 v -1.016 h 0.338667 z m 1.490135,0 h 1.016001 v 0.33867 H 42.88755 Z m 1.828802,0 h 1.016001 v 0.33867 h -1.016001 z m 2.506136,-0.67733 h 0.338667 v 1.016 h -1.016001 v -0.33867 h 0.677334 z"
         style="font-family:'思源黑体 VF';-inkscape-font-specification:'思源黑体 VF Bold'"
         id="path1342" />
      <path
         d="m 50.518848,123.22863 h 1.016001 v 0.33867 h -0.677334 v 0.67733 h -0.338667 z m 1.828802,0 h 1.016001 v 0.33867 H 52.34765 Z m 1.828802,0 h 1.016001 v 0.33867 h -1.016001 z m 1.828802,0 h 1.016001 v 1.016 h -0.338667 v -0.67733 h -0.677334 z m -5.147739,2.8448 h -0.338667 v -1.016 h 0.338667 z m 5.825073,-1.016 h 0.338667 v 1.016 h -0.338667 z m -5.825073,2.84481 h -0.338667 v -1.016 h 0.338667 z m 4.334938,-1.016 v 0.33866 h -0.677334 v 0.67734 h -0.338667 v -1.016 z m 1.828802,0 v 1.016 h -0.338667 v -0.67734 h -0.677334 v -0.33866 z m 0.812801,0 h 1.016001 v 0.33866 h -1.016001 z m 2.844803,0 v 1.016 h -0.338667 v -0.67734 h -0.677334 v -0.33866 z m -9.821344,2.50613 h 0.677334 v 0.33867 h -1.016001 v -1.016 h 0.338667 z m 3.657604,0 h 0.677334 v 0.33867 h -1.016001 v -1.016 h 0.338667 z m 2.167469,-0.67733 h 0.338667 v 1.016 h -1.016001 v -0.33867 h 0.677334 z m 3.657604,0 h 0.338667 v 1.016 h -0.338667 z m -7.992542,0.67733 h 1.016001 v 0.33867 H 52.34765 Z m 2.167469,2.16747 h -0.338667 v -1.016 h 0.338667 z m 5.825073,-1.016 h 0.338667 v 1.016 h -0.338667 z m -5.825073,2.50614 h 0.677334 v 0.33866 h -1.016001 v -1.016 h 0.338667 z m 5.825073,-0.67734 h 0.338667 v 1.016 h -1.016001 v -0.33866 h 0.677334 z m -4.334938,0.67734 h 1.016001 v 0.33866 h -1.016001 z m 1.828802,0 h 1.016001 v 0.33866 h -1.016001 z"
         style="font-family:'思源黑体 VF';-inkscape-font-specification:'思源黑体 VF Bold'"
         id="path1344" />
      <path
         d="m 62.439929,134.50624 v -10.82605 h 2.178758 v 0.54187 h -1.478846 v 9.75361 h 1.478846 v 0.53057 z"
         style="font-family:'思源黑体 VF';-inkscape-font-specification:'思源黑体 VF Bold'"
         id="path1346" />
      <path
         d="m 65.995925,132.59842 v -0.77893 h 1.851379 v -6.32179 h -1.478846 v -0.59831 q 0.541868,-0.0903 0.948268,-0.22578 0.406401,-0.14675 0.72249,-0.33867 h 0.7112 v 7.48455 h 1.682047 v 0.77893 z"
         style="font-family:'思源黑体 VF';-inkscape-font-specification:'思源黑体 VF Bold'"
         id="path1348" />
      <path
         d="m 72.701527,128.1393 q -0.282223,0 -0.496712,-0.19191 -0.2032,-0.2032 -0.2032,-0.53058 0,-0.33866 0.2032,-0.54186 0.214489,-0.2032 0.496712,-0.2032 0.282222,0 0.485422,0.2032 0.203201,0.2032 0.203201,0.54186 0,0.32738 -0.203201,0.53058 -0.2032,0.19191 -0.485422,0.19191 z m 0,4.60587 q -0.282223,0 -0.496712,-0.2032 -0.2032,-0.2032 -0.2032,-0.51928 0,-0.33867 0.2032,-0.54187 0.214489,-0.2032 0.496712,-0.2032 0.282222,0 0.485422,0.2032 0.203201,0.2032 0.203201,0.54187 0,0.31608 -0.203201,0.51928 -0.2032,0.2032 -0.485422,0.2032 z"
         style="font-family:'思源黑体 VF';-inkscape-font-specification:'思源黑体 VF Bold'"
         id="path1350" />
      <path
         d="m 74.575475,134.50624 v -0.53057 h 1.490135 v -9.75361 h -1.490135 v -0.54187 h 2.178758 v 10.82605 z"
         style="font-family:'思源黑体 VF';-inkscape-font-specification:'思源黑体 VF Bold'"
         id="path1352" />
      <path
         d="m 79.531294,123.22863 v 0.33867 H 78.85396 v 0.67733 h -0.338667 v -1.016 z m 0.812801,0 h 1.016001 v 0.33867 h -1.016001 z m 1.828802,0 h 1.016001 v 0.33867 h -1.016001 z m 1.828802,0 H 85.0177 v 0.33867 h -1.016001 z m 1.828802,0 h 1.016001 v 0.33867 h -1.016001 z m 2.844802,0 v 1.016 h -0.338667 v -0.67733 h -0.677334 v -0.33867 z m -9.821343,2.8448 h -0.338667 v -1.016 h 0.338667 z m 0,1.82881 h -0.338667 v -1.016 h 0.338667 z m 9.482676,-1.016 h 0.338667 v 1.016 h -0.338667 z m -9.482676,2.8448 h -0.338667 v -1.016 h 0.338667 z m 9.482676,2.6416 h 0.338667 v 1.016 h -1.016001 v -0.33866 h 0.677334 z m -7.992541,0.67734 h 1.016001 v 0.33866 h -1.016001 z m 1.828802,0 h 1.016001 v 0.33866 h -1.016001 z m 1.828802,0 H 85.0177 v 0.33866 h -1.016001 z m 1.828802,0 h 1.016001 v 0.33866 h -1.016001 z m 2.506135,-7.99255 h 0.338667 v 1.016 h -0.338667 z m -9.482676,6.50241 h -0.338667 v -1.016 h 0.338667 z m 9.482676,-2.8448 h 0.338667 v 1.016 h -0.338667 z m -9.482676,4.33494 h 0.677334 v 0.33866 h -1.016001 v -1.016 h 0.338667 z m 9.482676,-2.50614 h 0.338667 v 1.016 h -0.338667 z m -6.739473,-5.38481 h -0.338667 v -1.016 h 0.338667 z m 0,1.82881 h -0.338667 v -1.01601 h 0.338667 z m 0,1.8288 h -0.338667 v -1.016 h 0.338667 z m 2.506136,1.8288 h -1.016001 v -0.33867 h 1.016001 z m -2.844803,0 v -1.016 h 0.338667 v 0.67733 h 0.677334 v 0.33867 z m 6.502407,-0.33867 v 0.33867 h -1.016002 v -0.33867 z m -1.828802,0 v 0.33867 H 84.9161 v -0.33867 z m -1.828802,0 v 0.33867 h -1.016001 v -0.33867 z m -2.844803,-0.67733 h 0.338667 v 0.67733 h 0.677334 v 0.33867 h -1.016001 z"
         style="font-family:'思源黑体 VF';-inkscape-font-specification:'思源黑体 VF Bold'"
         id="path1354" />
      <path
         d="m 91.39593,123.60117 h 0.767646 v 7.59743 q 0,0.38382 0.09031,0.59831 0.1016,0.2032 0.372533,0.28222 0.270934,0.079 0.790224,0.079 0.158044,0 0.519289,0 0.361245,0 0.835379,0 0.474133,0 0.948267,0 0.485423,0 0.869246,0 0.395111,0 0.587022,0 0.51929,0 0.778934,-0.18062 0.270934,-0.18062 0.383823,-0.66605 0.112889,-0.48542 0.180622,-1.38853 0.101601,0.0677 0.237067,0.13547 0.135467,0.0677 0.270934,0.12417 0.135467,0.0452 0.237067,0.0677 -0.07902,0.99342 -0.259645,1.58044 -0.180622,0.57574 -0.598312,0.8128 -0.417689,0.24836 -1.23049,0.24836 -0.1016,0 -0.383822,0 -0.270934,0 -0.666045,0 -0.395112,0 -0.82409,0 -0.428978,0 -0.82409,0 -0.383822,0 -0.666045,0 -0.270934,0 -0.361245,0 -0.790223,0 -1.241779,-0.14676 -0.451556,-0.13546 -0.632178,-0.508 -0.180623,-0.37253 -0.180623,-1.06115 z"
         style="font-family:'思源黑体 VF';-inkscape-font-specification:'思源黑体 VF Bold'"
         id="path1356" />
      <path
         d="m 102.05265,132.74517 q -0.28222,0 -0.49671,-0.2032 -0.2032,-0.2032 -0.2032,-0.51928 0,-0.33867 0.2032,-0.54187 0.21449,-0.2032 0.49671,-0.2032 0.28223,0 0.48543,0.2032 0.2032,0.2032 0.2032,0.54187 0,0.31608 -0.2032,0.51928 -0.2032,0.2032 -0.48543,0.2032 z"
         style="font-family:'思源黑体 VF';-inkscape-font-specification:'思源黑体 VF Bold'"
         id="path1358" />
      <path
         d="m 104.70554,132.59842 0.31609,-2.60774 h -1.00472 v -0.65475 h 1.08374 l 0.24835,-1.91912 h -1.08373 v -0.65475 h 1.15147 l 0.29351,-2.3368 h 0.6096 l -0.29351,2.3368 h 1.71591 l 0.31609,-2.3368 h 0.6096 l -0.29351,2.3368 h 1.016 v 0.65475 h -1.09502 l -0.23707,1.91912 h 1.08373 v 0.65475 h -1.17404 l -0.3048,2.60774 h -0.6096 l 0.3048,-2.60774 h -1.71591 l -0.31609,2.60774 z m 1.00471,-3.26249 h 1.7272 l 0.23707,-1.91912 h -1.71592 z"
         style="font-family:'思源黑体 VF';-inkscape-font-specification:'思源黑体 VF Bold'"
         id="path1360" />
      <path
         d="m 112.4723,134.79975 q -0.76765,-1.25306 -1.21921,-2.6416 -0.44026,-1.39982 -0.44026,-3.05929 0,-1.65947 0.44026,-3.048 0.45156,-1.39983 1.21921,-2.66418 l 0.56444,0.27093 q -0.73378,1.20791 -1.09502,2.60774 -0.36125,1.38853 -0.36125,2.83351 0,1.45627 0.36125,2.85609 0.36124,1.38854 1.09502,2.58516 z"
         style="font-family:'思源黑体 VF';-inkscape-font-specification:'思源黑体 VF Bold'"
         id="path1362" />
      <path
         d="m 118.72634,123.14961 h 0.80151 v 10.32934 h -0.80151 z"
         style="font-family:'思源黑体 VF';-inkscape-font-specification:'思源黑体 VF Bold'"
         id="path1364" />
      <path
         d="m 128.46866,132.74517 q -0.41769,0 -0.88053,-0.2032 -0.46285,-0.2032 -0.86925,-0.57573 h -0.0451 l -0.0903,0.63218 h -0.73377 v -8.98597 h 0.92569 v 2.49485 l -0.0452,1.1176 q 0.42898,-0.37253 0.93698,-0.62089 0.508,-0.25964 1.02729,-0.25964 0.79022,0 1.33209,0.39511 0.54187,0.38382 0.8128,1.08373 0.28222,0.68863 0.28222,1.62561 0,1.03857 -0.37253,1.78364 -0.37253,0.74507 -0.98214,1.12889 -0.59831,0.38382 -1.29822,0.38382 z m -0.13547,-0.77893 q 0.53058,0 0.94827,-0.3048 0.41769,-0.3048 0.65476,-0.86924 0.23706,-0.56445 0.23706,-1.32081 0,-0.69991 -0.16933,-1.23049 -0.16933,-0.53057 -0.54187,-0.82409 -0.36124,-0.29351 -0.98213,-0.29351 -0.39511,0 -0.82409,0.22578 -0.41769,0.21449 -0.88053,0.64347 v 3.30765 q 0.41769,0.37253 0.83537,0.51929 0.41769,0.14675 0.72249,0.14675 z"
         style="font-family:'思源黑体 VF';-inkscape-font-specification:'思源黑体 VF Bold'"
         id="path1366" />
      <path
         d="m 132.22787,127.77806 h 10.31805 v 0.82409 h -10.31805 z"
         style="font-family:'思源黑体 VF';-inkscape-font-specification:'思源黑体 VF Bold'"
         id="path1368" />
      <path
         d="m 143.52805,129.81006 v -0.72249 h 2.85609 v 0.72249 z"
         style="font-family:'思源黑体 VF';-inkscape-font-specification:'思源黑体 VF Bold'"
         id="path1370" />
      <path
         d="m 147.72753,124.04143 h 9.29077 v 9.18917 h -0.8128 v -8.38766 h -8.47797 z"
         style="font-family:'思源黑体 VF';-inkscape-font-specification:'思源黑体 VF Bold'"
         id="path1372" />
      <path
         d="m 159.19705,134.79975 -0.56445,-0.25964 q 0.72249,-1.19662 1.08374,-2.58516 0.37253,-1.39982 0.37253,-2.85609 0,-1.44498 -0.37253,-2.83351 -0.36125,-1.39983 -1.08374,-2.60774 l 0.56445,-0.27093 q 0.77893,1.26435 1.2192,2.66418 0.44027,1.38853 0.44027,3.048 0,1.65947 -0.44027,3.05929 -0.44027,1.38854 -1.2192,2.6416 z"
         style="font-family:'思源黑体 VF';-inkscape-font-specification:'思源黑体 VF Bold'"
         id="path1374" />
      <path
         d="m 163.04656,132.59842 0.31608,-2.60774 h -1.00471 v -0.65475 h 1.08374 l 0.24835,-1.91912 h -1.08373 v -0.65475 h 1.15147 l 0.29351,-2.3368 h 0.6096 l -0.29351,2.3368 h 1.71591 l 0.31609,-2.3368 h 0.6096 l -0.29351,2.3368 h 1.016 v 0.65475 h -1.09502 l -0.23707,1.91912 h 1.08373 v 0.65475 h -1.17404 l -0.3048,2.60774 h -0.6096 l 0.3048,-2.60774 h -1.71592 l -0.31609,2.60774 z m 1.00471,-3.26249 h 1.7272 l 0.23707,-1.91912 h -1.71592 z"
         style="font-family:'思源黑体 VF';-inkscape-font-specification:'思源黑体 VF Bold'"
         id="path1376" />
      <path
         d="m 170.81333,134.79975 q -0.76765,-1.25306 -1.2192,-2.6416 -0.44027,-1.39982 -0.44027,-3.05929 0,-1.65947 0.44027,-3.048 0.45155,-1.39983 1.2192,-2.66418 l 0.56444,0.27093 q -0.73377,1.20791 -1.09502,2.60774 -0.36124,1.38853 -0.36124,2.83351 0,1.45627 0.36124,2.85609 0.36125,1.38854 1.09502,2.58516 z"
         style="font-family:'思源黑体 VF';-inkscape-font-specification:'思源黑体 VF Bold'"
         id="path1378" />
      <path
         d="m 172.34861,127.77806 h 10.31806 v 0.82409 h -10.31806 z"
         style="font-family:'思源黑体 VF';-inkscape-font-specification:'思源黑体 VF Bold'"
         id="path1380" />
      <path
         d="m 183.6488,129.81006 v -0.72249 h 2.85609 v 0.72249 z"
         style="font-family:'思源黑体 VF';-inkscape-font-specification:'思源黑体 VF Bold'"
         id="path1382" />
      <path
         d="m 187.84827,124.04143 h 9.29077 v 9.18917 h -0.8128 v -8.38766 h -8.47797 z"
         style="font-family:'思源黑体 VF';-inkscape-font-specification:'思源黑体 VF Bold'"
         id="path1384" />
      <path
         d="m 203.51726,123.14961 h 0.80151 v 10.32934 h -0.80151 z"
         style="font-family:'思源黑体 VF';-inkscape-font-specification:'思源黑体 VF Bold'"
         id="path1386" />
      <path
         d="m 213.25959,132.74517 q -0.41769,0 -0.88053,-0.2032 -0.46285,-0.2032 -0.86925,-0.57573 h -0.0451 l -0.0903,0.63218 h -0.73378 v -8.98597 h 0.92569 v 2.49485 l -0.0452,1.1176 q 0.42898,-0.37253 0.93698,-0.62089 0.508,-0.25964 1.02729,-0.25964 0.79022,0 1.33209,0.39511 0.54187,0.38382 0.8128,1.08373 0.28222,0.68863 0.28222,1.62561 0,1.03857 -0.37253,1.78364 -0.37253,0.74507 -0.98213,1.12889 -0.59832,0.38382 -1.29823,0.38382 z m -0.13546,-0.77893 q 0.53057,0 0.94826,-0.3048 0.41769,-0.3048 0.65476,-0.86924 0.23707,-0.56445 0.23707,-1.32081 0,-0.69991 -0.16934,-1.23049 -0.16933,-0.53057 -0.54186,-0.82409 -0.36125,-0.29351 -0.98214,-0.29351 -0.39511,0 -0.82409,0.22578 -0.41769,0.21449 -0.88053,0.64347 v 3.30765 q 0.41769,0.37253 0.83538,0.51929 0.41769,0.14675 0.72249,0.14675 z"
         style="font-family:'思源黑体 VF';-inkscape-font-specification:'思源黑体 VF Bold'"
         id="path1388" />
      <path
         d="m 217.01879,127.77806 h 10.31806 v 0.82409 h -10.31806 z"
         style="font-family:'思源黑体 VF';-inkscape-font-specification:'思源黑体 VF Bold'"
         id="path1390" />
      <path
         d="m 228.82698,134.79975 -0.56445,-0.25964 q 0.72249,-1.19662 1.08374,-2.58516 0.37253,-1.39982 0.37253,-2.85609 0,-1.44498 -0.37253,-2.83351 -0.36125,-1.39983 -1.08374,-2.60774 l 0.56445,-0.27093 q 0.77893,1.26435 1.2192,2.66418 0.44027,1.38853 0.44027,3.048 0,1.65947 -0.44027,3.05929 -0.44027,1.38854 -1.2192,2.6416 z"
         style="font-family:'思源黑体 VF';-inkscape-font-specification:'思源黑体 VF Bold'"
         id="path1392" />
      <path
         d="m 240.05942,123.89468 0.84667,0.2032 q -0.508,1.90782 -1.23049,3.39796 -0.7112,1.49013 -1.7272,2.63031 -1.00471,1.14018 -2.34809,1.97556 -1.34338,0.82409 -3.09316,1.41111 -0.0564,-0.1016 -0.15804,-0.23707 -0.1016,-0.13546 -0.21449,-0.27093 -0.1016,-0.13547 -0.19191,-0.21449 1.73849,-0.51929 3.048,-1.29822 1.3208,-0.77894 2.29165,-1.85138 0.97084,-1.08374 1.64817,-2.50614 0.67734,-1.4224 1.12889,-3.23991 z m -5.74605,0.0452 q 0.56445,2.29165 1.58045,4.08658 1.02729,1.78365 2.65289,2.99156 1.6256,1.19663 3.96241,1.76107 -0.079,0.079 -0.19192,0.2032 -0.1016,0.13547 -0.19191,0.27094 -0.0903,0.14675 -0.14675,0.24835 -1.81752,-0.46284 -3.19476,-1.29822 -1.37725,-0.84667 -2.38196,-2.032 -0.99342,-1.18534 -1.69333,-2.69805 -0.69992,-1.524 -1.17405,-3.36409 z"
         style="font-family:'思源黑体 VF';-inkscape-font-specification:'思源黑体 VF Bold'"
         id="path1394" />
      <path
         d="m 245.95224,132.74517 q -0.76764,0 -1.33209,-0.37253 -0.56444,-0.37253 -0.88053,-1.08373 -0.3048,-0.7112 -0.3048,-1.72721 0,-0.99342 0.37253,-1.70462 0.37253,-0.72249 0.97084,-1.1176 0.60961,-0.39511 1.32081,-0.39511 0.53057,0 0.92569,0.19191 0.39511,0.19191 0.8128,0.53058 l -0.0452,-1.07245 v -2.38196 h 0.9144 v 8.98597 h -0.75635 l -0.079,-0.73378 h -0.0339 q -0.36125,0.36125 -0.84667,0.62089 -0.47413,0.25964 -1.03858,0.25964 z m 0.19191,-0.77893 q 0.44027,0 0.83538,-0.21449 0.4064,-0.22578 0.8128,-0.65475 v -3.29636 q -0.4064,-0.37254 -0.79022,-0.51929 -0.37254,-0.15805 -0.76765,-0.15805 -0.508,0 -0.93698,0.31609 -0.41769,0.3048 -0.66604,0.85796 -0.24836,0.54187 -0.24836,1.25307 0,0.74506 0.2032,1.28693 0.21449,0.54187 0.6096,0.83538 0.39512,0.29351 0.94827,0.29351 z"
         style="font-family:'思源黑体 VF';-inkscape-font-specification:'思源黑体 VF Bold'"
         id="path1396" />
      <path
         d="m 251.34833,123.22863 v 0.33867 H 250.671 v 0.67733 h -0.33867 v -1.016 z m 0.8128,0 h 1.01601 v 0.33867 h -1.01601 z m 1.82881,0 h 1.016 v 0.33867 h -1.016 z m 1.8288,0 h 1.016 v 0.33867 h -1.016 z m 1.8288,0 h 1.016 v 0.33867 h -1.016 z m 2.8448,0 v 1.016 h -0.33866 v -0.67733 h -0.67734 v -0.33867 z m -9.82134,2.8448 h -0.33867 v -1.016 h 0.33867 z m 9.48268,-1.016 h 0.33866 v 1.016 h -0.33866 z m -9.48268,2.84481 h -0.33867 v -1.016 h 0.33867 z m 9.48268,-1.016 h 0.33866 v 1.016 h -0.33866 z m -9.48268,2.8448 h -0.33867 v -1.016 h 0.33867 z m 9.48268,-1.016 h 0.33866 v 1.016 h -0.33866 z m -9.48268,2.8448 h -0.33867 v -1.016 h 0.33867 z m 9.48268,-1.016 h 0.33866 v 1.016 h -0.33866 z m -9.48268,2.50614 h 0.67733 v 0.33866 h -1.016 v -1.016 h 0.33867 z m 9.48268,-0.67734 h 0.33866 v 1.016 h -1.016 v -0.33866 h 0.67734 z m -7.99255,0.67734 h 1.01601 v 0.33866 h -1.01601 z m 1.82881,0 h 1.016 v 0.33866 h -1.016 z m 1.8288,0 h 1.016 v 0.33866 h -1.016 z m 1.8288,0 h 1.016 v 0.33866 h -1.016 z m -1.7272,-4.91068 v 0.33867 h -1.016 v -0.33867 z m 1.8288,0 v 0.33867 h -1.016 v -0.33867 z m 1.8288,0 v 0.33867 h -1.016 v -0.33867 z m -7.31521,0 v 0.33867 h -1.016 v -0.33867 z m 1.82881,0 v 0.33867 h -1.016 v -0.33867 z"
         style="font-family:'思源黑体 VF';-inkscape-font-specification:'思源黑体 VF Bold'"
         id="path1398" />
      <path
         d="m 262.44533,132.12429 v 0.82409 h 7.05556 v -0.82409 z m -0.88053,-4.28979 v 0.82409 h 10.2729 v -0.82409 z m 1.1176,-4.00756 v 0.82409 h 6.32178 v 8.8505 h 0.89183 v -9.67459 z"
         style="font-weight:normal;font-family:'Source Han Sans K VF';-inkscape-font-specification:'Source Han Sans K VF'"
         id="path1400" />
      <path
         d="m 273.73421,132.12429 v 0.82409 h 7.05556 v -0.82409 z m -0.88053,-4.28979 v 0.82409 h 10.2729 v -0.82409 z m 1.1176,-4.00756 v 0.82409 h 6.32178 v 8.8505 h 0.89183 v -9.67459 z"
         style="font-weight:normal;font-family:'Source Han Sans K VF';-inkscape-font-specification:'Source Han Sans K VF'"
         id="path1402" />
    </g>
    <g
       aria-label="⿱⺈⿹⿴⿻[1:]⿺乚　　㐅"
       id="text2192-8-0-8"
       style="font-weight:bold;font-size:11.2889px;font-family:'Sarasa Mono CL';-inkscape-font-specification:'Sarasa Mono CL Bold';stroke-width:3;stroke-dasharray:12, 3">
      <path
         d="m 6.379248,137.38554 v 0.33867 H 5.7019139 v 0.67733 h -0.338667 v -1.016 z m 0.8128008,0 h 1.016001 v 0.33867 h -1.016001 z m 1.8288018,0 h 1.0160014 v 0.33867 H 9.0208506 Z m 1.8288024,0 h 1.016001 v 0.33867 h -1.016001 z m 1.828801,0 h 1.016001 v 0.33867 h -1.016001 z m 2.844803,0 v 1.016 H 15.18459 v -0.67733 h -0.677334 v -0.33867 z m -9.8213431,2.8448 h -0.338667 v -1.016 h 0.338667 z m 9.4826761,-1.016 h 0.338667 v 1.016 H 15.18459 Z m -9.4826761,2.8448 h -0.338667 v -1.016 h 0.338667 z m 9.4826761,-1.016 h 0.338667 v 1.016 H 15.18459 Z m -9.4826761,2.8448 h -0.338667 v -1.016 h 0.338667 z m 9.4826761,-1.016 h 0.338667 v 1.016 H 15.18459 Z m -9.4826761,2.84481 h -0.338667 v -1.016 h 0.338667 z m 9.4826761,-1.016 h 0.338667 v 1.016 H 15.18459 Z m -9.4826761,2.50613 H 6.379248 v 0.33867 H 5.3632469 v -1.016 h 0.338667 z m 9.4826761,-0.67733 h 0.338667 v 1.016 h -1.016001 v -0.33867 h 0.677334 z m -7.9925412,0.67733 h 1.016001 v 0.33867 h -1.016001 z m 1.8288018,0 h 1.0160014 v 0.33867 H 9.0208506 Z m 1.8288024,0 h 1.016001 v 0.33867 h -1.016001 z m 1.828801,0 h 1.016001 v 0.33867 h -1.016001 z m -1.727201,-4.91067 v 0.33867 H 9.9352516 v -0.33867 z m 1.828801,0 v 0.33867 h -1.016001 v -0.33867 z m 1.828802,0 v 0.33867 h -1.016001 v -0.33867 z m -7.3152071,0 v 0.33867 H 6.2776478 v -0.33867 z m 1.8288018,0 v 0.33867 h -1.016001 v -0.33867 z"
         style="font-family:'思源黑体 VF';-inkscape-font-specification:'思源黑体 VF Bold'"
         id="path1311" />
      <path
         d="m 20.862907,137.25007 0.869245,0.16933 q -0.383822,0.77894 -0.970845,1.56916 -0.587023,0.79022 -1.399824,1.51271 -0.8128,0.72249 -1.862668,1.32081 -0.04516,-0.1016 -0.146756,-0.22578 -0.09031,-0.12418 -0.191911,-0.22578 -0.09031,-0.11289 -0.180623,-0.18062 1.004713,-0.51929 1.761069,-1.18534 0.767645,-0.66604 1.298223,-1.37724 0.530579,-0.7112 0.82409,-1.37725 z m -0.04516,1.15147 h 3.736626 v 0.7112 h -4.278494 z m 3.556003,0 h 0.180623 l 0.135466,-0.0339 0.541868,0.34996 q -0.293512,0.59831 -0.72249,1.25307 -0.428978,0.64346 -0.903112,1.25306 -0.462845,0.59832 -0.891823,1.06116 -0.112889,-0.0903 -0.282223,-0.2032 -0.169333,-0.11289 -0.3048,-0.18062 0.417689,-0.44027 0.846668,-1.016 0.428978,-0.58703 0.801511,-1.19663 0.372534,-0.62089 0.598312,-1.10631 z"
         style="font-family:'思源黑体 VF';-inkscape-font-specification:'思源黑体 VF Bold'"
         id="path1313" />
      <path
         d="m 37.085057,147.54555 v -0.33867 h 0.677334 v -0.67733 h 0.338667 v 1.016 z m -0.812801,0 h -1.016001 v -0.33867 h 1.016001 z m -1.828802,0 h -1.016001 v -0.33867 h 1.016001 z m -1.828802,0 h -1.016001 v -0.33867 h 1.016001 z m -1.828801,0 H 29.76985 v -0.33867 h 1.016001 z m -2.844803,0 v -1.016 h 0.338667 v 0.67733 h 0.677334 v 0.33867 z m 9.821343,-2.8448 h 0.338667 v 1.016 h -0.338667 z m 0,-1.82881 h 0.338667 v 1.016 h -0.338667 z m -9.482676,1.016 h -0.338667 v -1.016 h 0.338667 z m 9.482676,-2.8448 h 0.338667 v 1.016 h -0.338667 z m -9.482676,-2.6416 h -0.338667 v -1.016 h 1.016001 v 0.33867 h -0.677334 z m 7.992541,-0.67733 h -1.016001 v -0.33867 h 1.016001 z m -1.828802,0 h -1.016001 v -0.33867 h 1.016001 z m -1.828802,0 h -1.016001 v -0.33867 h 1.016001 z m -1.828801,0 H 29.76985 v -0.33867 h 1.016001 z m -2.506136,7.99254 h -0.338667 v -1.016 h 0.338667 z m 9.482676,-6.50241 h 0.338667 v 1.016 h -0.338667 z m -9.482676,2.8448 h -0.338667 v -1.016 h 0.338667 z m 9.482676,-4.33493 h -0.677334 v -0.33867 h 1.016001 v 1.016 h -0.338667 z m -9.482676,2.50613 h -0.338667 v -1.016 h 0.338667 z m 6.739473,5.38481 h 0.338667 v 1.016 h -0.338667 z m 0,-1.82881 h 0.338667 v 1.01601 h -0.338667 z m 0,-1.8288 h 0.338667 v 1.016 h -0.338667 z m -2.506136,-1.8288 h 1.016001 v 0.33867 h -1.016001 z m 2.844803,0 v 1.016 h -0.338667 v -0.67733 h -0.677334 v -0.33867 z m -6.502406,0.33867 v -0.33867 h 1.016001 v 0.33867 z m 1.828801,0 v -0.33867 h 1.016001 v 0.33867 z m 1.828802,0 v -0.33867 h 1.016001 v 0.33867 z m 2.844803,0.67733 h -0.338667 v -0.67733 h -0.677334 v -0.33867 h 1.016001 z"
         style="font-family:'思源黑体 VF';-inkscape-font-specification:'思源黑体 VF Bold'"
         id="path1315" />
      <path
         d="m 40.245947,137.38554 v 0.33867 h -0.677334 v 0.67733 h -0.338667 v -1.016 z m 0.812801,0 h 1.016001 v 0.33867 h -1.016001 z m 1.828802,0 h 1.016001 v 0.33867 H 42.88755 Z m 1.828802,0 h 1.016001 v 0.33867 h -1.016001 z m 1.828802,0 h 1.016001 v 0.33867 h -1.016001 z m 2.844802,0 v 1.016 h -0.338667 v -0.67733 h -0.677334 v -0.33867 z m -9.821343,2.8448 h -0.338667 v -1.016 h 0.338667 z m 9.482676,-1.016 h 0.338667 v 1.016 h -0.338667 z m -9.482676,2.8448 h -0.338667 v -1.016 h 0.338667 z m 9.482676,-1.016 h 0.338667 v 1.016 h -0.338667 z m -9.482676,2.8448 h -0.338667 v -1.016 h 0.338667 z m 9.482676,-1.016 h 0.338667 v 1.016 h -0.338667 z m -9.482676,2.84481 h -0.338667 v -1.016 h 0.338667 z m 9.482676,-1.016 h 0.338667 v 1.016 h -0.338667 z m -9.482676,2.50613 h 0.677334 v 0.33867 h -1.016001 v -1.016 h 0.338667 z m 9.482676,-0.67733 h 0.338667 v 1.016 h -1.016001 v -0.33867 h 0.677334 z m -7.992541,0.67733 h 1.016001 v 0.33867 h -1.016001 z m 1.828802,0 h 1.016001 v 0.33867 H 42.88755 Z m 1.828802,0 h 1.016001 v 0.33867 h -1.016001 z m 1.828802,0 h 1.016001 v 0.33867 h -1.016001 z m -3.657604,-7.99254 h 1.016001 v 0.33867 H 42.88755 Z m 1.828802,0 h 1.016001 v 0.33867 h -1.016001 z m 2.844803,0 v 1.016 h -0.338667 v -0.67733 h -0.677334 v -0.33867 z m -0.338667,1.8288 h 0.338667 v 1.016 h -0.338667 z m 0,1.8288 h 0.338667 v 1.016 h -0.338667 z m -5.147739,-3.6576 v 0.33867 h -0.677334 v 0.67733 h -0.338667 v -1.016 z m -0.677334,2.8448 h -0.338667 v -1.016 h 0.338667 z m 0,1.8288 h -0.338667 v -1.016 h 0.338667 z m 0,1.49014 h 0.677334 v 0.33867 h -1.016001 v -1.016 h 0.338667 z m 1.490135,0 h 1.016001 v 0.33867 H 42.88755 Z m 1.828802,0 h 1.016001 v 0.33867 h -1.016001 z m 2.506136,-0.67733 h 0.338667 v 1.016 h -1.016001 v -0.33867 h 0.677334 z"
         style="font-family:'思源黑体 VF';-inkscape-font-specification:'思源黑体 VF Bold'"
         id="path1317" />
      <path
         d="m 50.518848,137.38554 h 1.016001 v 0.33867 h -0.677334 v 0.67733 h -0.338667 z m 1.828802,0 h 1.016001 v 0.33867 H 52.34765 Z m 1.828802,0 h 1.016001 v 0.33867 h -1.016001 z m 1.828802,0 h 1.016001 v 1.016 h -0.338667 v -0.67733 h -0.677334 z m -5.147739,2.8448 h -0.338667 v -1.016 h 0.338667 z m 5.825073,-1.016 h 0.338667 v 1.016 h -0.338667 z m -5.825073,2.8448 h -0.338667 v -1.016 h 0.338667 z m 4.334938,-1.016 v 0.33867 h -0.677334 v 0.67733 h -0.338667 v -1.016 z m 1.828802,0 v 1.016 h -0.338667 v -0.67733 h -0.677334 v -0.33867 z m 0.812801,0 h 1.016001 v 0.33867 h -1.016001 z m 2.844803,0 v 1.016 h -0.338667 v -0.67733 h -0.677334 v -0.33867 z m -9.821344,2.50614 h 0.677334 v 0.33866 h -1.016001 v -1.016 h 0.338667 z m 3.657604,0 h 0.677334 v 0.33866 h -1.016001 v -1.016 h 0.338667 z m 2.167469,-0.67734 h 0.338667 v 1.016 h -1.016001 v -0.33866 h 0.677334 z m 3.657604,0 h 0.338667 v 1.016 h -0.338667 z m -7.992542,0.67734 h 1.016001 v 0.33866 H 52.34765 Z m 2.167469,2.16747 h -0.338667 v -1.016 h 0.338667 z m 5.825073,-1.016 h 0.338667 v 1.016 h -0.338667 z m -5.825073,2.50613 h 0.677334 v 0.33867 h -1.016001 v -1.016 h 0.338667 z m 5.825073,-0.67733 h 0.338667 v 1.016 h -1.016001 v -0.33867 h 0.677334 z m -4.334938,0.67733 h 1.016001 v 0.33867 h -1.016001 z m 1.828802,0 h 1.016001 v 0.33867 h -1.016001 z"
         style="font-family:'思源黑体 VF';-inkscape-font-specification:'思源黑体 VF Bold'"
         id="path1319" />
      <path
         d="m 62.439929,148.66315 v -10.82606 h 2.178758 v 0.54187 h -1.478846 v 9.75361 h 1.478846 v 0.53058 z"
         style="font-family:'思源黑体 VF';-inkscape-font-specification:'思源黑体 VF Bold'"
         id="path1321" />
      <path
         d="m 65.995925,146.75533 v -0.77894 h 1.851379 v -6.32178 h -1.478846 v -0.59831 q 0.541868,-0.0903 0.948268,-0.22578 0.406401,-0.14676 0.72249,-0.33867 h 0.7112 v 7.48454 h 1.682047 v 0.77894 z"
         style="font-family:'思源黑体 VF';-inkscape-font-specification:'思源黑体 VF Bold'"
         id="path1323" />
      <path
         d="m 72.701527,142.29621 q -0.282223,0 -0.496712,-0.19191 -0.2032,-0.2032 -0.2032,-0.53058 0,-0.33867 0.2032,-0.54187 0.214489,-0.2032 0.496712,-0.2032 0.282222,0 0.485422,0.2032 0.203201,0.2032 0.203201,0.54187 0,0.32738 -0.203201,0.53058 -0.2032,0.19191 -0.485422,0.19191 z m 0,4.60587 q -0.282223,0 -0.496712,-0.2032 -0.2032,-0.2032 -0.2032,-0.51929 0,-0.33867 0.2032,-0.54187 0.214489,-0.2032 0.496712,-0.2032 0.282222,0 0.485422,0.2032 0.203201,0.2032 0.203201,0.54187 0,0.31609 -0.203201,0.51929 -0.2032,0.2032 -0.485422,0.2032 z"
         style="font-family:'思源黑体 VF';-inkscape-font-specification:'思源黑体 VF Bold'"
         id="path1325" />
      <path
         d="m 74.575475,148.66315 v -0.53058 h 1.490135 v -9.75361 h -1.490135 v -0.54187 h 2.178758 v 10.82606 z"
         style="font-family:'思源黑体 VF';-inkscape-font-specification:'思源黑体 VF Bold'"
         id="path1327" />
      <path
         d="m 79.531294,137.38554 v 0.33867 H 78.85396 v 0.67733 h -0.338667 v -1.016 z m 0.812801,0 h 1.016001 v 0.33867 h -1.016001 z m 1.828802,0 h 1.016001 v 0.33867 h -1.016001 z m 1.828802,0 H 85.0177 v 0.33867 h -1.016001 z m 1.828802,0 h 1.016001 v 0.33867 h -1.016001 z m 2.844802,0 v 1.016 h -0.338667 v -0.67733 h -0.677334 v -0.33867 z m -9.821343,2.8448 h -0.338667 v -1.016 h 0.338667 z m 0,1.8288 h -0.338667 v -1.016 h 0.338667 z m 9.482676,-1.016 h 0.338667 v 1.016 h -0.338667 z m -9.482676,2.8448 h -0.338667 v -1.016 h 0.338667 z m 9.482676,2.64161 h 0.338667 v 1.016 h -1.016001 v -0.33867 h 0.677334 z m -7.992541,0.67733 h 1.016001 v 0.33867 h -1.016001 z m 1.828802,0 h 1.016001 v 0.33867 h -1.016001 z m 1.828802,0 H 85.0177 v 0.33867 h -1.016001 z m 1.828802,0 h 1.016001 v 0.33867 h -1.016001 z m 2.506135,-7.99254 h 0.338667 v 1.016 h -0.338667 z m -9.482676,6.50241 h -0.338667 v -1.016 h 0.338667 z m 9.482676,-2.84481 h 0.338667 v 1.016 h -0.338667 z m -9.482676,4.33494 h 0.677334 v 0.33867 h -1.016001 v -1.016 h 0.338667 z m 9.482676,-2.50613 h 0.338667 v 1.016 h -0.338667 z m -6.739473,-5.38481 h -0.338667 v -1.016 h 0.338667 z m 0,1.8288 h -0.338667 v -1.016 h 0.338667 z m 0,1.8288 h -0.338667 v -1.016 h 0.338667 z m 2.506136,1.82881 h -1.016001 v -0.33867 h 1.016001 z m -2.844803,0 v -1.01601 h 0.338667 v 0.67734 h 0.677334 v 0.33867 z m 6.502407,-0.33867 v 0.33867 h -1.016002 v -0.33867 z m -1.828802,0 v 0.33867 H 84.9161 v -0.33867 z m -1.828802,0 v 0.33867 h -1.016001 v -0.33867 z m -2.844803,-0.67734 h 0.338667 v 0.67734 h 0.677334 v 0.33867 h -1.016001 z"
         style="font-family:'思源黑体 VF';-inkscape-font-specification:'思源黑体 VF Bold'"
         id="path1329" />
      <path
         d="m 91.39593,137.75807 h 0.767646 v 7.59743 q 0,0.38382 0.09031,0.59831 0.1016,0.2032 0.372533,0.28223 0.270934,0.079 0.790224,0.079 0.158044,0 0.519289,0 0.361245,0 0.835379,0 0.474133,0 0.948267,0 0.485423,0 0.869246,0 0.395111,0 0.587022,0 0.51929,0 0.778934,-0.18062 0.270934,-0.18063 0.383823,-0.66605 0.112889,-0.48542 0.180622,-1.38853 0.101601,0.0677 0.237067,0.13546 0.135467,0.0677 0.270934,0.12418 0.135467,0.0452 0.237067,0.0677 -0.07902,0.99343 -0.259645,1.58045 -0.180622,0.57573 -0.598312,0.8128 -0.417689,0.24836 -1.23049,0.24836 -0.1016,0 -0.383822,0 -0.270934,0 -0.666045,0 -0.395112,0 -0.82409,0 -0.428978,0 -0.82409,0 -0.383822,0 -0.666045,0 -0.270934,0 -0.361245,0 -0.790223,0 -1.241779,-0.14676 -0.451556,-0.13547 -0.632178,-0.508 -0.180623,-0.37253 -0.180623,-1.06116 z"
         style="font-family:'思源黑体 VF';-inkscape-font-specification:'思源黑体 VF Bold'"
         id="path1331" />
      <path
         d="m 125.64645,140.64803 0.53058,-0.56444 q 0.84667,0.4064 1.73849,0.9144 0.89182,0.49671 1.7272,1.06115 0.83538,0.56445 1.53529,1.14018 0.69992,0.56445 1.16276,1.09503 l -0.59831,0.66604 q -0.45156,-0.53058 -1.14018,-1.10631 -0.68862,-0.57574 -1.51271,-1.15147 -0.82409,-0.58702 -1.70463,-1.10631 -0.88053,-0.53058 -1.73849,-0.94827 z m 5.10259,-2.69805 0.8128,0.2032 q -0.46285,1.30952 -1.06116,2.58516 -0.59831,1.27565 -1.37725,2.44969 -0.77893,1.16276 -1.76106,2.16747 -0.97085,1.00471 -2.17876,1.78365 -0.0564,-0.0903 -0.16934,-0.19191 -0.1016,-0.1016 -0.21449,-0.2032 -0.1016,-0.1016 -0.2032,-0.16934 1.18534,-0.73378 2.13361,-1.70462 0.95955,-0.98214 1.71591,-2.11103 0.76764,-1.12889 1.33209,-2.34809 0.57573,-1.23049 0.97085,-2.46098 z"
         style="font-family:'思源黑体 VF';-inkscape-font-specification:'思源黑体 VF Bold'"
         id="path1333" />
    </g>
    <g
       aria-label="𠃍"
       id="text3506-8-8"
       style="font-size:11.2889px;font-family:'Source Han Sans SC VF';-inkscape-font-specification:'Source Han Sans SC VF';display:inline;stroke-width:3;stroke-dasharray:12, 3"
       transform="translate(-60.300235,113.63545)">
      <path
         id="path3541-2-2"
         d="m 174.2059,33.798112 h -0.91415 V 24.23728 h 0.91415 8.39897 v 0.902788 8.319905 h -3.2985 v -0.902787 h 2.38435 v -7.417118 h -7.48482 v 7.417118 h 2.38435 v 0.902787 h -2.38435 z"
         sodipodi:nodetypes="ccccccccccccccccc" />
    </g>
    <g
       aria-label="𠃍"
       id="text3506-8-8-4"
       style="font-size:11.2889px;font-family:'Source Han Sans SC VF';-inkscape-font-specification:'Source Han Sans SC VF';display:inline;stroke-width:3;stroke-dasharray:12, 3"
       transform="translate(-82.693205,127.51408)">
      <path
         id="path3541-2-2-8"
         d="m 174.2059,33.798112 h -0.91415 V 24.23728 h 0.91415 8.39897 v 0.902788 8.319905 h -3.2985 v -0.902787 h 2.38435 v -7.417118 h -7.48482 v 7.417118 h 2.38435 v 0.902787 h -2.38435 z"
         sodipodi:nodetypes="ccccccccccccccccc" />
    </g>
    <g
       aria-label="⿱⺈⿹⿴⿻[1:]乚　㐅"
       id="text2192-8-5-2-3"
       style="font-weight:bold;font-size:11.2889px;font-family:'Sarasa Mono CL';-inkscape-font-specification:'Sarasa Mono CL Bold';display:inline;stroke-width:3;stroke-dasharray:12, 3">
      <path
         d="m 6.379248,151.3957 v 0.33867 H 5.7019139 v 0.67733 h -0.338667 v -1.016 z m 0.8128008,0 h 1.016001 v 0.33867 h -1.016001 z m 1.8288018,0 h 1.0160014 v 0.33867 H 9.0208506 Z m 1.8288024,0 h 1.016001 v 0.33867 h -1.016001 z m 1.828801,0 h 1.016001 v 0.33867 h -1.016001 z m 2.844803,0 v 1.016 H 15.18459 v -0.67733 h -0.677334 v -0.33867 z m -9.8213431,2.8448 h -0.338667 v -1.016 h 0.338667 z m 9.4826761,-1.016 h 0.338667 v 1.016 H 15.18459 Z m -9.4826761,2.84481 h -0.338667 v -1.01601 h 0.338667 z M 15.18459,155.0533 h 0.338667 v 1.01601 H 15.18459 Z m -9.4826761,2.84481 h -0.338667 v -1.016 h 0.338667 z m 9.4826761,-1.016 h 0.338667 v 1.016 H 15.18459 Z m -9.4826761,2.8448 h -0.338667 v -1.016 h 0.338667 z m 9.4826761,-1.016 h 0.338667 v 1.016 H 15.18459 Z m -9.4826761,2.50613 H 6.379248 v 0.33867 H 5.3632469 v -1.016 h 0.338667 z m 9.4826761,-0.67733 h 0.338667 v 1.016 h -1.016001 v -0.33867 h 0.677334 z m -7.9925412,0.67733 h 1.016001 v 0.33867 h -1.016001 z m 1.8288018,0 h 1.0160014 v 0.33867 H 9.0208506 Z m 1.8288024,0 h 1.016001 v 0.33867 h -1.016001 z m 1.828801,0 h 1.016001 v 0.33867 h -1.016001 z m -1.727201,-4.91067 v 0.33867 H 9.9352516 v -0.33867 z m 1.828801,0 v 0.33867 h -1.016001 v -0.33867 z m 1.828802,0 v 0.33867 h -1.016001 v -0.33867 z m -7.3152071,0 v 0.33867 H 6.2776478 v -0.33867 z m 1.8288018,0 v 0.33867 h -1.016001 v -0.33867 z"
         style="font-family:'思源黑体 VF';-inkscape-font-specification:'思源黑体 VF Bold'"
         id="path1288" />
      <path
         d="m 20.862907,151.26023 0.869245,0.16934 q -0.383822,0.77893 -0.970845,1.56915 -0.587023,0.79023 -1.399824,1.51272 -0.8128,0.72249 -1.862668,1.3208 -0.04516,-0.1016 -0.146756,-0.22578 -0.09031,-0.12418 -0.191911,-0.22578 -0.09031,-0.11289 -0.180623,-0.18062 1.004713,-0.51929 1.761069,-1.18533 0.767645,-0.66605 1.298223,-1.37725 0.530579,-0.7112 0.82409,-1.37725 z m -0.04516,1.15147 h 3.736626 v 0.7112 h -4.278494 z m 3.556003,0 h 0.180623 l 0.135466,-0.0339 0.541868,0.34996 q -0.293512,0.59831 -0.72249,1.25307 -0.428978,0.64347 -0.903112,1.25307 -0.462845,0.59831 -0.891823,1.06115 -0.112889,-0.0903 -0.282223,-0.2032 -0.169333,-0.11289 -0.3048,-0.18062 0.417689,-0.44027 0.846668,-1.016 0.428978,-0.58702 0.801511,-1.19662 0.372534,-0.62089 0.598312,-1.10632 z"
         style="font-family:'思源黑体 VF';-inkscape-font-specification:'思源黑体 VF Bold'"
         id="path1290" />
      <path
         d="m 37.085057,161.55571 v -0.33867 h 0.677334 v -0.67733 h 0.338667 v 1.016 z m -0.812801,0 h -1.016001 v -0.33867 h 1.016001 z m -1.828802,0 h -1.016001 v -0.33867 h 1.016001 z m -1.828802,0 h -1.016001 v -0.33867 h 1.016001 z m -1.828801,0 H 29.76985 v -0.33867 h 1.016001 z m -2.844803,0 v -1.016 h 0.338667 v 0.67733 h 0.677334 v 0.33867 z m 9.821343,-2.8448 h 0.338667 v 1.016 h -0.338667 z m 0,-1.8288 h 0.338667 v 1.016 h -0.338667 z m -9.482676,1.016 h -0.338667 v -1.016 h 0.338667 z m 9.482676,-2.84481 h 0.338667 v 1.01601 h -0.338667 z m -9.482676,-2.6416 h -0.338667 v -1.016 h 1.016001 v 0.33867 h -0.677334 z m 7.992541,-0.67733 h -1.016001 v -0.33867 h 1.016001 z m -1.828802,0 h -1.016001 v -0.33867 h 1.016001 z m -1.828802,0 h -1.016001 v -0.33867 h 1.016001 z m -1.828801,0 H 29.76985 v -0.33867 h 1.016001 z m -2.506136,7.99254 h -0.338667 v -1.016 h 0.338667 z m 9.482676,-6.50241 h 0.338667 v 1.016 h -0.338667 z m -9.482676,2.84481 h -0.338667 v -1.01601 h 0.338667 z m 9.482676,-4.33494 h -0.677334 v -0.33867 h 1.016001 v 1.016 h -0.338667 z m -9.482676,2.50613 h -0.338667 v -1.016 h 0.338667 z m 6.739473,5.38481 h 0.338667 v 1.016 h -0.338667 z m 0,-1.8288 h 0.338667 v 1.016 h -0.338667 z m 0,-1.8288 h 0.338667 v 1.016 h -0.338667 z m -2.506136,-1.82881 h 1.016001 v 0.33867 h -1.016001 z m 2.844803,0 v 1.016 h -0.338667 v -0.67733 h -0.677334 v -0.33867 z m -6.502406,0.33867 v -0.33867 h 1.016001 v 0.33867 z m 1.828801,0 v -0.33867 h 1.016001 v 0.33867 z m 1.828802,0 v -0.33867 h 1.016001 v 0.33867 z m 2.844803,0.67733 h -0.338667 v -0.67733 h -0.677334 v -0.33867 h 1.016001 z"
         style="font-family:'思源黑体 VF';-inkscape-font-specification:'思源黑体 VF Bold'"
         id="path1292" />
      <path
         d="m 40.245947,151.3957 v 0.33867 h -0.677334 v 0.67733 h -0.338667 v -1.016 z m 0.812801,0 h 1.016001 v 0.33867 h -1.016001 z m 1.828802,0 h 1.016001 v 0.33867 H 42.88755 Z m 1.828802,0 h 1.016001 v 0.33867 h -1.016001 z m 1.828802,0 h 1.016001 v 0.33867 h -1.016001 z m 2.844802,0 v 1.016 h -0.338667 v -0.67733 h -0.677334 v -0.33867 z m -9.821343,2.8448 h -0.338667 v -1.016 h 0.338667 z m 9.482676,-1.016 h 0.338667 v 1.016 h -0.338667 z m -9.482676,2.84481 h -0.338667 v -1.01601 h 0.338667 z m 9.482676,-1.01601 h 0.338667 v 1.01601 h -0.338667 z m -9.482676,2.84481 h -0.338667 v -1.016 h 0.338667 z m 9.482676,-1.016 h 0.338667 v 1.016 h -0.338667 z m -9.482676,2.8448 h -0.338667 v -1.016 h 0.338667 z m 9.482676,-1.016 h 0.338667 v 1.016 h -0.338667 z m -9.482676,2.50613 h 0.677334 v 0.33867 h -1.016001 v -1.016 h 0.338667 z m 9.482676,-0.67733 h 0.338667 v 1.016 h -1.016001 v -0.33867 h 0.677334 z m -7.992541,0.67733 h 1.016001 v 0.33867 h -1.016001 z m 1.828802,0 h 1.016001 v 0.33867 H 42.88755 Z m 1.828802,0 h 1.016001 v 0.33867 h -1.016001 z m 1.828802,0 h 1.016001 v 0.33867 H 46.545154 Z M 42.88755,153.2245 h 1.016001 v 0.33867 H 42.88755 Z m 1.828802,0 h 1.016001 v 0.33867 h -1.016001 z m 2.844803,0 v 1.016 h -0.338667 v -0.67733 h -0.677334 v -0.33867 z m -0.338667,1.8288 h 0.338667 v 1.01601 h -0.338667 z m 0,1.82881 h 0.338667 v 1.016 h -0.338667 z m -5.147739,-3.65761 v 0.33867 h -0.677334 v 0.67733 h -0.338667 v -1.016 z m -0.677334,2.84481 h -0.338667 v -1.01601 h 0.338667 z m 0,1.8288 h -0.338667 v -1.016 h 0.338667 z m 0,1.49013 h 0.677334 v 0.33867 h -1.016001 v -1.016 h 0.338667 z m 1.490135,0 h 1.016001 v 0.33867 H 42.88755 Z m 1.828802,0 h 1.016001 v 0.33867 h -1.016001 z m 2.506136,-0.67733 h 0.338667 v 1.016 h -1.016001 v -0.33867 h 0.677334 z"
         style="font-family:'思源黑体 VF';-inkscape-font-specification:'思源黑体 VF Bold'"
         id="path1294" />
      <path
         d="m 50.518848,151.3957 h 1.016001 v 0.33867 h -0.677334 v 0.67733 h -0.338667 z m 1.828802,0 h 1.016001 v 0.33867 H 52.34765 Z m 1.828802,0 h 1.016001 v 0.33867 h -1.016001 z m 1.828802,0 h 1.016001 v 1.016 h -0.338667 v -0.67733 h -0.677334 z m -5.147739,2.8448 h -0.338667 v -1.016 h 0.338667 z m 5.825073,-1.016 h 0.338667 v 1.016 h -0.338667 z m -5.825073,2.84481 h -0.338667 v -1.01601 h 0.338667 z m 4.334938,-1.01601 v 0.33867 h -0.677334 v 0.67734 h -0.338667 v -1.01601 z m 1.828802,0 v 1.01601 h -0.338667 v -0.67734 h -0.677334 v -0.33867 z m 0.812801,0 h 1.016001 v 0.33867 h -1.016001 z m 2.844803,0 v 1.01601 h -0.338667 v -0.67734 h -0.677334 v -0.33867 z m -9.821344,2.50614 h 0.677334 v 0.33867 h -1.016001 v -1.016 h 0.338667 z m 3.657604,0 h 0.677334 v 0.33867 h -1.016001 v -1.016 h 0.338667 z m 2.167469,-0.67733 h 0.338667 v 1.016 h -1.016001 v -0.33867 h 0.677334 z m 3.657604,0 h 0.338667 v 1.016 h -0.338667 z m -7.992542,0.67733 h 1.016001 v 0.33867 H 52.34765 Z m 2.167469,2.16747 h -0.338667 v -1.016 h 0.338667 z m 5.825073,-1.016 h 0.338667 v 1.016 h -0.338667 z m -5.825073,2.50613 h 0.677334 v 0.33867 h -1.016001 v -1.016 h 0.338667 z m 5.825073,-0.67733 h 0.338667 v 1.016 h -1.016001 v -0.33867 h 0.677334 z m -4.334938,0.67733 h 1.016001 v 0.33867 h -1.016001 z m 1.828802,0 h 1.016001 v 0.33867 h -1.016001 z"
         style="font-family:'思源黑体 VF';-inkscape-font-specification:'思源黑体 VF Bold'"
         id="path1296" />
      <path
         d="m 62.439929,162.67331 v -10.82605 h 2.178758 v 0.54186 h -1.478846 v 9.75361 h 1.478846 v 0.53058 z"
         style="font-family:'思源黑体 VF';-inkscape-font-specification:'思源黑体 VF Bold'"
         id="path1298" />
      <path
         d="m 65.995925,160.76549 v -0.77894 h 1.851379 v -6.32178 h -1.478846 v -0.59831 q 0.541868,-0.0903 0.948268,-0.22578 0.406401,-0.14676 0.72249,-0.33867 h 0.7112 v 7.48454 h 1.682047 v 0.77894 z"
         style="font-family:'思源黑体 VF';-inkscape-font-specification:'思源黑体 VF Bold'"
         id="path1300" />
      <path
         d="m 72.701527,156.30637 q -0.282223,0 -0.496712,-0.19191 -0.2032,-0.2032 -0.2032,-0.53058 0,-0.33866 0.2032,-0.54186 0.214489,-0.20321 0.496712,-0.20321 0.282222,0 0.485422,0.20321 0.203201,0.2032 0.203201,0.54186 0,0.32738 -0.203201,0.53058 -0.2032,0.19191 -0.485422,0.19191 z m 0,4.60587 q -0.282223,0 -0.496712,-0.2032 -0.2032,-0.2032 -0.2032,-0.51929 0,-0.33866 0.2032,-0.54186 0.214489,-0.2032 0.496712,-0.2032 0.282222,0 0.485422,0.2032 0.203201,0.2032 0.203201,0.54186 0,0.31609 -0.203201,0.51929 -0.2032,0.2032 -0.485422,0.2032 z"
         style="font-family:'思源黑体 VF';-inkscape-font-specification:'思源黑体 VF Bold'"
         id="path1302" />
      <path
         d="m 74.575475,162.67331 v -0.53058 h 1.490135 v -9.75361 h -1.490135 v -0.54186 h 2.178758 v 10.82605 z"
         style="font-family:'思源黑体 VF';-inkscape-font-specification:'思源黑体 VF Bold'"
         id="path1304" />
      <path
         d="m 80.107028,151.76823 h 0.767645 v 7.59743 q 0,0.38383 0.09031,0.59832 0.1016,0.2032 0.372533,0.28222 0.270934,0.079 0.790223,0.079 0.158045,0 0.51929,0 0.361244,0 0.835378,0 0.474134,0 0.948268,0 0.485423,0 0.869245,0 0.395112,0 0.587023,0 0.519289,0 0.778934,-0.18062 0.270934,-0.18062 0.383823,-0.66605 0.112889,-0.48542 0.180622,-1.38853 0.1016,0.0677 0.237067,0.13547 0.135467,0.0677 0.270934,0.12417 0.135467,0.0452 0.237067,0.0677 -0.07902,0.99342 -0.259645,1.58044 -0.180622,0.57574 -0.598312,0.8128 -0.417689,0.24836 -1.23049,0.24836 -0.1016,0 -0.383823,0 -0.270933,0 -0.666045,0 -0.395111,0 -0.824089,0 -0.428979,0 -0.82409,0 -0.383823,0 -0.666045,0 -0.270934,0 -0.361245,0 -0.790223,0 -1.241779,-0.14676 -0.451556,-0.13546 -0.632179,-0.508 -0.180622,-0.37253 -0.180622,-1.06115 z"
         style="font-family:'思源黑体 VF';-inkscape-font-specification:'思源黑体 VF Bold'"
         id="path1306" />
      <path
         d="m 103.06866,154.65819 0.53057,-0.56444 q 0.84667,0.4064 1.73849,0.9144 0.89183,0.49671 1.72721,1.06116 0.83537,0.56444 1.53529,1.14017 0.69991,0.56445 1.16275,1.09503 l -0.59831,0.66604 q -0.45155,-0.53058 -1.14018,-1.10631 -0.68862,-0.57573 -1.51271,-1.15147 -0.82409,-0.58702 -1.70462,-1.10631 -0.88054,-0.53058 -1.73849,-0.94827 z m 5.10258,-2.69804 0.8128,0.2032 q -0.46285,1.30951 -1.06116,2.58515 -0.59831,1.27565 -1.37724,2.4497 -0.77894,1.16275 -1.76107,2.16746 -0.97085,1.00472 -2.17876,1.78365 -0.0564,-0.0903 -0.16933,-0.19191 -0.1016,-0.1016 -0.21449,-0.2032 -0.1016,-0.1016 -0.2032,-0.16933 1.18533,-0.73378 2.1336,-1.70463 0.95956,-0.98213 1.71591,-2.11102 0.76765,-1.12889 1.33209,-2.34809 0.57574,-1.23049 0.97085,-2.46098 z"
         style="font-family:'思源黑体 VF';-inkscape-font-specification:'思源黑体 VF Bold'"
         id="path1308" />
    </g>
    <g
       aria-label="⿱⺈⿹⿴　㐅"
       id="text2192-8-5-2-3-8"
       style="font-weight:bold;font-size:11.2889px;font-family:'Sarasa Mono CL';-inkscape-font-specification:'Sarasa Mono CL Bold';stroke-width:3;stroke-dasharray:12, 3">
      <path
         d="m 6.379248,165.96467 v 0.33867 H 5.7019139 v 0.67733 h -0.338667 v -1.016 z m 0.8128008,0 h 1.016001 v 0.33867 h -1.016001 z m 1.8288018,0 h 1.0160014 v 0.33867 H 9.0208506 Z m 1.8288024,0 h 1.016001 v 0.33867 h -1.016001 z m 1.828801,0 h 1.016001 v 0.33867 h -1.016001 z m 2.844803,0 v 1.016 H 15.18459 v -0.67733 h -0.677334 v -0.33867 z m -9.8213431,2.8448 h -0.338667 v -1.016 h 0.338667 z m 9.4826761,-1.016 h 0.338667 v 1.016 H 15.18459 Z m -9.4826761,2.8448 h -0.338667 v -1.016 h 0.338667 z m 9.4826761,-1.016 h 0.338667 v 1.016 H 15.18459 Z m -9.4826761,2.84481 h -0.338667 v -1.016 h 0.338667 z m 9.4826761,-1.016 h 0.338667 v 1.016 H 15.18459 Z m -9.4826761,2.8448 h -0.338667 v -1.016 h 0.338667 z m 9.4826761,-1.016 h 0.338667 v 1.016 H 15.18459 Z m -9.4826761,2.50613 H 6.379248 v 0.33867 H 5.3632469 v -1.016 h 0.338667 z m 9.4826761,-0.67733 h 0.338667 v 1.016 h -1.016001 v -0.33867 h 0.677334 z m -7.9925412,0.67733 h 1.016001 v 0.33867 h -1.016001 z m 1.8288018,0 h 1.0160014 v 0.33867 H 9.0208506 Z m 1.8288024,0 h 1.016001 v 0.33867 h -1.016001 z m 1.828801,0 h 1.016001 v 0.33867 h -1.016001 z m -1.727201,-4.91067 v 0.33867 H 9.9352516 v -0.33867 z m 1.828801,0 v 0.33867 h -1.016001 v -0.33867 z m 1.828802,0 v 0.33867 h -1.016001 v -0.33867 z m -7.3152071,0 v 0.33867 H 6.2776478 v -0.33867 z m 1.8288018,0 v 0.33867 h -1.016001 v -0.33867 z"
         style="font-family:'思源黑体 VF';-inkscape-font-specification:'思源黑体 VF Bold'"
         id="path1277" />
      <path
         d="m 20.862907,165.8292 0.869245,0.16934 q -0.383822,0.77893 -0.970845,1.56915 -0.587023,0.79023 -1.399824,1.51272 -0.8128,0.72249 -1.862668,1.3208 -0.04516,-0.1016 -0.146756,-0.22578 -0.09031,-0.12418 -0.191911,-0.22578 -0.09031,-0.11289 -0.180623,-0.18062 1.004713,-0.51929 1.761069,-1.18534 0.767645,-0.66604 1.298223,-1.37724 0.530579,-0.7112 0.82409,-1.37725 z m -0.04516,1.15147 h 3.736626 v 0.7112 h -4.278494 z m 3.556003,0 h 0.180623 l 0.135466,-0.0339 0.541868,0.34996 q -0.293512,0.59831 -0.72249,1.25307 -0.428978,0.64347 -0.903112,1.25307 -0.462845,0.59831 -0.891823,1.06115 -0.112889,-0.0903 -0.282223,-0.2032 -0.169333,-0.11289 -0.3048,-0.18062 0.417689,-0.44027 0.846668,-1.016 0.428978,-0.58702 0.801511,-1.19662 0.372534,-0.62089 0.598312,-1.10632 z"
         style="font-family:'思源黑体 VF';-inkscape-font-specification:'思源黑体 VF Bold'"
         id="path1279" />
      <path
         d="m 37.085057,176.12468 v -0.33867 h 0.677334 v -0.67733 h 0.338667 v 1.016 z m -0.812801,0 h -1.016001 v -0.33867 h 1.016001 z m -1.828802,0 h -1.016001 v -0.33867 h 1.016001 z m -1.828802,0 h -1.016001 v -0.33867 h 1.016001 z m -1.828801,0 H 29.76985 v -0.33867 h 1.016001 z m -2.844803,0 v -1.016 h 0.338667 v 0.67733 h 0.677334 v 0.33867 z m 9.821343,-2.8448 h 0.338667 v 1.016 h -0.338667 z m 0,-1.8288 h 0.338667 v 1.016 h -0.338667 z m -9.482676,1.016 h -0.338667 v -1.016 h 0.338667 z m 9.482676,-2.84481 h 0.338667 v 1.016 h -0.338667 z m -9.482676,-2.6416 h -0.338667 v -1.016 h 1.016001 v 0.33867 h -0.677334 z m 7.992541,-0.67733 h -1.016001 v -0.33867 h 1.016001 z m -1.828802,0 h -1.016001 v -0.33867 h 1.016001 z m -1.828802,0 h -1.016001 v -0.33867 h 1.016001 z m -1.828801,0 H 29.76985 v -0.33867 h 1.016001 z m -2.506136,7.99254 h -0.338667 v -1.016 h 0.338667 z m 9.482676,-6.50241 h 0.338667 v 1.016 h -0.338667 z m -9.482676,2.8448 h -0.338667 v -1.016 h 0.338667 z m 9.482676,-4.33493 h -0.677334 v -0.33867 h 1.016001 v 1.016 h -0.338667 z m -9.482676,2.50613 h -0.338667 v -1.016 h 0.338667 z m 6.739473,5.38481 h 0.338667 v 1.016 h -0.338667 z m 0,-1.8288 h 0.338667 v 1.016 h -0.338667 z m 0,-1.82881 h 0.338667 v 1.01601 h -0.338667 z m -2.506136,-1.8288 h 1.016001 v 0.33867 h -1.016001 z m 2.844803,0 v 1.016 h -0.338667 v -0.67733 h -0.677334 v -0.33867 z m -6.502406,0.33867 v -0.33867 h 1.016001 v 0.33867 z m 1.828801,0 v -0.33867 h 1.016001 v 0.33867 z m 1.828802,0 v -0.33867 h 1.016001 v 0.33867 z m 2.844803,0.67733 h -0.338667 v -0.67733 h -0.677334 v -0.33867 h 1.016001 z"
         style="font-family:'思源黑体 VF';-inkscape-font-specification:'思源黑体 VF Bold'"
         id="path1281" />
      <path
         d="m 40.245947,165.96467 v 0.33867 h -0.677334 v 0.67733 h -0.338667 v -1.016 z m 0.812801,0 h 1.016001 v 0.33867 h -1.016001 z m 1.828802,0 h 1.016001 v 0.33867 H 42.88755 Z m 1.828802,0 h 1.016001 v 0.33867 h -1.016001 z m 1.828802,0 h 1.016001 v 0.33867 h -1.016001 z m 2.844802,0 v 1.016 h -0.338667 v -0.67733 h -0.677334 v -0.33867 z m -9.821343,2.8448 h -0.338667 v -1.016 h 0.338667 z m 9.482676,-1.016 h 0.338667 v 1.016 h -0.338667 z m -9.482676,2.8448 h -0.338667 v -1.016 h 0.338667 z m 9.482676,-1.016 h 0.338667 v 1.016 h -0.338667 z m -9.482676,2.84481 h -0.338667 v -1.016 h 0.338667 z m 9.482676,-1.016 h 0.338667 v 1.016 h -0.338667 z m -9.482676,2.8448 h -0.338667 v -1.016 h 0.338667 z m 9.482676,-1.016 h 0.338667 v 1.016 h -0.338667 z m -9.482676,2.50613 h 0.677334 v 0.33867 h -1.016001 v -1.016 h 0.338667 z m 9.482676,-0.67733 h 0.338667 v 1.016 h -1.016001 v -0.33867 h 0.677334 z m -7.992541,0.67733 h 1.016001 v 0.33867 h -1.016001 z m 1.828802,0 h 1.016001 v 0.33867 H 42.88755 Z m 1.828802,0 h 1.016001 v 0.33867 h -1.016001 z m 1.828802,0 h 1.016001 v 0.33867 h -1.016001 z m -3.657604,-7.99254 h 1.016001 v 0.33867 H 42.88755 Z m 1.828802,0 h 1.016001 v 0.33867 h -1.016001 z m 2.844803,0 v 1.016 h -0.338667 v -0.67733 h -0.677334 v -0.33867 z m -0.338667,1.8288 h 0.338667 v 1.016 h -0.338667 z m 0,1.82881 h 0.338667 v 1.016 h -0.338667 z m -5.147739,-3.65761 v 0.33867 h -0.677334 v 0.67733 h -0.338667 v -1.016 z m -0.677334,2.8448 h -0.338667 v -1.016 h 0.338667 z m 0,1.82881 h -0.338667 v -1.016 h 0.338667 z m 0,1.49013 h 0.677334 v 0.33867 h -1.016001 v -1.016 h 0.338667 z m 1.490135,0 h 1.016001 v 0.33867 H 42.88755 Z m 1.828802,0 h 1.016001 v 0.33867 h -1.016001 z m 2.506136,-0.67733 h 0.338667 v 1.016 h -1.016001 v -0.33867 h 0.677334 z"
         style="font-family:'思源黑体 VF';-inkscape-font-specification:'思源黑体 VF Bold'"
         id="path1283" />
      <path
         d="m 63.783308,169.22716 0.530579,-0.56444 q 0.846667,0.4064 1.73849,0.9144 0.891823,0.49671 1.727202,1.06115 0.835379,0.56445 1.53529,1.14018 0.699912,0.56445 1.162757,1.09503 l -0.598312,0.66604 q -0.451556,-0.53058 -1.140178,-1.10631 -0.688623,-0.57573 -1.512713,-1.15147 -0.82409,-0.58702 -1.704624,-1.10631 -0.880534,-0.53058 -1.738491,-0.94827 z m 5.102583,-2.69804 0.812801,0.2032 q -0.462845,1.30951 -1.061157,2.58515 -0.598311,1.27565 -1.377245,2.44969 -0.778935,1.16276 -1.761069,2.16747 -0.970845,1.00472 -2.178758,1.78365 -0.05644,-0.0903 -0.169333,-0.19191 -0.1016,-0.1016 -0.214489,-0.2032 -0.1016,-0.1016 -0.2032,-0.16934 1.185334,-0.73377 2.133602,-1.70462 0.959556,-0.98213 1.715913,-2.11102 0.767645,-1.12889 1.33209,-2.34809 0.575734,-1.23049 0.970845,-2.46098 z"
         style="font-family:'思源黑体 VF';-inkscape-font-specification:'思源黑体 VF Bold'"
         id="path1285" />
    </g>
    <g
       aria-label="⿱⺈⿹"
       id="text2192-8-5-2-3-8-0"
       style="font-weight:bold;font-size:11.2889px;font-family:'Sarasa Mono CL';-inkscape-font-specification:'Sarasa Mono CL Bold';stroke-width:3;stroke-dasharray:12, 3">
      <path
         d="m 6.379248,179.97483 v 0.33867 H 5.7019139 v 0.67733 h -0.338667 v -1.016 z m 0.8128008,0 h 1.016001 v 0.33867 h -1.016001 z m 1.8288018,0 h 1.0160014 v 0.33867 H 9.0208506 Z m 1.8288024,0 h 1.016001 v 0.33867 h -1.016001 z m 1.828801,0 h 1.016001 v 0.33867 h -1.016001 z m 2.844803,0 v 1.016 H 15.18459 v -0.67733 h -0.677334 v -0.33867 z m -9.8213431,2.84481 h -0.338667 v -1.01601 h 0.338667 z m 9.4826761,-1.01601 h 0.338667 v 1.01601 H 15.18459 Z m -9.4826761,2.84481 h -0.338667 v -1.016 h 0.338667 z m 9.4826761,-1.016 h 0.338667 v 1.016 H 15.18459 Z m -9.4826761,2.8448 h -0.338667 v -1.016 h 0.338667 z m 9.4826761,-1.016 h 0.338667 v 1.016 H 15.18459 Z m -9.4826761,2.8448 h -0.338667 v -1.016 h 0.338667 z m 9.4826761,-1.016 h 0.338667 v 1.016 H 15.18459 Z m -9.4826761,2.50614 H 6.379248 v 0.33866 H 5.3632469 v -1.016 h 0.338667 z m 9.4826761,-0.67734 h 0.338667 v 1.016 h -1.016001 v -0.33866 h 0.677334 z m -7.9925412,0.67734 h 1.016001 v 0.33866 h -1.016001 z m 1.8288018,0 h 1.0160014 v 0.33866 H 9.0208506 Z m 1.8288024,0 h 1.016001 v 0.33866 h -1.016001 z m 1.828801,0 h 1.016001 v 0.33866 h -1.016001 z m -1.727201,-4.91068 v 0.33867 H 9.9352516 v -0.33867 z m 1.828801,0 v 0.33867 h -1.016001 v -0.33867 z m 1.828802,0 v 0.33867 h -1.016001 v -0.33867 z m -7.3152071,0 v 0.33867 H 6.2776478 v -0.33867 z m 1.8288018,0 v 0.33867 h -1.016001 v -0.33867 z"
         style="font-family:'思源黑体 VF';-inkscape-font-specification:'思源黑体 VF Bold'"
         id="path1270" />
      <path
         d="m 20.862907,179.83937 0.869245,0.16933 q -0.383822,0.77893 -0.970845,1.56916 -0.587023,0.79022 -1.399824,1.51271 -0.8128,0.72249 -1.862668,1.3208 -0.04516,-0.1016 -0.146756,-0.22578 -0.09031,-0.12418 -0.191911,-0.22578 -0.09031,-0.11288 -0.180623,-0.18062 1.004713,-0.51929 1.761069,-1.18533 0.767645,-0.66605 1.298223,-1.37725 0.530579,-0.7112 0.82409,-1.37724 z m -0.04516,1.15146 h 3.736626 v 0.7112 h -4.278494 z m 3.556003,0 h 0.180623 l 0.135466,-0.0339 0.541868,0.34995 q -0.293512,0.59831 -0.72249,1.25307 -0.428978,0.64347 -0.903112,1.25307 -0.462845,0.59831 -0.891823,1.06116 -0.112889,-0.0903 -0.282223,-0.20321 -0.169333,-0.11288 -0.3048,-0.18062 0.417689,-0.44026 0.846668,-1.016 0.428978,-0.58702 0.801511,-1.19662 0.372534,-0.62089 0.598312,-1.10631 z"
         style="font-family:'思源黑体 VF';-inkscape-font-specification:'思源黑体 VF Bold'"
         id="path1272" />
      <path
         d="m 37.085057,190.13484 v -0.33866 h 0.677334 v -0.67734 h 0.338667 v 1.016 z m -0.812801,0 h -1.016001 v -0.33866 h 1.016001 z m -1.828802,0 h -1.016001 v -0.33866 h 1.016001 z m -1.828802,0 h -1.016001 v -0.33866 h 1.016001 z m -1.828801,0 H 29.76985 v -0.33866 h 1.016001 z m -2.844803,0 v -1.016 h 0.338667 v 0.67734 h 0.677334 v 0.33866 z m 9.821343,-2.8448 h 0.338667 v 1.016 h -0.338667 z m 0,-1.8288 h 0.338667 v 1.016 h -0.338667 z m -9.482676,1.016 h -0.338667 v -1.016 h 0.338667 z m 9.482676,-2.8448 h 0.338667 v 1.016 h -0.338667 z m -9.482676,-2.64161 h -0.338667 v -1.016 h 1.016001 v 0.33867 h -0.677334 z m 7.992541,-0.67733 h -1.016001 v -0.33867 h 1.016001 z m -1.828802,0 h -1.016001 v -0.33867 h 1.016001 z m -1.828802,0 h -1.016001 v -0.33867 h 1.016001 z m -1.828801,0 H 29.76985 v -0.33867 h 1.016001 z m -2.506136,7.99254 h -0.338667 v -1.016 h 0.338667 z m 9.482676,-6.50241 h 0.338667 v 1.01601 h -0.338667 z m -9.482676,2.84481 h -0.338667 v -1.016 h 0.338667 z m 9.482676,-4.33494 h -0.677334 v -0.33867 h 1.016001 v 1.016 h -0.338667 z m -9.482676,2.50614 h -0.338667 v -1.01601 h 0.338667 z m 6.739473,5.3848 h 0.338667 v 1.016 h -0.338667 z m 0,-1.8288 h 0.338667 v 1.016 h -0.338667 z m 0,-1.8288 h 0.338667 v 1.016 h -0.338667 z m -2.506136,-1.8288 h 1.016001 v 0.33866 h -1.016001 z m 2.844803,0 v 1.016 h -0.338667 v -0.67734 h -0.677334 v -0.33866 z m -6.502406,0.33866 v -0.33866 h 1.016001 v 0.33866 z m 1.828801,0 v -0.33866 h 1.016001 v 0.33866 z m 1.828802,0 v -0.33866 h 1.016001 v 0.33866 z m 2.844803,0.67734 h -0.338667 v -0.67734 h -0.677334 v -0.33866 h 1.016001 z"
         style="font-family:'思源黑体 VF';-inkscape-font-specification:'思源黑体 VF Bold'"
         id="path1274" />
    </g>
    <g
       aria-label="⿱⺈"
       id="text2192-8-5-2-3-8-0-2"
       style="font-weight:bold;font-size:11.2889px;font-family:'Sarasa Mono CL';-inkscape-font-specification:'Sarasa Mono CL Bold';stroke-width:3;stroke-dasharray:12, 3">
      <path
         d="m 6.379248,193.98499 v 0.33867 H 5.7019139 v 0.67734 h -0.338667 v -1.01601 z m 0.8128008,0 h 1.016001 v 0.33867 h -1.016001 z m 1.8288018,0 h 1.0160014 v 0.33867 H 9.0208506 Z m 1.8288024,0 h 1.016001 v 0.33867 h -1.016001 z m 1.828801,0 h 1.016001 v 0.33867 h -1.016001 z m 2.844803,0 V 195.001 H 15.18459 v -0.67734 h -0.677334 v -0.33867 z m -9.8213431,2.84481 h -0.338667 v -1.016 h 0.338667 z m 9.4826761,-1.016 h 0.338667 v 1.016 H 15.18459 Z m -9.4826761,2.8448 h -0.338667 v -1.016 h 0.338667 z m 9.4826761,-1.016 h 0.338667 v 1.016 H 15.18459 Z m -9.4826761,2.8448 h -0.338667 v -1.016 h 0.338667 z m 9.4826761,-1.016 h 0.338667 v 1.016 H 15.18459 Z m -9.4826761,2.8448 h -0.338667 v -1.016 h 0.338667 z m 9.4826761,-1.016 h 0.338667 v 1.016 H 15.18459 Z m -9.4826761,2.50614 H 6.379248 v 0.33867 H 5.3632469 V 203.129 h 0.338667 z M 15.18459,203.129 h 0.338667 v 1.01601 h -1.016001 v -0.33867 h 0.677334 z m -7.9925412,0.67734 h 1.016001 v 0.33867 h -1.016001 z m 1.8288018,0 h 1.0160014 v 0.33867 H 9.0208506 Z m 1.8288024,0 h 1.016001 v 0.33867 h -1.016001 z m 1.828801,0 h 1.016001 v 0.33867 h -1.016001 z m -1.727201,-4.91067 v 0.33866 H 9.9352516 v -0.33866 z m 1.828801,0 v 0.33866 h -1.016001 v -0.33866 z m 1.828802,0 v 0.33866 h -1.016001 v -0.33866 z m -7.3152071,0 v 0.33866 H 6.2776478 v -0.33866 z m 1.8288018,0 v 0.33866 h -1.016001 v -0.33866 z"
         style="font-family:'思源黑体 VF';-inkscape-font-specification:'思源黑体 VF Bold'"
         id="path1265" />
      <path
         d="m 20.862907,193.84953 0.869245,0.16933 q -0.383822,0.77894 -0.970845,1.56916 -0.587023,0.79022 -1.399824,1.51271 -0.8128,0.72249 -1.862668,1.3208 -0.04516,-0.1016 -0.146756,-0.22578 -0.09031,-0.12417 -0.191911,-0.22577 -0.09031,-0.11289 -0.180623,-0.18063 1.004713,-0.51929 1.761069,-1.18533 0.767645,-0.66605 1.298223,-1.37725 0.530579,-0.7112 0.82409,-1.37724 z m -0.04516,1.15147 h 3.736626 v 0.7112 h -4.278494 z m 3.556003,0 h 0.180623 l 0.135466,-0.0339 0.541868,0.34996 q -0.293512,0.59831 -0.72249,1.25306 -0.428978,0.64347 -0.903112,1.25307 -0.462845,0.59831 -0.891823,1.06116 -0.112889,-0.0903 -0.282223,-0.2032 -0.169333,-0.11289 -0.3048,-0.18063 0.417689,-0.44026 0.846668,-1.016 0.428978,-0.58702 0.801511,-1.19662 0.372534,-0.62089 0.598312,-1.10631 z"
         style="font-family:'思源黑体 VF';-inkscape-font-specification:'思源黑体 VF Bold'"
         id="path1267" />
    </g>
    <path
       id="path3541-2-8-6"
       d="m 102.75331,147.09542 h 8.39897 v -0.90278 -8.31991 h -4.74087 v 0.90279 h 3.82672 v 7.41712 h -7.48482 v -8.31991 h -0.91415 v 9.70521 h 0.91415 z"
       style="font-size:11.2889px;font-family:'Source Han Sans SC VF';-inkscape-font-specification:'Source Han Sans SC VF';display:inline;stroke-width:3;stroke-dasharray:12, 3"
       sodipodi:nodetypes="cccccccccccccc" />
    <path
       id="path3541-2-8-6-3"
       d="m 83.145055,157.66764 4.36711,-0.0127 v -0.72285 -6.37308 l -2.96866,0.0127 v 0.72286 l 2.2367,-0.0127 v 5.65022 l -3.63515,0.0127 v -6.37308 h -0.73196 v 7.55544 h 0.73196 z"
       style="font-size:11.2889px;font-family:'Source Han Sans SC VF';-inkscape-font-specification:'Source Han Sans SC VF';display:inline;stroke-width:2.40208;stroke-dasharray:9.60832, 2.40208"
       sodipodi:nodetypes="cccccccccccccc" />
    <g
       aria-label="雪"
       id="text2373"
       style="font-size:11.2889px;font-family:'Source Han Sans K VF';-inkscape-font-specification:'Source Han Sans K VF';stroke-width:3;stroke-dasharray:12, 3"
       transform="translate(-654.99996,118.66443)">
      <path
         d="m 789.19991,25.781272 v 0.654756 h 9.88908 v -0.654756 z m 1.10631,1.591735 v 0.688623 h 6.82979 v -0.688623 z m 0.2032,-3.206048 v 0.688623 h 6.26534 v 3.612448 h 0.85796 v -4.301071 z"
         id="path2375"
         sodipodi:nodetypes="ccccccccccccccccc" />
      <path
         d="m 789.19991,20.779583 v 0.654756 h 9.88908 v -0.654756 z m 1.10631,1.591735 v 0.688623 h 6.82979 v -0.688623 z m 0.2032,-3.206048 v 0.688623 h 6.26534 v 3.612448 h 0.85796 V 19.16527 Z"
         id="path2375-1"
         sodipodi:nodetypes="ccccccccccccccccc"
         style="font-size:11.2889px;font-family:'Source Han Sans K VF';-inkscape-font-specification:'Source Han Sans K VF';stroke-width:3;stroke-dasharray:12, 3" />
    </g>
    <g
       aria-label="雪"
       id="text2373-2"
       style="font-size:11.2889px;font-family:'Source Han Sans K VF';-inkscape-font-specification:'Source Han Sans K VF';display:inline;stroke-width:3;stroke-dasharray:12, 3"
       transform="translate(-677.2606,132.56952)">
      <path
         d="m 789.19991,25.781272 v 0.654756 h 9.88908 v -0.654756 z m 1.10631,1.591735 v 0.688623 h 6.82979 v -0.688623 z m 0.2032,-3.206048 v 0.688623 h 6.26534 v 3.612448 h 0.85796 v -4.301071 z"
         id="path2375-8"
         sodipodi:nodetypes="ccccccccccccccccc" />
      <path
         d="m 789.19991,20.779583 v 0.654756 h 9.88908 v -0.654756 z m 1.10631,1.591735 v 0.688623 h 6.82979 v -0.688623 z m 0.2032,-3.206048 v 0.688623 h 6.26534 v 3.612448 h 0.85796 V 19.16527 Z"
         id="path2375-1-2"
         sodipodi:nodetypes="ccccccccccccccccc"
         style="font-size:11.2889px;font-family:'Source Han Sans K VF';-inkscape-font-specification:'Source Han Sans K VF';stroke-width:3;stroke-dasharray:12, 3" />
    </g>
    <g
       aria-label="雪"
       id="text2373-2-5"
       style="font-size:11.2889px;font-family:'Source Han Sans K VF';-inkscape-font-specification:'Source Han Sans K VF';display:inline;stroke-width:3;stroke-dasharray:12, 3"
       transform="translate(-717.53481,147.43969)">
      <path
         d="m 789.19991,25.781272 v 0.654756 h 9.88908 v -0.654756 z m 1.10631,1.591735 v 0.688623 h 6.82979 v -0.688623 z m 0.2032,-3.206048 v 0.688623 h 6.26534 v 3.612448 h 0.85796 v -4.301071 z"
         id="path2375-8-4"
         sodipodi:nodetypes="ccccccccccccccccc" />
      <path
         d="m 789.19991,20.779583 v 0.654756 h 9.88908 v -0.654756 z m 1.10631,1.591735 v 0.688623 h 6.82979 v -0.688623 z m 0.2032,-3.206048 v 0.688623 h 6.26534 v 3.612448 h 0.85796 V 19.16527 Z"
         id="path2375-1-2-4"
         sodipodi:nodetypes="ccccccccccccccccc"
         style="font-size:11.2889px;font-family:'Source Han Sans K VF';-inkscape-font-specification:'Source Han Sans K VF';stroke-width:3;stroke-dasharray:12, 3" />
    </g>
    <g
       aria-label="雪"
       id="text2373-2-5-6"
       style="font-size:11.2889px;font-family:'Source Han Sans K VF';-inkscape-font-specification:'Source Han Sans K VF';display:inline;stroke-width:3;stroke-dasharray:12, 3"
       transform="translate(-739.02218,161.17046)">
      <path
         d="m 789.19991,25.781272 v 0.654756 h 9.88908 v -0.654756 z m 1.10631,1.591735 v 0.688623 h 6.82979 v -0.688623 z m 0.2032,-3.206048 v 0.688623 h 6.26534 v 3.612448 h 0.85796 v -4.301071 z"
         id="path2375-8-4-1"
         sodipodi:nodetypes="ccccccccccccccccc" />
      <path
         d="m 789.19991,20.779583 v 0.654756 h 9.88908 v -0.654756 z m 1.10631,1.591735 v 0.688623 h 6.82979 v -0.688623 z m 0.2032,-3.206048 v 0.688623 h 6.26534 v 3.612448 h 0.85796 V 19.16527 Z"
         id="path2375-1-2-4-4"
         sodipodi:nodetypes="ccccccccccccccccc"
         style="font-size:11.2889px;font-family:'Source Han Sans K VF';-inkscape-font-specification:'Source Han Sans K VF';stroke-width:3;stroke-dasharray:12, 3" />
    </g>
    <g
       id="g3934-2-3-5"
       transform="matrix(4.5845808,0,0,4.5845808,-410.99637,-21.794372)">
      <path
         id="path3695-5-4-9"
         style="font-size:11.2889px;font-family:'Source Han Sans SC VF';-inkscape-font-specification:'Source Han Sans SC VF';fill:#000000;stroke-width:3;stroke-dasharray:12, 3"
         d="m 129.94381,50.317527 c 0.0979,0.01195 0.20535,0.01804 0.32238,0.01804 h 0.24832 l 4.21418,0.01646 h 0.40635 0.2597 c 0.32361,0 0.56822,-0.09024 0.73379,-0.270861 0.1731,-0.173097 0.29724,-0.46288 0.37254,-0.869281 0.0753,-0.413925 0.12415,-0.967047 0.14675,-1.659433 -0.11289,-0.0301 -0.24466,-0.07903 -0.39518,-0.146758 -0.15052,-0.07526 -0.28219,-0.154369 -0.39508,-0.237159 -0.015,0.624653 -0.0376,1.110123 -0.0677,1.456316 -0.0226,0.338666 -0.0678,0.575783 -0.13549,0.71125 -0.0677,0.135469 -0.17307,0.203117 -0.31606,0.203117 H 135.08999 134.74 l -4.14633,-0.01646 h -0.22577 c -0.18064,0 -0.29779,-0.03757 -0.34999,-0.11283 -0.0393,-0.0624 -0.0642,-0.174156 -0.0741,-0.334885 z" />
      <path
         id="path5148"
         style="font-size:11.2889px;font-family:'Source Han Sans SC VF';-inkscape-font-specification:'Source Han Sans SC VF';fill:#ff0000;stroke-width:3;stroke-dasharray:12, 3"
         d="m 129.94381,50.317527 v -1.242489 c -0.003,-0.05252 -0.005,-0.110105 -0.005,-0.173135 v -8.376405 h -0.8579 l -1.1e-4,8.365133 c -0.004,0.368771 0.0344,0.658442 0.10156,0.869168 0.0672,0.218252 0.18969,0.368758 0.36126,0.451548 0.10637,0.05133 0.2404,0.08668 0.40014,0.10618 z" />
      <path
         style="font-size:11.2889px;font-family:'Source Han Sans SC VF';-inkscape-font-specification:'Source Han Sans SC VF';display:inline;stroke-width:2.97822;stroke-dasharray:11.9129, 2.97822"
         d="m 132.35121,46.708331 5.41457,-0.01578 v -0.896234 -6.854731 l -3.6807,0.01578 v 0.896235 l 2.77318,-0.01578 v 5.958495 l -4.50705,0.01578"
         id="path5153"
         sodipodi:nodetypes="ccccccccc" />
      <path
         style="font-size:11.2889px;font-family:'Source Han Sans SC VF';-inkscape-font-specification:'Source Han Sans SC VF';display:inline;fill:#ff0000;stroke-width:3.15637;stroke-dasharray:12.6255, 3.15637"
         d="m 132.35121,38.957366 h -0.90752 v 8.705986 h 0.90752 z"
         id="path3541-2-8-6-3-7"
         sodipodi:nodetypes="ccccc" />
    </g>
    <g
       aria-label="[2]"
       id="text9468-4-4"
       style="font-size:11.2889px;font-family:'Source Han Sans';-inkscape-font-specification:'Source Han Sans';stroke-width:3;stroke-dasharray:12, 3">
      <path
         d="m 273.11902,208.0437 h 2.2352 v -0.58702 h -1.46756 v -9.67459 h 1.46756 v -0.59831 h -2.2352 z"
         id="path1258" />
      <path
         d="m 276.23475,206.12459 h 5.20418 v -0.89183 h -2.29165 c -0.41769,0 -0.92569,0.0452 -1.35467,0.079 1.9417,-1.84009 3.25121,-3.52214 3.25121,-5.18161 0,-1.46756 -0.93698,-2.42711 -2.41583,-2.42711 -1.04986,0 -1.77235,0.47413 -2.4384,1.20791 l 0.59831,0.58702 c 0.46285,-0.55315 1.03858,-0.95955 1.71592,-0.95955 1.02729,0 1.524,0.68862 1.524,1.63689 0,1.4224 -1.19663,3.07058 -3.79307,5.33965 z"
         id="path1260" />
      <path
         d="m 282.3872,208.0437 h 2.24649 v -10.85992 h -2.24649 v 0.59831 h 1.46756 v 9.67459 h -1.46756 z"
         id="path1262" />
    </g>
    <g
       aria-label="[1]"
       id="text9468-5-6-9-3"
       style="font-size:11.2889px;font-family:'Source Han Sans';-inkscape-font-specification:'Source Han Sans';stroke-width:3;stroke-dasharray:12, 3">
      <path
         d="m 273.11902,176.79604 h 2.2352 v -0.58703 h -1.46756 v -9.67458 h 1.46756 v -0.59832 h -2.2352 z"
         id="path1251" />
      <path
         d="m 276.73146,174.87692 h 4.53814 v -0.85795 h -1.65947 v -7.41681 h -0.79023 c -0.45155,0.25964 -0.98213,0.45155 -1.71591,0.58702 v 0.65476 h 1.47885 v 6.17503 h -1.85138 z"
         id="path1253" />
      <path
         d="m 282.3872,176.79604 h 2.24649 v -10.85993 h -2.24649 v 0.59832 h 1.46756 v 9.67458 h -1.46756 z"
         id="path1255" />
    </g>
    <path
       id="path3541-2-8-3-3"
       d="m 232.67443,168.40538 v 3.54706 32.68896 h 12.95983 v -3.54706 h -9.36813 v -29.1419 h 29.4079 v 29.1419 h -9.36813 v 3.54706 h 9.36813 3.5917 v -36.23602 h -3.5917 z"
       style="font-size:11.2889px;font-family:'Source Han Sans SC VF';-inkscape-font-specification:'Source Han Sans SC VF';display:inline;stroke-width:11.7871;stroke-dasharray:47.148, 11.7871" />
    <path
       d="m 56.267841,166.72271 v 1.03091 h 1.93161 v -1.03091 z m 0,3.11443 v 3.60276 h 2.48504 v -3.60276 h -1.99295 l -0.002,-0.6728 h 2.66749 v 4.95922 h -3.15785 v 0.64025 h -0.71621 v -0.9441 -3.98257 -3.11443 h -0.88984 v 3.11443 3.98257 0.33641 c 0,0.22788 0.0217,0.41236 0.076,0.53173 0.0434,0.11937 0.14107,0.20618 0.28214,0.24959 0.14107,0.0434 0.34725,0.0651 0.61855,0.0651 h 0.41236 0.6728 0.77048 0.6945 0.46663 c 0.20618,0 0.36895,-0.0326 0.48832,-0.10852 0.10852,-0.076 0.18448,-0.20618 0.23874,-0.41236 0.0434,-0.19533 0.076,-0.48833 0.0977,-0.86814 0.0868,0.0543 0.19534,0.11937 0.32556,0.17363 0.11936,0.0651 0.23873,0.10852 0.34725,0.14107 -0.0434,0.45577 -0.10852,0.81388 -0.19533,1.08517 -0.0868,0.27129 -0.22789,0.45577 -0.42322,0.56429 -0.19533,0.10852 -0.47747,0.16277 -0.85728,0.16277 h -0.39066 -0.72706 -0.81388 -0.71621 -0.40152 c -0.43406,0 -0.77047,-0.0434 -1.02006,-0.14107 -0.24958,-0.0977 -0.41236,-0.24959 -0.51002,-0.47747 -0.0977,-0.23874 -0.15193,-0.55344 -0.15193,-0.97665 v -5.7514 h -2.47418 v -2.32226 h 7.46589 v 2.33311 h -2.66952 v 1.43242 m -4.05853,-3.11443 v 1.02006 h 1.73627 v -1.02006 z"
       style="display:inline;fill:#000000;fill-opacity:1;fill-rule:nonzero;stroke:none;stroke-width:0.0339115"
       id="path6134-1-1"
       sodipodi:nodetypes="ccccccccccccccccccccccscssccccscccccsssccccsscccccccccccccc" />
    <path
       d="m 33.148279,198.03106 v -3.11444 h -0.88984 v 3.11444 3.98257 0.3364 c 0,0.22789 0.0217,0.41237 0.076,0.53173 0.0434,0.11937 0.14107,0.20619 0.28214,0.24959 0.14107,0.0434 0.34725,0.0651 0.61855,0.0651 h 0.41236 0.6728 0.77048 0.6945 0.46663 c 0.20618,0 0.36895,-0.0326 0.48832,-0.10851 0.10852,-0.076 0.18448,-0.20619 0.23874,-0.41237 0.0434,-0.19533 0.076,-0.48832 0.0977,-0.86813 0.0868,0.0543 0.19534,0.11937 0.32556,0.17362 0.11936,0.0651 0.23873,0.10852 0.34725,0.14108 -0.0434,0.45577 -0.10852,0.81387 -0.19533,1.08517 -0.0868,0.27129 -0.22789,0.45577 -0.42322,0.56428 -0.19533,0.10852 -0.47747,0.16278 -0.85728,0.16278 h -0.39066 -0.72706 -0.81388 -0.71621 -0.40152 c -0.43406,0 -0.77047,-0.0434 -1.02006,-0.14107 -0.24958,-0.0977 -0.41236,-0.24959 -0.51002,-0.47748 -0.0977,-0.23873 -0.15193,-0.55343 -0.15193,-0.97665 v -0.32555 h -0.57514 v 1.10687 h -2.39822 v -0.51003 h 1.79053 v -0.6728 h -2.30056 v -0.56429 h 2.30056 v -0.6077 h -1.76883 v -0.51003 h 2.37652 v 1.04177 h 0.57514 v -2.55015 h -0.55343 v 0.99836 h -2.41993 v -0.49918 h 1.81223 v -0.57514 h -2.31141 v -0.56429 h 2.31141 v -0.54258 h -1.79053 v -0.52089 h 2.39823 v 0.98751 h 0.55343 v -1.44328 h -2.47418 v -2.32226 h 7.46589 v 2.33311 h -2.66952 v 0.75962 h 3.15785 v 4.95923 h -3.15785 v 0.64025 h -0.71621 v -0.9441 z m 0.71621,-3.11444 v 1.03091 h 1.93161 v -1.03091 z m 0,3.11444 v 3.60276 h 2.48504 v -3.60276 z m -4.05853,-3.11444 v 1.02006 h 1.73627 v -1.02006 z m 4.22131,4.1345 0.32555,-0.41237 c 0.22789,0.17363 0.47747,0.39066 0.72706,0.64025 0.16278,-0.3364 0.293,-0.6728 0.39066,-0.9875 l 0.51003,0.15192 c -0.0651,0.20618 -0.14107,0.42322 -0.21703,0.6294 -0.0868,0.20618 -0.18448,0.41236 -0.28214,0.6077 0.28214,0.29299 0.51003,0.57513 0.68365,0.84643 l -0.3581,0.47747 c -0.076,-0.11937 -0.16278,-0.26044 -0.26044,-0.40151 -0.0977,-0.14107 -0.21704,-0.27129 -0.33641,-0.41237 -0.22788,0.42322 -0.47747,0.78133 -0.74876,1.09603 -0.0434,-0.0434 -0.10852,-0.10852 -0.19533,-0.19533 -0.0868,-0.076 -0.16278,-0.14108 -0.22789,-0.19534 0.14107,-0.16277 0.28214,-0.3364 0.42322,-0.52088 0.13022,-0.18448 0.24959,-0.39066 0.36895,-0.59684 -0.13022,-0.13022 -0.26044,-0.26044 -0.40151,-0.39066 -0.14107,-0.11937 -0.27129,-0.23874 -0.40151,-0.3364 z"
       style="display:inline;fill:#000000;fill-opacity:1;fill-rule:nonzero;stroke:none;stroke-width:0.0339115"
       id="path6134"
       sodipodi:nodetypes="cccccscssccccscccccsssccccsscsccccccccccccccccccccccccccccccccccccccccccccccccccccccccccccccccccccccscccccccc"
       inkscape:label="path6134" />
    <path
       d="m 44.268555,183.91822 v -3.11444 h -0.88984 v 3.11444 3.98257 0.3364 c 0,0.22789 0.0217,0.41236 0.076,0.53173 0.0434,0.11937 0.14107,0.20618 0.28214,0.24959 0.14107,0.0434 0.34725,0.0651 0.61855,0.0651 h 0.41236 0.6728 0.77048 0.6945 0.46663 c 0.20618,0 0.36895,-0.0326 0.48832,-0.10852 0.10852,-0.076 0.18448,-0.20618 0.23874,-0.41236 0.0434,-0.19533 0.076,-0.48833 0.0977,-0.86813 0.0868,0.0543 0.19534,0.11936 0.32556,0.17362 0.11936,0.0651 0.23873,0.10852 0.34725,0.14107 -0.0434,0.45578 -0.10852,0.81388 -0.19533,1.08517 -0.0868,0.2713 -0.22789,0.45577 -0.42322,0.56429 -0.19533,0.10852 -0.47747,0.16278 -0.85728,0.16278 h -0.39066 -0.72706 -0.81388 -0.71621 -0.40152 c -0.43406,0 -0.77047,-0.0434 -1.02006,-0.14108 -0.24958,-0.0977 -0.41236,-0.24958 -0.51002,-0.47747 -0.0977,-0.23874 -0.15193,-0.55344 -0.15193,-0.97665 v -5.7514 h -2.47418 v -2.32226 h 7.46589 v 2.33311 h -2.66952 v 0.75962 h 3.15785 v 4.95922 h -3.15785 v 0.64025 h -0.71621 v -0.94409 z m 0.71621,-3.11444 v 1.03091 h 1.93161 v -1.03091 z m 0,3.11444 v 3.60276 h 2.48504 v -3.60276 z m -4.05853,-3.11444 v 1.02006 h 1.73627 v -1.02006 z m 4.22131,4.1345 0.32555,-0.41237 c 0.22789,0.17363 0.47747,0.39066 0.72706,0.64025 0.16278,-0.3364 0.293,-0.6728 0.39066,-0.9875 l 0.51003,0.15192 c -0.0651,0.20618 -0.14107,0.42322 -0.21703,0.6294 -0.0868,0.20618 -0.18448,0.41236 -0.28214,0.60769 0.28214,0.293 0.51003,0.57514 0.68365,0.84644 l -0.3581,0.47747 c -0.076,-0.11937 -0.16278,-0.26044 -0.26044,-0.40151 -0.0977,-0.14107 -0.21704,-0.2713 -0.33641,-0.41237 -0.22788,0.42322 -0.47747,0.78132 -0.74876,1.09602 -0.0434,-0.0434 -0.10852,-0.10851 -0.19533,-0.19533 -0.0868,-0.076 -0.16278,-0.14107 -0.22789,-0.19533 0.14107,-0.16277 0.28214,-0.3364 0.42322,-0.52088 0.13022,-0.18448 0.24959,-0.39066 0.36895,-0.59684 -0.13022,-0.13022 -0.26044,-0.26044 -0.40151,-0.39066 -0.14107,-0.11937 -0.27129,-0.23874 -0.40151,-0.3364 z"
       style="display:inline;fill:#000000;fill-opacity:1;fill-rule:nonzero;stroke:none;stroke-width:0.0339115"
       id="path6134-1"
       sodipodi:nodetypes="cccccscssccccscccccsssccccssccccccccccccccccccccccccccccccccccccccccscccccccc" />
  </g>
</svg>
