<?xml version="1.0" encoding="UTF-8" standalone="no"?>
<!-- Created with Inkscape (http://www.inkscape.org/) -->

<svg
   width="500"
   height="500"
   viewBox="0 0 132.29166 132.29167"
   version="1.1"
   id="svg5"
   inkscape:version="1.2.2 (732a01da63, 2022-12-09)"
   sodipodi:docname="stroke-hori-index.svg"
   xmlns:inkscape="http://www.inkscape.org/namespaces/inkscape"
   xmlns:sodipodi="http://sodipodi.sourceforge.net/DTD/sodipodi-0.dtd"
   xmlns="http://www.w3.org/2000/svg"
   xmlns:svg="http://www.w3.org/2000/svg">
  <sodipodi:namedview
     id="namedview7"
     pagecolor="#ffffff"
     bordercolor="#000000"
     borderopacity="0.25"
     inkscape:showpageshadow="2"
     inkscape:pageopacity="0.0"
     inkscape:pagecheckerboard="0"
     inkscape:deskcolor="#d1d1d1"
     inkscape:document-units="mm"
     showgrid="false"
     inkscape:zoom="0.69304828"
     inkscape:cx="-139.23994"
     inkscape:cy="107.49612"
     inkscape:window-width="1920"
     inkscape:window-height="1001"
     inkscape:window-x="-9"
     inkscape:window-y="-9"
     inkscape:window-maximized="1"
     inkscape:current-layer="layer1" />
  <defs
     id="defs2" />
  <g
     inkscape:label="Layer 1"
     inkscape:groupmode="layer"
     id="layer1">
    <g
       aria-label="申"
       id="text2192"
       style="font-weight:bold;font-size:105.833px;font-family:'CJK Strokes AppF Bk';-inkscape-font-specification:'CJK Strokes AppF Bk Bold';stroke-width:1.32292"
       transform="matrix(1.0408883,0,0,1.0408883,-1.9919787,-1.8348639)">
      <path
         d="M 69.585405,77.999131 V 62.018348 h 29.63324 v 15.980783 z m -36.724051,0 V 62.018348 H 61.542097 V 77.999131 Z M 61.542097,39.370086 V 54.715871 H 32.861354 V 39.370086 Z m 37.676548,0 V 54.715871 H 69.585405 V 39.370086 Z M 69.585405,31.855943 V 17.885987 H 61.542097 V 31.855943 H 25.135545 v 59.795645 h 7.725809 v -6.032481 h 28.680743 v 28.786573 h 8.043308 V 85.619107 h 29.63324 v 5.503316 h 7.937475 v -59.26648 z"
         style="font-weight:normal;font-family:'Noto Sans CJK SC';-inkscape-font-specification:'Noto Sans CJK SC'"
         id="path2504" />
    </g>
    <g
       aria-label="0"
       id="text2641"
       style="font-size:17.6389px;font-family:'Noto Sans CJK SC';-inkscape-font-specification:'Noto Sans CJK SC';stroke:#ff0000;stroke-width:0.433662;stroke-dasharray:1.73465, 0.433662"
       transform="matrix(1.0408883,0,0,1.0408883,-1.9919787,20.689421)">
      <path
         d="m 12.614857,21.17502 q -0.476251,0 -0.97014,-0.08819 -0.47625,-0.08819 -0.899584,-0.317501 Q 10.3218,20.54002 9.9866605,20.187242 9.6691603,19.816825 9.4574935,19.393491 9.2634656,18.952519 9.1752711,18.476268 9.1047155,17.982379 9.1047155,17.506129 v -5.909032 q 0,-0.47625 0.070556,-0.952501 0.088195,-0.493889 0.2822224,-0.9172225 0.2116668,-0.4409726 0.5468051,-0.7937506 0.33514,-0.3704169 0.758473,-0.5997226 0.423334,-0.2293057 0.899584,-0.3351391 0.47625,-0.1234723 0.952501,-0.1234723 0.47625,0 0.9525,0.1234723 0.476251,0.1058334 0.899584,0.3351391 0.423334,0.2293057 0.758473,0.5997226 0.335139,0.352778 0.529167,0.7937506 0.211667,0.4233335 0.282222,0.9172225 0.0882,0.476251 0.0882,0.952501 v 5.909032 q 0,0.47625 -0.0882,0.970139 -0.07055,0.476251 -0.282222,0.917223 -0.194028,0.423334 -0.529167,0.793751 -0.3175,0.352778 -0.740834,0.582083 -0.423333,0.229306 -0.917223,0.317501 -0.47625,0.08819 -0.9525,0.08819 z m -1.552224,-6.244171 3.104447,-2.451807 v -0.881945 q 0,-0.352778 -0.07056,-0.705556 Q 14.02596,10.521124 13.814298,10.238902 13.62027,9.9390403 13.285131,9.7802902 12.949992,9.6215401 12.597214,9.6215401 q -0.352778,0 -0.687917,0.176389 -0.317501,0.1587501 -0.511528,0.4586109 -0.194028,0.282223 -0.264584,0.635001 -0.07056,0.352778 -0.07056,0.705556 z m 1.552224,4.550837 q 0.352778,0 0.670278,-0.158751 0.335139,-0.15875 0.529167,-0.458611 0.211667,-0.299861 0.282222,-0.652639 0.07056,-0.352778 0.07056,-0.705556 v -3.333753 l -3.104447,2.451808 v 0.881945 q 0,0.352778 0.07056,0.705556 0.07056,0.352778 0.264584,0.652639 0.211666,0.299861 0.529167,0.458611 0.335139,0.158751 0.687917,0.158751 z"
         style="font-weight:bold;font-family:'Sarasa Mono CL';-inkscape-font-specification:'Sarasa Mono CL Bold';stroke:none"
         id="path2973" />
    </g>
    <g
       aria-label="1"
       id="text2641-1"
       style="font-size:17.6389px;font-family:'Noto Sans CJK SC';-inkscape-font-specification:'Noto Sans CJK SC';stroke:#ff0000;stroke-width:0.433662;stroke-dasharray:1.73465, 0.433662"
       transform="matrix(1.0408883,0,0,1.0408883,-1.9919787,22.407375)">
      <path
         d="M 12.103329,40.943539 V 29.795753 l -2.028474,1.622779 -0.9701394,-1.040695 2.9986134,-2.39889 h 1.975557 v 12.964592 z"
         style="font-weight:bold;font-family:'Sarasa Mono CL';-inkscape-font-specification:'Sarasa Mono CL Bold';stroke:none"
         id="path2970" />
    </g>
    <g
       aria-label="2"
       id="text2641-1-5"
       style="font-size:17.6389px;font-family:'Noto Sans CJK SC';-inkscape-font-specification:'Noto Sans CJK SC';stroke:#ff0000;stroke-width:0.433662;stroke-dasharray:1.73465, 0.433662"
       transform="matrix(1.0408883,0,0,1.0408883,-1.9919787,21.071189)">
      <path
         d="m 9.1399936,63.797302 v -0.01764 q 0,-0.458611 0.017639,-0.917222 0.017639,-0.476251 0.070556,-0.917223 0.070556,-0.458612 0.1940279,-0.899584 0.1234723,-0.458612 0.3175002,-0.864306 0.194028,-0.423334 0.4409733,-0.81139 0.264583,-0.388056 0.564445,-0.723195 0.299861,-0.352778 0.635,-0.652639 0.352778,-0.3175 0.723195,-0.599723 0.370417,-0.282222 0.723195,-0.582083 0.352778,-0.299862 0.617361,-0.670279 0.282223,-0.370417 0.405695,-0.811389 0.141111,-0.458612 0.141111,-0.917223 0,-0.246945 -0.03528,-0.47625 -0.01764,-0.229306 -0.08819,-0.458612 -0.07056,-0.229305 -0.194028,-0.423333 -0.105833,-0.211667 -0.282222,-0.370417 -0.176389,-0.15875 -0.405695,-0.229306 -0.229306,-0.07056 -0.458611,-0.07056 -0.317501,0 -0.617362,0.123473 -0.299861,0.123472 -0.493889,0.370417 -0.176389,0.246944 -0.264584,0.564445 -0.08819,0.299861 -0.08819,0.617361 0,0 0,0 0,0 0,0.01764 H 9.1047158 q 0,-0.01764 0,-0.01764 0,0 0,-0.01764 0,-0.440972 0.088195,-0.881945 0.1058334,-0.458611 0.3175002,-0.846667 0.2116668,-0.405695 0.529167,-0.723195 0.335139,-0.335139 0.723194,-0.529167 0.405695,-0.211667 0.846668,-0.282223 0.458611,-0.08819 0.917223,-0.08819 0.47625,0 0.9525,0.105833 0.476251,0.08819 0.881945,0.33514 0.423334,0.229305 0.740834,0.599722 0.3175,0.370417 0.511528,0.81139 0.194028,0.423333 0.264584,0.917222 0.07055,0.476251 0.07055,0.952501 0,0.582084 -0.15875,1.146529 -0.141111,0.564444 -0.440972,1.075973 -0.299862,0.493889 -0.723195,0.917222 -0.423334,0.405695 -0.864306,0.776112 -0.440973,0.370417 -0.864307,0.776112 -0.423333,0.405694 -0.776111,0.881945 -0.335139,0.458611 -0.582084,1.005417 -0.229306,0.529167 -0.3175,1.111251 h 4.65667 V 63.7973 Z"
         style="font-weight:bold;font-family:'Sarasa Mono CL';-inkscape-font-specification:'Sarasa Mono CL Bold';stroke:none"
         id="path2967" />
    </g>
    <g
       aria-label="-1"
       id="text2641-1-4"
       style="font-size:17.6389px;font-family:'Noto Sans CJK SC';-inkscape-font-specification:'Noto Sans CJK SC';stroke:#ff0000;stroke-width:0.433662;stroke-dasharray:1.73465, 0.433662"
       transform="matrix(1.0408883,0,0,1.0408883,-3.3969281,-1.8348639)">
      <path
         d="m 112.58529,81.122405 v -1.693334 h 6.73806 v 1.693334 z"
         style="font-weight:bold;font-family:'Sarasa Mono CL';-inkscape-font-specification:'Sarasa Mono CL Bold';stroke:none"
         id="path2954" />
      <path
         d="M 124.31516,86.272964 V 75.125179 l -2.02848,1.622779 -0.97014,-1.040695 2.99862,-2.398891 h 1.97555 v 12.964592 z"
         style="font-weight:bold;font-family:'Sarasa Mono CL';-inkscape-font-specification:'Sarasa Mono CL Bold';stroke:none"
         id="path2956" />
    </g>
    <g
       aria-label="-2"
       id="text2641-1-5-2"
       style="font-size:17.6389px;font-family:'Noto Sans CJK SC';-inkscape-font-specification:'Noto Sans CJK SC';stroke:#ff0000;stroke-width:0.433662;stroke-dasharray:1.73465, 0.433662"
       transform="matrix(1.0408883,0,0,1.0408883,-3.1159403,-1.8348639)">
      <path
         d="m 112.31534,58.646743 v -1.693334 h 6.73806 v 1.693334 z"
         style="font-weight:bold;font-family:'Sarasa Mono CL';-inkscape-font-specification:'Sarasa Mono CL Bold';stroke:none"
         id="path2949" />
      <path
         d="m 121.13479,63.797302 v -0.01764 q 0,-0.458611 0.0176,-0.917222 0.0176,-0.476251 0.0706,-0.917223 0.0706,-0.458612 0.19403,-0.899584 0.12347,-0.458612 0.3175,-0.864306 0.19403,-0.423334 0.44097,-0.81139 0.26459,-0.388056 0.56445,-0.723195 0.29986,-0.352778 0.635,-0.652639 0.35278,-0.3175 0.72319,-0.599723 0.37042,-0.282222 0.7232,-0.582083 0.35278,-0.299862 0.61736,-0.670279 0.28222,-0.370417 0.40569,-0.811389 0.14112,-0.458612 0.14112,-0.917223 0,-0.246945 -0.0353,-0.47625 -0.0176,-0.229306 -0.0882,-0.458612 -0.0705,-0.229305 -0.19402,-0.423333 -0.10584,-0.211667 -0.28223,-0.370417 -0.17639,-0.15875 -0.40569,-0.229306 -0.22931,-0.07056 -0.45861,-0.07056 -0.3175,0 -0.61736,0.123473 -0.29987,0.123472 -0.49389,0.370417 -0.17639,0.246944 -0.26459,0.564445 -0.0882,0.299861 -0.0882,0.617361 0,0 0,0 0,0 0,0.01764 h -1.95792 q 0,-0.01764 0,-0.01764 0,0 0,-0.01764 0,-0.440972 0.0882,-0.881945 0.10583,-0.458611 0.3175,-0.846667 0.21166,-0.405695 0.52916,-0.723195 0.33514,-0.335139 0.7232,-0.529167 0.40569,-0.211667 0.84666,-0.282223 0.45862,-0.08819 0.91723,-0.08819 0.47625,0 0.9525,0.105833 0.47625,0.08819 0.88194,0.33514 0.42334,0.229305 0.74084,0.599722 0.3175,0.370417 0.51153,0.81139 0.19402,0.423333 0.26458,0.917222 0.0705,0.476251 0.0705,0.952501 0,0.582084 -0.15875,1.146529 -0.14111,0.564444 -0.44097,1.075973 -0.29986,0.493889 -0.72319,0.917222 -0.42334,0.405695 -0.86431,0.776112 -0.44097,0.370417 -0.86431,0.776112 -0.42333,0.405694 -0.77611,0.881945 -0.33514,0.458611 -0.58208,1.005417 -0.22931,0.529167 -0.3175,1.111251 h 4.65667 V 63.7973 Z"
         style="font-weight:bold;font-family:'Sarasa Mono CL';-inkscape-font-specification:'Sarasa Mono CL Bold';stroke:none"
         id="path2951" />
    </g>
    <g
       aria-label="-3"
       id="text2641-1-7-2"
       style="font-size:17.6389px;font-family:'Noto Sans CJK SC';-inkscape-font-specification:'Noto Sans CJK SC';stroke:#ff0000;stroke-width:0.433662;stroke-dasharray:1.73465, 0.433662"
       transform="matrix(1.0408883,0,0,1.0408883,-2.8349525,-1.8348639)">
      <path
         d="m 112.04539,35.79298 v -1.693335 h 6.73806 v 1.693335 z"
         style="font-weight:bold;font-family:'Sarasa Mono CL';-inkscape-font-specification:'Sarasa Mono CL Bold';stroke:none"
         id="path2944" />
      <path
         d="m 124.26915,41.08465 q -0.45862,0 -0.93487,-0.0882 -0.45861,-0.07055 -0.88194,-0.264583 -0.4057,-0.211667 -0.75847,-0.529167 -0.33514,-0.335139 -0.56445,-0.740834 -0.2293,-0.423334 -0.33514,-0.881945 -0.10583,-0.458611 -0.10583,-0.917223 h 1.95792 q 0,0.335139 0.10583,0.670278 0.10583,0.317501 0.3175,0.582084 0.22931,0.246945 0.54681,0.370417 0.3175,0.105833 0.65264,0.105833 0.37041,0 0.70555,-0.141111 0.33514,-0.15875 0.54681,-0.440972 0.21166,-0.299862 0.29986,-0.65264 0.10583,-0.352778 0.10583,-0.705556 0,-0.352778 -0.10583,-0.705556 -0.10583,-0.352778 -0.3175,-0.635 -0.19403,-0.299861 -0.49389,-0.493889 -0.29986,-0.211667 -0.635,-0.317501 -0.33514,-0.105833 -0.70556,-0.123472 -0.35278,-0.03528 -0.70555,-0.03528 v -1.693334 q 0.3175,0 0.65264,-0.01764 0.33514,-0.03528 0.635,-0.141111 0.3175,-0.105834 0.58208,-0.299862 0.26458,-0.194027 0.44097,-0.458611 0.19403,-0.264584 0.28223,-0.582084 0.0882,-0.335139 0.0882,-0.652639 0,-0.3175 -0.0706,-0.617362 -0.0705,-0.3175 -0.24694,-0.582083 -0.15875,-0.264584 -0.45861,-0.405695 -0.28222,-0.15875 -0.58209,-0.15875 -0.29986,0 -0.58208,0.141111 -0.28222,0.123472 -0.45861,0.370417 -0.15875,0.246945 -0.24695,0.546806 -0.0705,0.299861 -0.0705,0.599723 0,0 0,0 0,0 0,0.01764 h -1.95792 q 0,-0.01764 0,-0.01764 0,-0.01764 0,-0.01764 0,-0.440973 0.0882,-0.881945 0.10583,-0.440973 0.29986,-0.829029 0.19402,-0.405694 0.51152,-0.723195 0.31751,-0.3175 0.70556,-0.529167 0.38806,-0.211666 0.82903,-0.282222 0.44097,-0.0882 0.88194,-0.0882 0.44098,0 0.88195,0.0882 0.45861,0.08819 0.84667,0.3175 0.38805,0.211667 0.68791,0.546806 0.3175,0.335139 0.51153,0.740834 0.19403,0.405695 0.28222,0.846667 0.10584,0.440973 0.10584,0.899584 0,0.458611 -0.12347,0.917223 -0.10584,0.458611 -0.35278,0.846667 -0.24695,0.388056 -0.59973,0.705556 -0.35277,0.3175 -0.77611,0.511528 0.47625,0.194028 0.88195,0.529167 0.40569,0.317501 0.68792,0.740834 0.28222,0.423334 0.42333,0.934862 0.14111,0.493889 0.14111,1.005417 0,0.476251 -0.10583,0.952501 -0.10584,0.47625 -0.33514,0.917223 -0.21167,0.423333 -0.54681,0.776111 -0.33514,0.335139 -0.75847,0.564445 -0.42333,0.229306 -0.89959,0.3175 -0.47625,0.0882 -0.97013,0.0882 z"
         style="font-weight:bold;font-family:'Sarasa Mono CL';-inkscape-font-specification:'Sarasa Mono CL Bold';stroke:none"
         id="path2946" />
    </g>
  </g>
</svg>
