<?xml version="1.0" encoding="UTF-8" standalone="no"?>
<!-- Created with Inkscape (http://www.inkscape.org/) -->

<svg
   width="500"
   height="500"
   viewBox="0 0 132.29166 132.29167"
   version="1.1"
   id="svg5"
   inkscape:version="1.2.2 (732a01da63, 2022-12-09)"
   sodipodi:docname="stroke-hori-index-virtual.svg"
   xmlns:inkscape="http://www.inkscape.org/namespaces/inkscape"
   xmlns:sodipodi="http://sodipodi.sourceforge.net/DTD/sodipodi-0.dtd"
   xmlns="http://www.w3.org/2000/svg"
   xmlns:svg="http://www.w3.org/2000/svg">
  <sodipodi:namedview
     id="namedview7"
     pagecolor="#ffffff"
     bordercolor="#000000"
     borderopacity="0.25"
     inkscape:showpageshadow="2"
     inkscape:pageopacity="0.0"
     inkscape:pagecheckerboard="0"
     inkscape:deskcolor="#d1d1d1"
     inkscape:document-units="mm"
     showgrid="false"
     inkscape:zoom="1.5285178"
     inkscape:cx="488.38162"
     inkscape:cy="495.57814"
     inkscape:window-width="1920"
     inkscape:window-height="1001"
     inkscape:window-x="-9"
     inkscape:window-y="-9"
     inkscape:window-maximized="1"
     inkscape:current-layer="layer1" />
  <defs
     id="defs2" />
  <g
     inkscape:label="Layer 1"
     inkscape:groupmode="layer"
     id="layer1">
    <g
       aria-label="申"
       id="text2192"
       style="font-weight:bold;font-size:105.833px;font-family:'CJK Strokes AppF Bk';-inkscape-font-specification:'CJK Strokes AppF Bk Bold';stroke-width:1.32292"
       transform="matrix(1.0408883,0,0,1.0408883,-1.9919787,-1.8348639)">
      <path
         d="M 69.585405,77.999131 V 62.018348 h 29.63324 v 15.980783 z m -36.724051,0 V 62.018348 H 61.542097 V 77.999131 Z M 61.542097,39.370086 V 54.715871 H 32.861354 V 39.370086 Z m 37.676548,0 V 54.715871 H 69.585405 V 39.370086 Z M 69.585405,31.855943 V 17.885987 H 61.542097 V 31.855943 H 25.135545 v 59.795645 h 7.725809 v -6.032481 h 28.680743 v 28.786573 h 8.043308 V 85.619107 h 29.63324 v 5.503316 h 7.937475 v -59.26648 z"
         style="font-weight:normal;font-family:'Noto Sans CJK SC';-inkscape-font-specification:'Noto Sans CJK SC'"
         id="path2504" />
    </g>
    <g
       aria-label="0"
       id="text2641"
       style="font-size:17.6389px;font-family:'Noto Sans CJK SC';-inkscape-font-specification:'Noto Sans CJK SC';stroke:#ff0000;stroke-width:0.433662;stroke-dasharray:1.73465, 0.433662"
       transform="matrix(1.0408883,0,0,1.0408883,-1.9919787,2.3410357)">
      <path
         d="m 12.614857,21.17502 q -0.476251,0 -0.97014,-0.08819 -0.47625,-0.08819 -0.899584,-0.317501 Q 10.3218,20.54002 9.9866605,20.187242 9.6691603,19.816825 9.4574935,19.393491 9.2634656,18.952519 9.1752711,18.476268 9.1047155,17.982379 9.1047155,17.506129 v -5.909032 q 0,-0.47625 0.070556,-0.952501 0.088195,-0.493889 0.2822224,-0.9172225 0.2116668,-0.4409726 0.5468051,-0.7937506 0.33514,-0.3704169 0.758473,-0.5997226 0.423334,-0.2293057 0.899584,-0.3351391 0.47625,-0.1234723 0.952501,-0.1234723 0.47625,0 0.9525,0.1234723 0.476251,0.1058334 0.899584,0.3351391 0.423334,0.2293057 0.758473,0.5997226 0.335139,0.352778 0.529167,0.7937506 0.211667,0.4233335 0.282222,0.9172225 0.0882,0.476251 0.0882,0.952501 v 5.909032 q 0,0.47625 -0.0882,0.970139 -0.07055,0.476251 -0.282222,0.917223 -0.194028,0.423334 -0.529167,0.793751 -0.3175,0.352778 -0.740834,0.582083 -0.423333,0.229306 -0.917223,0.317501 -0.47625,0.08819 -0.9525,0.08819 z m -1.552224,-6.244171 3.104447,-2.451807 v -0.881945 q 0,-0.352778 -0.07056,-0.705556 Q 14.02596,10.521124 13.814298,10.238902 13.62027,9.9390403 13.285131,9.7802902 12.949992,9.6215401 12.597214,9.6215401 q -0.352778,0 -0.687917,0.176389 -0.317501,0.1587501 -0.511528,0.4586109 -0.194028,0.282223 -0.264584,0.635001 -0.07056,0.352778 -0.07056,0.705556 z m 1.552224,4.550837 q 0.352778,0 0.670278,-0.158751 0.335139,-0.15875 0.529167,-0.458611 0.211667,-0.299861 0.282222,-0.652639 0.07056,-0.352778 0.07056,-0.705556 v -3.333753 l -3.104447,2.451808 v 0.881945 q 0,0.352778 0.07056,0.705556 0.07056,0.352778 0.264584,0.652639 0.211666,0.299861 0.529167,0.458611 0.335139,0.158751 0.687917,0.158751 z"
         style="font-weight:bold;font-family:'Sarasa Mono CL';-inkscape-font-specification:'Sarasa Mono CL Bold';stroke:none"
         id="path2973" />
    </g>
    <g
       aria-label="1"
       id="text2641-1"
       style="font-size:17.6389px;font-family:'Noto Sans CJK SC';-inkscape-font-specification:'Noto Sans CJK SC';stroke:#ff0000;stroke-width:0.433662;stroke-dasharray:1.73465, 0.433662"
       transform="matrix(1.0408883,0,0,1.0408883,-1.9919787,0.94322616)">
      <path
         d="M 12.103329,40.943539 V 29.795753 l -2.028474,1.622779 -0.9701394,-1.040695 2.9986134,-2.39889 h 1.975557 v 12.964592 z"
         style="font-weight:bold;font-family:'Sarasa Mono CL';-inkscape-font-specification:'Sarasa Mono CL Bold';stroke:none"
         id="path2970" />
    </g>
    <g
       aria-label="2"
       id="text2641-1-5"
       style="font-size:17.6389px;font-family:'Noto Sans CJK SC';-inkscape-font-specification:'Noto Sans CJK SC';stroke:#ff0000;stroke-width:0.433662;stroke-dasharray:1.73465, 0.433662"
       transform="matrix(1.0408883,0,0,1.0408883,-1.9919787,-0.73915579)">
      <path
         d="m 9.1399936,63.797302 v -0.01764 q 0,-0.458611 0.017639,-0.917222 0.017639,-0.476251 0.070556,-0.917223 0.070556,-0.458612 0.1940279,-0.899584 0.1234723,-0.458612 0.3175002,-0.864306 0.194028,-0.423334 0.4409733,-0.81139 0.264583,-0.388056 0.564445,-0.723195 0.299861,-0.352778 0.635,-0.652639 0.352778,-0.3175 0.723195,-0.599723 0.370417,-0.282222 0.723195,-0.582083 0.352778,-0.299862 0.617361,-0.670279 0.282223,-0.370417 0.405695,-0.811389 0.141111,-0.458612 0.141111,-0.917223 0,-0.246945 -0.03528,-0.47625 -0.01764,-0.229306 -0.08819,-0.458612 -0.07056,-0.229305 -0.194028,-0.423333 -0.105833,-0.211667 -0.282222,-0.370417 -0.176389,-0.15875 -0.405695,-0.229306 -0.229306,-0.07056 -0.458611,-0.07056 -0.317501,0 -0.617362,0.123473 -0.299861,0.123472 -0.493889,0.370417 -0.176389,0.246944 -0.264584,0.564445 -0.08819,0.299861 -0.08819,0.617361 0,0 0,0 0,0 0,0.01764 H 9.1047158 q 0,-0.01764 0,-0.01764 0,0 0,-0.01764 0,-0.440972 0.088195,-0.881945 0.1058334,-0.458611 0.3175002,-0.846667 0.2116668,-0.405695 0.529167,-0.723195 0.335139,-0.335139 0.723194,-0.529167 0.405695,-0.211667 0.846668,-0.282223 0.458611,-0.08819 0.917223,-0.08819 0.47625,0 0.9525,0.105833 0.476251,0.08819 0.881945,0.33514 0.423334,0.229305 0.740834,0.599722 0.3175,0.370417 0.511528,0.81139 0.194028,0.423333 0.264584,0.917222 0.07055,0.476251 0.07055,0.952501 0,0.582084 -0.15875,1.146529 -0.141111,0.564444 -0.440972,1.075973 -0.299862,0.493889 -0.723195,0.917222 -0.423334,0.405695 -0.864306,0.776112 -0.440973,0.370417 -0.864307,0.776112 -0.423333,0.405694 -0.776111,0.881945 -0.335139,0.458611 -0.582084,1.005417 -0.229306,0.529167 -0.3175,1.111251 h 4.65667 V 63.7973 Z"
         style="font-weight:bold;font-family:'Sarasa Mono CL';-inkscape-font-specification:'Sarasa Mono CL Bold';stroke:none"
         id="path2967" />
    </g>
    <g
       aria-label="-1"
       id="text2641-1-4"
       style="font-size:17.6389px;font-family:'Noto Sans CJK SC';-inkscape-font-specification:'Noto Sans CJK SC';stroke:#ff0000;stroke-width:0.433662;stroke-dasharray:1.73465, 0.433662"
       transform="matrix(1.0408883,0,0,1.0408883,-3.3969281,-1.8348639)">
      <path
         d="m 112.58529,81.122405 v -1.693334 h 6.73806 v 1.693334 z"
         style="font-weight:bold;font-family:'Sarasa Mono CL';-inkscape-font-specification:'Sarasa Mono CL Bold';stroke:none"
         id="path2954" />
      <path
         d="M 124.31516,86.272964 V 75.125179 l -2.02848,1.622779 -0.97014,-1.040695 2.99862,-2.398891 h 1.97555 v 12.964592 z"
         style="font-weight:bold;font-family:'Sarasa Mono CL';-inkscape-font-specification:'Sarasa Mono CL Bold';stroke:none"
         id="path2956" />
    </g>
    <g
       aria-label="-2"
       id="text2641-1-5-2"
       style="font-size:17.6389px;font-family:'Noto Sans CJK SC';-inkscape-font-specification:'Noto Sans CJK SC';stroke:#ff0000;stroke-width:0.433662;stroke-dasharray:1.73465, 0.433662"
       transform="matrix(1.0408883,0,0,1.0408883,-3.1159403,-1.8348639)">
      <path
         d="m 112.31534,58.646743 v -1.693334 h 6.73806 v 1.693334 z"
         style="font-weight:bold;font-family:'Sarasa Mono CL';-inkscape-font-specification:'Sarasa Mono CL Bold';stroke:none"
         id="path2949" />
      <path
         d="m 121.13479,63.797302 v -0.01764 q 0,-0.458611 0.0176,-0.917222 0.0176,-0.476251 0.0706,-0.917223 0.0706,-0.458612 0.19403,-0.899584 0.12347,-0.458612 0.3175,-0.864306 0.19403,-0.423334 0.44097,-0.81139 0.26459,-0.388056 0.56445,-0.723195 0.29986,-0.352778 0.635,-0.652639 0.35278,-0.3175 0.72319,-0.599723 0.37042,-0.282222 0.7232,-0.582083 0.35278,-0.299862 0.61736,-0.670279 0.28222,-0.370417 0.40569,-0.811389 0.14112,-0.458612 0.14112,-0.917223 0,-0.246945 -0.0353,-0.47625 -0.0176,-0.229306 -0.0882,-0.458612 -0.0705,-0.229305 -0.19402,-0.423333 -0.10584,-0.211667 -0.28223,-0.370417 -0.17639,-0.15875 -0.40569,-0.229306 -0.22931,-0.07056 -0.45861,-0.07056 -0.3175,0 -0.61736,0.123473 -0.29987,0.123472 -0.49389,0.370417 -0.17639,0.246944 -0.26459,0.564445 -0.0882,0.299861 -0.0882,0.617361 0,0 0,0 0,0 0,0.01764 h -1.95792 q 0,-0.01764 0,-0.01764 0,0 0,-0.01764 0,-0.440972 0.0882,-0.881945 0.10583,-0.458611 0.3175,-0.846667 0.21166,-0.405695 0.52916,-0.723195 0.33514,-0.335139 0.7232,-0.529167 0.40569,-0.211667 0.84666,-0.282223 0.45862,-0.08819 0.91723,-0.08819 0.47625,0 0.9525,0.105833 0.47625,0.08819 0.88194,0.33514 0.42334,0.229305 0.74084,0.599722 0.3175,0.370417 0.51153,0.81139 0.19402,0.423333 0.26458,0.917222 0.0705,0.476251 0.0705,0.952501 0,0.582084 -0.15875,1.146529 -0.14111,0.564444 -0.44097,1.075973 -0.29986,0.493889 -0.72319,0.917222 -0.42334,0.405695 -0.86431,0.776112 -0.44097,0.370417 -0.86431,0.776112 -0.42333,0.405694 -0.77611,0.881945 -0.33514,0.458611 -0.58208,1.005417 -0.22931,0.529167 -0.3175,1.111251 h 4.65667 V 63.7973 Z"
         style="font-weight:bold;font-family:'Sarasa Mono CL';-inkscape-font-specification:'Sarasa Mono CL Bold';stroke:none"
         id="path2951" />
    </g>
    <g
       aria-label="-3"
       id="text2641-1-7-2"
       style="font-size:17.6389px;font-family:'Noto Sans CJK SC';-inkscape-font-specification:'Noto Sans CJK SC';stroke:#ff0000;stroke-width:0.433662;stroke-dasharray:1.73465, 0.433662"
       transform="matrix(1.0408883,0,0,1.0408883,-2.8349525,-1.8348639)">
      <path
         d="m 112.04539,35.79298 v -1.693335 h 6.73806 v 1.693335 z"
         style="font-weight:bold;font-family:'Sarasa Mono CL';-inkscape-font-specification:'Sarasa Mono CL Bold';stroke:none"
         id="path2944" />
      <path
         d="m 124.26915,41.08465 c -0.30575,0 -0.61737,-0.0294 -0.93487,-0.0882 -0.30574,-0.04703 -0.59972,-0.135228 -0.88194,-0.264583 -0.27047,-0.141111 -0.52329,-0.3175 -0.75847,-0.529167 -0.22343,-0.223426 -0.41158,-0.470371 -0.56445,-0.740834 -0.15287,-0.282223 -0.26458,-0.576204 -0.33514,-0.881945 -0.0705,-0.305741 -0.10583,-0.611482 -0.10583,-0.917223 h 1.95792 c 0,0.223426 0.0353,0.446852 0.10583,0.670278 0.0705,0.211667 0.17639,0.405695 0.3175,0.582084 0.15287,0.16463 0.33514,0.288102 0.54681,0.370417 0.21167,0.07055 0.42921,0.105833 0.65264,0.105833 0.24694,0 0.48212,-0.04704 0.70555,-0.141111 0.22343,-0.105833 0.4057,-0.252824 0.54681,-0.440972 0.14111,-0.199908 0.24106,-0.417455 0.29986,-0.65264 0.0705,-0.235185 0.10583,-0.470371 0.10583,-0.705556 0,-0.235185 -0.0353,-0.470371 -0.10583,-0.705556 -0.0705,-0.235185 -0.17639,-0.446852 -0.3175,-0.635 -0.12935,-0.199907 -0.29398,-0.364537 -0.49389,-0.493889 -0.19991,-0.141111 -0.41157,-0.246945 -0.635,-0.317501 -0.22343,-0.07055 -0.45861,-0.111713 -0.70556,-0.123472 -0.23519,-0.02352 -0.47037,-0.03528 -0.70555,-0.03528 v -1.693334 c 0.21167,0 0.42921,-0.0059 0.65264,-0.01764 0.22343,-0.02352 0.43509,-0.07056 0.635,-0.141111 0.21167,-0.07056 0.40569,-0.17051 0.58208,-0.299862 0.17639,-0.129351 0.32338,-0.282222 0.44097,-0.458611 0.12935,-0.176389 0.22343,-0.370417 0.28223,-0.582084 0.0588,-0.223426 0.0882,-0.440972 0.0882,-0.652639 0,-0.211667 -0.0235,-0.417454 -0.0706,-0.617362 -0.047,-0.211667 -0.12931,-0.405694 -0.24694,-0.582083 -0.10583,-0.176389 -0.2587,-0.311621 -0.45861,-0.405695 -0.18815,-0.105833 -0.38218,-0.15875 -0.58209,-0.15875 -0.19991,0 -0.39393,0.04704 -0.58208,0.141111 -0.18815,0.08231 -0.34102,0.205787 -0.45861,0.370417 -0.10583,0.16463 -0.18815,0.346899 -0.24695,0.546806 -0.047,0.199907 -0.0705,0.399815 -0.0705,0.599723 v 0 0.01764 h -1.95792 v -0.01764 -0.01764 c 0,-0.293982 0.0294,-0.587964 0.0882,-0.881945 0.0705,-0.293982 0.17051,-0.570325 0.29986,-0.829029 0.12935,-0.270463 0.29985,-0.511528 0.51152,-0.723195 0.21167,-0.211667 0.44686,-0.388056 0.70556,-0.529167 0.25871,-0.141111 0.53505,-0.235185 0.82903,-0.282222 0.29398,-0.0588 0.58796,-0.0882 0.88194,-0.0882 0.29399,0 0.58797,0.0294 0.88195,0.0882 0.30574,0.05879 0.58796,0.164627 0.84667,0.3175 0.2587,0.141111 0.488,0.32338 0.68791,0.546806 0.21167,0.223426 0.38218,0.470371 0.51153,0.740834 0.12935,0.270463 0.22343,0.552686 0.28222,0.846667 0.0706,0.293982 0.10584,0.593843 0.10584,0.899584 0,0.305741 -0.0412,0.611482 -0.12347,0.917223 -0.0706,0.305741 -0.18815,0.587963 -0.35278,0.846667 -0.16463,0.258704 -0.36454,0.493889 -0.59973,0.705556 -0.23518,0.211667 -0.49388,0.382176 -0.77611,0.511528 0.3175,0.129352 0.61148,0.305741 0.88195,0.529167 0.27046,0.211667 0.49977,0.458612 0.68792,0.740834 0.18815,0.282223 0.32926,0.593843 0.42333,0.934862 0.0941,0.329259 0.14111,0.664398 0.14111,1.005417 0,0.317501 -0.0353,0.635001 -0.10583,0.952501 -0.0706,0.3175 -0.18227,0.623241 -0.33514,0.917223 -0.14111,0.282222 -0.32338,0.540926 -0.54681,0.776111 -0.22343,0.223426 -0.47625,0.411574 -0.75847,0.564445 -0.28222,0.152871 -0.58208,0.258704 -0.89959,0.3175 -0.3175,0.0588 -0.64088,0.0882 -0.97013,0.0882 z"
         style="font-weight:bold;font-family:'Sarasa Mono CL';-inkscape-font-specification:'Sarasa Mono CL Bold';stroke:none"
         id="path2946"
         sodipodi:nodetypes="sccccscccccscccssccscccccsccscccscccsccccsccsscscccscscssccscssccssss" />
    </g>
    <path
       style="fill:none;stroke:#ff0000;stroke-width:3;stroke-dasharray:12, 3;stroke-opacity:1"
       d="M 23.549846,14.995648 H 108.87489"
       id="path356"
       sodipodi:nodetypes="cc" />
    <path
       style="fill:none;stroke:#ff0000;stroke-width:3;stroke-dasharray:12, 3;stroke-opacity:1"
       d="M 24.153296,119.7838 H 109.47834"
       id="path356-3"
       sodipodi:nodetypes="cc" />
    <path
       d="m 10.886072,89.570761 c -0.331263,0 -0.668896,-0.0319 -1.0128893,-0.0956 -0.331252,-0.051 -0.649764,-0.14652 -0.955535,-0.28667 -0.293042,-0.15288 -0.566962,-0.34399 -0.821761,-0.57332 -0.242079,-0.24207 -0.445927,-0.50962 -0.611553,-0.80266 -0.165626,-0.30577 -0.286661,-0.62428 -0.363114,-0.95554 -0.0764,-0.33125 -0.114654,-0.66251 -0.114654,-0.99376 h 2.1213 c 0,0.24207 0.0382,0.48414 0.114664,0.72621 0.0764,0.22933 0.191107,0.43955 0.343993,0.63066 0.165636,0.17837 0.363113,0.31214 0.5924423,0.40133 0.229328,0.0764 0.465027,0.11466 0.707107,0.11466 0.267539,0 0.522349,-0.051 0.764418,-0.15289 0.242079,-0.11466 0.439556,-0.27392 0.592442,-0.47777 0.152886,-0.21659 0.26118,-0.45229 0.324882,-0.7071 0.0764,-0.25481 0.114664,-0.50962 0.114664,-0.76443 0,-0.25481 -0.0382,-0.50962 -0.114664,-0.76444 -0.0764,-0.25481 -0.191107,-0.48414 -0.343993,-0.68798 -0.140145,-0.21659 -0.318512,-0.39496 -0.5351,-0.5351 -0.216588,-0.15289 -0.445927,-0.26756 -0.687996,-0.344 -0.242069,-0.0764 -0.496878,-0.12104 -0.764438,-0.13378 -0.2548103,-0.0255 -0.5096193,-0.0382 -0.7644293,-0.0382 v -1.83464 c 0.229339,0 0.465038,-0.006 0.7071073,-0.0191 0.242069,-0.0255 0.471397,-0.0764 0.687985,-0.152882 0.229339,-0.07644 0.439557,-0.184739 0.630654,-0.324886 0.191107,-0.140145 0.350363,-0.305772 0.477768,-0.496881 0.140155,-0.191108 0.242079,-0.401328 0.305781,-0.630658 0.0637,-0.242071 0.09555,-0.477771 0.09555,-0.707101 0,-0.22933 -0.0255,-0.45229 -0.0765,-0.66888 -0.0509,-0.22933 -0.140104,-0.439549 -0.26754,-0.630657 -0.114664,-0.191109 -0.28029,-0.337625 -0.496878,-0.439549 -0.203848,-0.114665 -0.414076,-0.171998 -0.630664,-0.171998 -0.216599,0 -0.426816,0.05096 -0.630664,0.152887 -0.203837,0.08918 -0.3694743,0.222959 -0.4968783,0.401327 -0.114665,0.178369 -0.203848,0.375847 -0.26755,0.592436 -0.0509,0.21659 -0.0764,0.433179 -0.0764,0.64977 v 0 0.01911 h -2.121299 v -0.01911 -0.01911 c 0,-0.318515 0.03185,-0.637029 0.09555,-0.955543 0.0764,-0.318514 0.184737,-0.617917 0.324882,-0.898209 0.140145,-0.293033 0.324882,-0.554214 0.554211,-0.783545 0.229338,-0.22933 0.484148,-0.420438 0.764438,-0.573325 0.280291,-0.152887 0.579702,-0.254811 0.898214,-0.305774 0.3185123,-0.0637 0.6370243,-0.09556 0.9555353,-0.09556 0.318512,0 0.637035,0.03185 0.955546,0.09556 0.331253,0.0637 0.637024,0.178365 0.917325,0.343995 0.28029,0.152887 0.528719,0.350366 0.745307,0.592436 0.229339,0.242071 0.414076,0.509623 0.554221,0.802656 0.140145,0.293033 0.242069,0.598807 0.305771,0.917321 0.0764,0.318514 0.114675,0.643398 0.114675,0.974652 0,0.331254 -0.04455,0.662509 -0.133775,0.993764 -0.0765,0.331255 -0.203858,0.637028 -0.382225,0.917321 -0.178366,0.280293 -0.394954,0.535103 -0.649774,0.764433 -0.254799,0.22933 -0.535089,0.41407 -0.840871,0.55421 0.343993,0.14015 0.662504,0.33126 0.955546,0.57333 0.29303,0.22933 0.54147,0.49688 0.745328,0.80265 0.203847,0.30578 0.356733,0.6434 0.458657,1.01287 0.101903,0.35674 0.152885,0.71984 0.152885,1.08932 0,0.344 -0.0382,0.68799 -0.114664,1.03199 -0.0764,0.34399 -0.197488,0.67525 -0.363103,0.99376 -0.152896,0.30577 -0.350374,0.58606 -0.592443,0.84088 -0.242069,0.24207 -0.515989,0.44592 -0.82176,0.61154 -0.305772,0.16563 -0.630664,0.2803 -0.974667,0.344 -0.343993,0.0637 -0.694356,0.0956 -1.051079,0.0956 z"
       style="font-weight:bold;font-family:'Sarasa Mono CL';-inkscape-font-specification:'Sarasa Mono CL Bold';stroke:none;stroke-width:1.04089"
       id="path1105" />
    <g
       aria-label="-0"
       id="text1260"
       style="font-weight:bold;font-size:18.4012px;font-family:'Sarasa Mono CL';-inkscape-font-specification:'Sarasa Mono CL Bold';stroke-width:4.89008;stroke-dasharray:19.5603, 4.89008">
      <path
         d="m 113.75986,119.99466 v -1.76651 h 7.02926 v 1.76651 z"
         id="path1414" />
      <path
         d="m 126.47509,125.51502 q -0.49684,0 -1.01207,-0.092 -0.49683,-0.092 -0.93846,-0.33122 -0.44163,-0.23922 -0.79125,-0.60724 -0.33122,-0.38643 -0.55204,-0.82806 -0.20241,-0.46003 -0.29442,-0.95686 -0.0736,-0.51523 -0.0736,-1.01207 v -6.1644 q 0,-0.49683 0.0736,-0.99366 0.092,-0.51524 0.29442,-0.95687 0.22082,-0.46003 0.57044,-0.82805 0.34962,-0.38642 0.79125,-0.62564 0.44163,-0.23922 0.93846,-0.34962 0.49683,-0.12881 0.99367,-0.12881 0.49683,0 0.99366,0.12881 0.49683,0.1104 0.93846,0.34962 0.44163,0.23922 0.79125,0.62564 0.34963,0.36802 0.55204,0.82805 0.22081,0.44163 0.29442,0.95687 0.092,0.49683 0.092,0.99366 v 6.1644 q 0,0.49684 -0.092,1.01207 -0.0736,0.49683 -0.29442,0.95686 -0.20241,0.44163 -0.55204,0.82806 -0.33122,0.36802 -0.77285,0.60724 -0.44163,0.23921 -0.95686,0.33122 -0.49683,0.092 -0.99366,0.092 z m -1.61931,-6.51402 3.23861,-2.55777 v -0.92006 q 0,-0.36802 -0.0736,-0.73605 -0.0736,-0.38642 -0.29442,-0.68084 -0.20242,-0.31282 -0.55204,-0.47843 -0.34962,-0.16561 -0.71764,-0.16561 -0.36803,0 -0.71765,0.18401 -0.33122,0.16561 -0.53364,0.47843 -0.20241,0.29442 -0.27601,0.66244 -0.0736,0.36803 -0.0736,0.73605 z m 1.61931,4.74751 q 0.36802,0 0.69924,-0.16561 0.34962,-0.16561 0.55204,-0.47843 0.22081,-0.31282 0.29442,-0.68085 0.0736,-0.36802 0.0736,-0.73605 v -3.47782 l -3.23861,2.55776 v 0.92006 q 0,0.36803 0.0736,0.73605 0.0736,0.36803 0.27601,0.68085 0.22082,0.31282 0.55204,0.47843 0.34962,0.16561 0.71765,0.16561 z"
         id="path1416" />
    </g>
  </g>
</svg>
